<?xml version="1.0" encoding="UTF-8"?>
<svg id="Capa_2" data-name="Capa 2" xmlns="http://www.w3.org/2000/svg" version="1.1" viewBox="0 0 13.3 15.1">
  <defs>
    <style>
      .cls-1 {
        fill: #2d3e40;
        stroke-width: 0px;
      }
    </style>
  </defs>
  <path class="cls-1" d="M6.9,1.1l.3,2.3c.2,1.2,1,2.1,2.2,2.4l1.8.4c.3,0,.3.4,0,.5l-1.8.4c-1.1.3-2,1.2-2.2,2.4l-.3,2.3c0,.3-.5.3-.5,0l-.3-2.3c-.2-1.2-1-2.1-2.2-2.4l-1.8-.4c-.3,0-.3-.4,0-.5l1.8-.4c1.1-.3,2-1.2,2.2-2.4l.3-2.3c0-.3.5-.3.5,0Z"/>
</svg>