<?xml version="1.0" encoding="UTF-8"?><svg id="Layer_2" xmlns="http://www.w3.org/2000/svg" xmlns:xlink="http://www.w3.org/1999/xlink" viewBox="0 0 65.82 65.82"><defs><style>.cls-1{fill:#234142;stroke-width:0px;}.cls-2{fill:#fafafa;opacity:.8;stroke:url(#linear-gradient);stroke-miterlimit:10;stroke-width:1.82px;}</style><linearGradient id="linear-gradient" x1="0" y1="32.91" x2="65.82" y2="32.91" gradientUnits="userSpaceOnUse"><stop offset="0" stop-color="#ffab91"/><stop offset=".22" stop-color="#ffb292"/><stop offset=".56" stop-color="#ffc697"/><stop offset=".95" stop-color="#ffe69f"/><stop offset="1" stop-color="#ffeba1"/></linearGradient></defs><g id="Capa_1"><rect class="cls-2" x=".91" y=".91" width="64" height="64" rx="31.83" ry="31.83"/><path class="cls-1" d="M38.12,47.99l-3.98-12.99,1.57-.4,3.1,10.45c1.21-1.53,2.11-3.02,2.71-4.46.6-1.45,1.01-2.83,1.23-4.14.21-1.31.32-2.51.32-3.58,0-2.63-.53-4.99-1.59-7.08-1.06-2.09-2.57-3.75-4.54-4.97-1.97-1.22-4.32-1.83-7.06-1.83-2.36,0-4.46.52-6.29,1.55-1.84,1.03-3.34,2.44-4.5,4.22-1.17,1.78-1.94,3.8-2.31,6.05h-1.85c.38-2.63,1.21-4.95,2.51-6.98,1.3-2.02,3.01-3.62,5.13-4.78,2.12-1.17,4.56-1.75,7.32-1.75,3.11,0,5.77.68,7.98,2.03,2.21,1.35,3.91,3.2,5.11,5.53,1.19,2.33,1.8,5,1.83,8,0,1.31-.13,2.75-.4,4.3-.27,1.55-.75,3.09-1.45,4.6-.7,1.51-1.7,2.89-3.02,4.12l10.37-3.9.6,1.65-12.79,4.34Z"/></g></svg>