<?xml version="1.0" encoding="UTF-8"?><svg id="Layer_2" xmlns="http://www.w3.org/2000/svg" xmlns:xlink="http://www.w3.org/1999/xlink" viewBox="0 0 64.88 64.88"><defs><style>.cls-1{fill:#234142;stroke-width:0px;}.cls-2{fill:#fafafa;opacity:.8;stroke:url(#linear-gradient);stroke-miterlimit:10;stroke-width:1.21px;}</style><linearGradient id="linear-gradient" x1="0" y1="32.44" x2="64.88" y2="32.44" gradientUnits="userSpaceOnUse"><stop offset="0" stop-color="#ffab91"/><stop offset=".22" stop-color="#ffb292"/><stop offset=".56" stop-color="#ffc697"/><stop offset=".95" stop-color="#ffe69f"/><stop offset="1" stop-color="#ffeba1"/></linearGradient></defs><g id="Capa_1"><rect class="cls-2" x=".61" y=".61" width="63.66" height="63.66" rx="31.83" ry="31.83"/><path class="cls-1" d="M28.12,51.22c-.68,0-1.38-.12-2.06-.37-2.09-.76-3.52-2.53-3.83-4.73l-.07-.53-.53.02c-2.2.07-4.21-1.03-5.32-2.96-1.11-1.93-1.07-4.2.1-6.09l.28-.45-.42-.33c-1.75-1.37-2.57-3.5-2.18-5.69.39-2.19,1.88-3.91,3.99-4.6l.51-.17-.11-.52c-.46-2.18.28-4.33,1.99-5.76,1.7-1.43,3.95-1.79,6.01-.96l.5.2.25-.47c1.05-1.96,3-3.13,5.22-3.13s4.18,1.17,5.22,3.13l.25.47.5-.2c2.06-.83,4.31-.47,6.01.96,1.7,1.43,2.45,3.58,1.99,5.76l-.11.52.51.17c2.11.69,3.61,2.41,3.99,4.6.39,2.19-.43,4.32-2.18,5.69l-.42.33.28.45c1.18,1.89,1.21,4.16.1,6.09-1.11,1.93-3.08,3.04-5.32,2.96l-.53-.02-.07.53c-.31,2.2-1.75,3.97-3.84,4.73-2.09.76-4.32.33-5.98-1.16l-.4-.36-.4.36c-1.12,1-2.5,1.53-3.92,1.53ZM23.41,44.09l.26,1.83c.24,1.66,1.32,2.99,2.89,3.56,1.57.57,3.26.25,4.51-.87l1.37-1.23,1.37,1.23c1.25,1.12,2.93,1.45,4.5.87,1.58-.57,2.66-1.91,2.89-3.56l.26-1.83,1.84.06c1.72.07,3.17-.78,4.01-2.23.84-1.45.81-3.17-.08-4.59l-.98-1.56,1.45-1.14c1.32-1.03,1.93-2.64,1.64-4.29-.29-1.65-1.42-2.95-3.01-3.46l-1.75-.57.38-1.8c.35-1.64-.21-3.26-1.5-4.34-1.28-1.08-2.98-1.35-4.53-.72l-1.71.69-.87-1.63c-.79-1.48-2.26-2.36-3.93-2.36s-3.15.88-3.93,2.36l-.87,1.63-1.71-.69c-1.55-.63-3.25-.36-4.53.72-1.28,1.08-1.84,2.7-1.5,4.34l.38,1.8-1.75.57c-1.59.52-2.72,1.81-3.01,3.46-.29,1.65.32,3.25,1.64,4.29l1.45,1.14-.98,1.56c-.89,1.42-.92,3.14-.08,4.59.84,1.45,2.32,2.29,4.01,2.23l1.84-.06Z"/><polygon class="cls-1" points="29.5 41.29 21.81 33.02 22.97 31.94 29.54 39.01 42.17 26.48 43.29 27.61 29.5 41.29"/></g></svg>