<?xml version="1.0" encoding="UTF-8"?>
<svg id="Layer_2" data-name="Layer 2" xmlns="http://www.w3.org/2000/svg" version="1.1" viewBox="0 0 98.1 30.7">
  <defs>
    <style>
      .cls-1 {
        fill: #234142;
        stroke-width: 0px;
      }
    </style>
  </defs>
  <g id="Capa_1" data-name="Capa 1">
    <path class="cls-1" d="M33.3,5.6c-6.9,1.5-9.6,9.4-5.4,14.8,3,3.9,8.5,4.6,12.3,1.6.2-.1.4-.3.6-.5,0,1.9-1.2,4.3-3.3,5.2-1.1.5-2.3.6-3.5.4-1.7-.3-2.9-1.4-3.8-2.8-1,.6-1.9,1.3-2.9,1.9h0c0,0,0,.1,0,.1,2.2,3,5,4.7,8.8,4.2,3.2-.4,5.6-2.2,7.1-5.1.8-1.6,1-3.3,1-5,0-2,0-3.9,0-5.9.1-5.2-4.9-10.3-11-9h0ZM40.8,14.6c0,3.1-2.6,5.8-5.8,5.8-3.2,0-5.8-2.6-5.8-5.7,0-3.1,2.6-5.8,5.8-5.8,3.2,0,5.8,2.6,5.8,5.7h0Z"/>
    <path class="cls-1" d="M54.1,5.5c-1.7.2-3.2.9-4.5,2.1,0,0-.2.1-.3.3V0h-3.4v14.8c0,.6,0,1.1.2,1.7,1,5.1,6.2,8.3,11.3,7.1,6.3-1.6,9-8.9,5.3-14.2-2.1-2.9-4.9-4.3-8.5-3.8h0ZM54.9,20.4c-2.9,0-5.7-2.4-5.7-5.8,0-3.4,2.9-5.9,5.8-5.8,3.2,0,5.7,2.6,5.7,5.8,0,3.2-2.6,5.7-5.8,5.7h0Z"/>
    <path class="cls-1" d="M9.3,5.4c-2.1,0-4,.8-5.5,2.1,0,0-.2.2-.4.3V0H0c0,.1,0,.2,0,.3,0,4.9,0,9.8,0,14.7,0,.6.1,1.3.3,2,1.3,5,6.5,8,11.4,6.6,4.8-1.4,7.6-6.3,6.4-11.1-.8-3.2-3.9-7-8.8-6.9ZM9.2,20.4c-3.2,0-5.7-2.6-5.7-5.8s2.6-5.7,5.8-5.7c3.1,0,5.8,2.6,5.8,5.8,0,3.2-2.6,5.7-5.8,5.7h0Z"/>
    <path class="cls-1" d="M74.4,5.4c-5.1,0-9.2,4.1-9.2,9.2,0,5.1,4.3,9.2,9.2,9.2s9.3-4.4,9.2-9.2c.2-4.7-3.9-9.2-9.2-9.2h0ZM74.4,20.4c-3.2,0-5.8-2.5-5.8-5.8s2.6-5.8,5.8-5.8,5.8,2.6,5.8,5.7-2.6,5.8-5.7,5.8h0Z"/>
    <path class="cls-1" d="M92.6,15c-.2-.2-.2-.4,0-.6,1.8-2.7,3.6-5.5,5.3-8.2,0-.1.1-.2.2-.4h-3.8c-.1,0-.3.1-.4.2-.6.8-1.1,1.7-1.7,2.6-.6,1-1.2,1.9-1.9,2.9h0c-.1-.2-.2-.3-.3-.4-1.1-1.7-2.2-3.3-3.3-5-.1-.2-.3-.3-.6-.3h-3.4c0,0-.2,0-.3,0,0,.1.2.2.2.3,1.8,2.7,3.5,5.5,5.3,8.2.2.3.2.4,0,.7-1.8,2.7-3.5,5.4-5.3,8.1,0,.1-.1.2-.2.4,1.3,0,2.5,0,3.7,0,.3,0,.4,0,.6-.3,1-1.5,2-3,3-4.5.2-.3.4-.6.6-.9.1.1.2.3.3.4,1.1,1.7,2.2,3.4,3.3,5,.1.2.3.3.5.3h3.7c-.1-.2-.2-.3-.2-.4-1.8-2.7-3.5-5.4-5.3-8.1h0Z"/>
    <rect class="cls-1" x="20.3" y="5.7" width="3.4" height="17.8"/>
    <rect class="cls-1" x="20.3" y=".2" width="3.4" height="3.3"/>
  </g>
</svg>