<svg width="111" height="217" viewBox="0 0 111 217" fill="none" xmlns="http://www.w3.org/2000/svg">
<path d="M26.9597 0.627441C28.3473 0.968218 28.3473 0.968218 29.794 1.46628C30.0278 2.08911 30.0278 2.08911 30.2664 2.72453C31.0683 2.71723 31.0683 2.71723 31.8865 2.70978C32.5865 2.70585 33.2864 2.70203 33.9864 2.69832C34.339 2.6948 34.6916 2.69129 35.0548 2.68767C37.7175 2.67702 37.7175 2.67702 38.7693 3.14395C39.267 4.11266 39.7411 5.09129 40.1865 6.07987C41.0917 4.93071 41.0917 4.93071 41.5538 4.07125C41.7685 3.69009 41.7685 3.69009 41.9875 3.30123C42.1269 3.04496 42.2664 2.78869 42.41 2.52465C43.5332 1.34971 45.1462 1.48808 46.787 1.33685C48.2526 1.28256 49.6002 1.26805 51.0514 1.46628C52.2029 2.64589 52.2029 2.64589 52.941 3.98278C53.5402 4.25527 53.5402 4.25527 54.1515 4.53327C55.9315 5.62742 56.1961 7.21164 56.7201 9.01579C57.1877 9.01579 57.6554 9.01579 58.1372 9.01579C58.1372 9.43101 58.1372 9.84624 58.1372 10.274C58.3905 10.3086 58.6439 10.3432 58.9049 10.3789C61.0539 10.9814 62.5644 11.976 63.8059 13.6294C65.4467 14.5313 66.5297 14.8813 68.4707 14.9925C70.6844 15.1613 71.7558 16.2236 73.3034 17.5516C74.4433 18.4321 75.5878 18.7376 77.0327 19.0818C77.1886 19.3586 77.3445 19.6354 77.5051 19.9206C78.4399 20.2255 79.385 20.5071 80.3394 20.7595C80.3394 21.0363 80.3394 21.3131 80.3394 21.5983C80.963 21.5983 81.5865 21.5983 82.229 21.5983C82.229 21.8751 82.229 22.1519 82.229 22.4371C83.0084 22.5756 83.7879 22.714 84.5909 22.8566C85.1519 24.2197 85.1519 24.2197 85.5357 25.7925C84.9157 26.71 84.9157 26.71 84.1185 27.4702C83.7854 28.3708 83.7854 28.3708 83.6461 29.1478C82.477 29.3554 82.477 29.3554 81.2842 29.5672C81.2775 29.8154 81.2708 30.0636 81.2639 30.3192C81.1363 32.1958 81.0628 33.0858 79.6309 34.5478C79.2411 34.8419 78.8514 35.1361 78.4499 35.4391C78.294 35.8543 78.1381 36.2695 77.9775 36.6973C78.3197 36.6827 78.6619 36.6681 79.0145 36.6531C81.8602 36.5824 83.4609 36.8017 86.0081 37.9556C87.4732 38.1121 88.9238 38.1913 90.398 38.2456C91.6767 38.375 91.6767 38.375 93.0939 39.2138C93.5616 38.3834 93.5616 38.3834 94.0387 37.5362C94.5063 37.5362 94.974 37.5362 95.4558 37.5362C95.6117 37.813 95.7676 38.0898 95.9282 38.375C97.4385 38.0862 97.4385 38.0862 97.9949 36.9071C98.7625 35.8585 98.7625 35.8585 100.032 35.5177C100.393 35.4918 100.753 35.4658 101.124 35.4391C101.124 35.1623 101.124 34.8855 101.124 34.6003C101.748 34.4618 102.372 34.3234 103.014 34.1808C103.087 33.8564 103.087 33.8564 103.162 33.5255C103.486 32.5032 103.486 32.5032 104.195 31.0614C104.78 29.827 105.152 28.784 105.376 27.4702C106.623 27.4702 107.87 27.4702 109.155 27.4702C111.078 30.3566 111.078 30.3566 110.956 32.0838C110.766 32.7066 110.766 32.7066 110.572 33.342C110.531 33.9186 110.491 34.4953 110.454 35.0721C110.1 36.6973 110.1 36.6973 108.978 37.7459C107.738 38.375 107.738 38.375 106.321 38.375C106.321 38.6518 106.321 38.9286 106.321 39.2138C106.03 39.2901 105.74 39.3663 105.441 39.4449C105.059 39.5503 104.677 39.6557 104.284 39.7643C103.905 39.8665 103.527 39.9687 103.138 40.074C102.008 40.4948 101.487 40.9557 100.652 41.7304C100.184 41.8688 99.7168 42.0072 99.2349 42.1498C99.079 42.4266 98.9232 42.7034 98.7625 42.9886C98.2949 43.0794 98.2949 43.0794 97.8178 43.1721C97.506 43.25 97.1942 43.3278 96.873 43.408C96.7171 43.8232 96.5612 44.2385 96.4006 44.6663C96.0614 44.8377 95.7223 45.0091 95.3728 45.1856C93.5734 46.1822 92.4421 47.4878 91.1158 48.9391C90.2212 49.9139 89.3149 50.8583 88.37 51.7964C88.0582 51.7964 87.7465 51.7964 87.4252 51.7964C87.4252 52.35 87.4252 52.9036 87.4252 53.474C86.8017 53.474 86.1781 53.474 85.5357 53.474C85.3749 53.8244 85.3749 53.8244 85.2109 54.1818C84.5909 55.1517 84.5909 55.1517 83.41 55.9643C81.8461 57.6653 81.7854 59.108 81.5462 61.2546C81.3322 62.4363 81.078 63.2154 80.5701 64.2921C79.6898 66.2608 79.6058 68.1512 79.5423 70.2507C79.5261 70.6157 79.51 70.9806 79.4934 71.3566C79.4549 72.2461 79.424 73.1358 79.3947 74.0255C78.927 74.1639 78.4593 74.3023 77.9775 74.4449C77.4673 75.642 77.4199 76.8509 77.3556 78.1214C77.326 78.681 77.326 78.681 77.2957 79.2518C77.2771 79.6379 77.2585 80.0239 77.2394 80.4216C77.2088 81.0104 77.2088 81.0104 77.1776 81.6111C77.1276 82.5776 77.0794 83.5442 77.0327 84.5109C78.1239 84.7878 79.2152 85.0646 80.3394 85.3498C80.3394 85.6266 80.3394 85.9034 80.3394 86.1886C80.6122 86.3011 80.885 86.4135 81.1661 86.5294C82.2444 87.0347 83.1614 87.618 84.1185 88.2857C83.7052 90.3304 83.7052 90.3304 83.1738 90.8022C83.0138 93.0363 83.0138 93.0363 84.1185 94.9964C85.0913 95.3 85.0913 95.3 86.0081 95.4158C86.363 98.7248 85.5397 100.417 83.1738 102.965C82.5439 103.525 81.9141 104.084 81.2842 104.643C81.1283 104.998 80.9724 105.352 80.8118 105.718C80.23 106.977 79.7368 107.269 78.4499 107.998C71.4899 110.574 63.325 112.141 55.7753 111.354C54.3803 110.715 54.3803 110.715 53.4134 110.095C53.5341 111.078 53.6933 112.058 53.8857 113.031C54.1975 113.17 54.5093 113.308 54.8305 113.451C54.8305 114.558 54.8305 115.665 54.8305 116.806C54.3629 116.806 53.8952 116.806 53.4134 116.806C53.4408 117.236 53.4682 117.666 53.4964 118.109C53.5186 118.679 53.54 119.25 53.561 119.821C53.5808 120.103 53.6006 120.386 53.6209 120.677C53.6648 122.275 53.469 123.029 52.4058 124.334C50.0544 125.828 47.6835 125.564 44.9104 125.194C43.2192 124.64 41.7087 123.952 40.1865 123.097C40.1865 122.821 40.1865 122.544 40.1865 122.259C39.563 122.535 38.9394 122.812 38.297 123.097C38.2435 125.229 38.2435 125.229 38.7693 127.292C38.8017 128.086 38.8094 128.882 38.7989 129.677C38.7946 130.094 38.7903 130.511 38.7859 130.94C38.7805 131.259 38.775 131.577 38.7693 131.905C39.7047 131.905 40.64 131.905 41.6037 131.905C41.6037 132.32 41.6037 132.736 41.6037 133.163C41.9154 133.025 42.2272 132.887 42.5484 132.744C42.7043 132.329 42.8602 131.913 43.0208 131.486C44.3789 131.224 44.3789 131.224 45.8552 131.066C46.7999 131.905 46.7999 131.905 46.8922 132.905C46.8812 133.284 46.8703 133.664 46.859 134.055C46.8505 134.436 46.8419 134.818 46.8331 135.211C46.8222 135.504 46.8112 135.797 46.7999 136.099C45.7087 136.099 44.6175 136.099 43.4932 136.099C43.3373 135.546 43.1814 134.992 43.0208 134.422C41.9296 134.56 40.8384 134.698 39.7141 134.841C39.7141 135.118 39.7141 135.395 39.7141 135.68C41.1171 136.303 41.1171 136.303 42.5484 136.938C42.0761 137.777 42.0761 137.777 40.9541 138.118C39.343 138.765 39.0363 139.293 38.297 140.713C38.198 141.844 38.1612 142.866 38.2084 143.99C38.2148 144.28 38.2212 144.571 38.2278 144.87C38.2443 145.582 38.2697 146.293 38.297 147.004C37.5175 147.143 36.7381 147.281 35.935 147.424C35.935 147.977 35.935 148.531 35.935 149.101C36.2468 149.101 36.5586 149.101 36.8798 149.101C36.7239 149.516 36.568 149.932 36.4074 150.359C35.891 150.334 35.3746 150.308 34.8426 150.281C33.1477 150.2 33.1477 150.2 32.3035 150.962C32.0989 151.179 31.8943 151.395 31.6835 151.618C31.3718 151.678 31.06 151.739 30.7388 151.801C29.4113 152.133 29.0864 152.684 28.3768 153.715C28.0494 154.409 27.7321 155.108 27.432 155.812C27.2762 155.95 27.1203 156.089 26.9597 156.231C26.8507 156.796 26.7653 157.365 26.6939 157.935C26.6257 158.48 26.5575 159.025 26.4873 159.587C26.799 159.587 27.1108 159.587 27.432 159.587C28.7235 160.647 29.7612 161.64 30.7388 162.942C31.8531 163.171 31.8531 163.171 33.1007 163.204C35.3875 163.328 35.3875 163.328 36.4074 163.781C36.4665 166.979 36.4665 166.979 35.935 168.394C35.9155 168.723 35.896 169.052 35.876 169.391C35.317 170.879 34.3684 171.306 32.9088 172.122C32.08 172.557 32.08 172.557 31.6835 173.427C31.401 173.531 31.1184 173.635 30.8273 173.742C29.3368 174.498 28.5217 175.385 27.9044 176.783C27.795 177.628 27.7188 178.476 27.6682 179.325C27.5692 180.905 27.5056 181.697 26.6349 183.1C25.4091 184.012 24.1339 184.538 22.7082 185.171C21.2903 187.113 21.443 189.237 21.7634 191.462C22.4064 193.207 23.2427 194.838 24.1253 196.495C24.4458 197.192 24.7626 197.891 25.0701 198.592C24.4466 198.454 23.823 198.316 23.1806 198.173C23.1806 197.896 23.1806 197.619 23.1806 197.334C22.2745 197.347 22.2745 197.347 21.3501 197.36C19.5196 197.387 19.5196 197.387 18.4567 196.915C17.7368 196.908 17.0165 196.929 16.2977 196.966C15.8745 196.986 15.4513 197.006 15.0153 197.027C14.5726 197.051 14.1299 197.074 13.6738 197.098C13.2274 197.12 12.7811 197.142 12.3212 197.165C11.2169 197.219 10.1129 197.276 9.00893 197.334C8.85304 196.919 8.69715 196.504 8.53654 196.076C7.59335 195.369 7.59335 195.369 6.64699 194.818C6.80288 193.987 6.95877 193.157 7.11938 192.301C6.80761 192.301 6.49583 192.301 6.17461 192.301C6.17461 191.056 6.17461 189.81 6.17461 188.526C5.23928 188.665 4.30395 188.803 3.34028 188.946C3.34028 189.223 3.34028 189.5 3.34028 189.785C2.87262 189.646 2.40495 189.508 1.92312 189.365C1.92312 188.535 1.92312 187.704 1.92312 186.849C1.45546 186.71 0.987792 186.572 0.505956 186.429C0.0100584 185.109 -0.0142915 184.169 0.00404471 182.786C0.00830727 182.369 0.0125698 181.952 0.0169616 181.523C0.0251822 181.045 0.0251822 181.045 0.0335689 180.558C0.501233 180.558 0.968896 180.558 1.45073 180.558C1.50919 180.082 1.56765 179.606 1.62788 179.116C1.72531 178.623 1.82274 178.13 1.92312 177.622C2.23489 177.483 2.54667 177.345 2.86789 177.202C3.02816 176.224 3.18553 175.245 3.34028 174.266C3.65206 173.989 3.96383 173.713 4.28506 173.427C4.15018 172.632 4.15018 172.632 3.81267 171.75C3.3667 170.206 3.28311 169.094 3.81267 167.556C4.12444 167.417 4.43622 167.279 4.75744 167.136C4.97782 166.245 4.97782 166.245 5.05269 165.223C5.088 164.876 5.12332 164.529 5.15971 164.172C5.18285 163.905 5.20599 163.637 5.22983 163.361C5.69749 163.361 6.16516 163.361 6.64699 163.361C6.58427 163.072 6.52155 162.783 6.45693 162.485C5.92753 159.984 5.51041 157.506 5.22983 154.973C5.69749 154.973 6.16516 154.973 6.64699 154.973C6.49111 154.004 6.33522 153.035 6.17461 152.037C5.39517 151.76 4.61573 151.484 3.81267 151.198C3.81267 150.921 3.81267 150.645 3.81267 150.359C6.5289 149.888 6.5289 149.888 7.59177 150.359C7.74766 149.529 7.90354 148.699 8.06416 147.843C6.81705 147.843 5.56995 147.843 4.28506 147.843C4.28506 146.044 4.28506 144.244 4.28506 142.391C3.97328 142.391 3.6615 142.391 3.34028 142.391C3.49617 141.56 3.65206 140.73 3.81267 139.874C3.18912 139.874 2.56557 139.874 1.92312 139.874C1.84331 139.14 1.76484 138.406 1.68693 137.672C1.64308 137.263 1.59924 136.855 1.55407 136.434C1.47057 135.486 1.45073 134.534 1.45073 133.583C2.07428 133.583 2.69783 133.583 3.34028 133.583C3.10645 133.211 2.87262 132.839 2.6317 132.456C1.49057 130.153 1.81056 127.656 1.92312 125.194C1.61134 125.194 1.29957 125.194 0.978344 125.194C1.04535 124.46 1.11469 123.726 1.18501 122.992C1.22338 122.584 1.26174 122.175 1.30126 121.754C1.45073 120.581 1.45073 120.581 1.70353 119.696C1.99831 118.768 1.99831 118.768 1.92312 117.225C2.23489 117.225 2.54667 117.225 2.86789 117.225C2.83501 116.912 2.80213 116.598 2.76825 116.275C2.69006 115.012 2.66026 113.864 2.86789 112.612C4.28506 111.537 4.28506 111.537 5.70222 110.934C5.70222 110.657 5.70222 110.381 5.70222 110.095C5.39044 109.957 5.07867 109.819 4.75744 109.676C4.75744 108.707 4.75744 107.738 4.75744 106.74C4.28978 106.602 3.82212 106.463 3.34028 106.321C3.24699 105.028 3.16019 103.734 3.07456 102.441C3.04807 102.075 3.02159 101.709 2.99429 101.332C2.97146 100.978 2.94862 100.624 2.9251 100.259C2.90283 99.9337 2.88057 99.6086 2.85763 99.2737C2.86804 98.3387 3.04249 97.5678 3.34028 96.674C3.96383 96.674 4.58738 96.674 5.22983 96.674C5.22983 96.1204 5.22983 95.5668 5.22983 94.9964C5.69749 94.858 6.16516 94.7196 6.64699 94.577C6.64699 93.0545 6.64699 91.532 6.64699 89.9634C6.17933 89.825 5.71167 89.6865 5.22983 89.5439C5.22983 89.2671 5.22983 88.9903 5.22983 88.7051C5.69749 88.7051 6.16516 88.7051 6.64699 88.7051C6.63055 88.4618 6.61411 88.2185 6.59717 87.9679C6.51121 85.7654 6.72551 84.3452 8.06416 82.4138C8.37593 82.4138 8.68771 82.4138 9.00893 82.4138C8.94956 82.0489 8.94956 82.0489 8.88899 81.6766C8.60169 79.7199 8.5025 78.071 9.00893 76.1226C8.38538 76.261 7.76183 76.3994 7.11938 76.542C7.07067 76.0489 7.02195 75.5558 6.97176 75.0478C6.7248 73.2524 6.08077 71.8877 5.22983 70.2507C4.73108 68.9223 4.70949 68.7008 5.22983 67.3148C4.76217 67.1764 4.2945 67.038 3.81267 66.8954C3.05342 65.5472 3.31313 64.196 3.34028 62.7012C3.65206 62.7012 3.96383 62.7012 4.28506 62.7012C4.26557 62.1822 4.24608 61.6632 4.22601 61.1284C4.22054 59.7584 4.35267 58.8364 5.22983 57.6682C5.69749 57.6682 6.16516 57.6682 6.64699 57.6682C6.53921 57.2687 6.43143 56.8691 6.32038 56.4575C6.18459 55.9314 6.0488 55.4054 5.90889 54.8634C5.70337 54.0824 5.70337 54.0824 5.4937 53.2856C5.24758 51.8966 5.26832 51.0336 5.70222 49.6993C6.01399 49.6993 6.32577 49.6993 6.64699 49.6993C6.66465 49.3603 6.68231 49.0213 6.70051 48.672C6.73156 48.2238 6.76262 47.7756 6.79461 47.3138C6.82202 46.8711 6.84942 46.4283 6.87765 45.972C7.13918 44.5593 7.63623 43.7425 8.53654 42.5692C8.69243 42.2924 8.84832 42.0156 9.00893 41.7304C9.47659 41.7304 9.94426 41.7304 10.4261 41.7304C10.3969 41.3757 10.3676 41.021 10.3375 40.6556C10.4459 38.8915 10.8076 37.7907 11.8433 36.2779C13.5852 35.8847 13.5852 35.8847 15.15 35.8585C14.6188 34.612 14.0999 33.6212 13.2604 32.5032C13.1592 31.3651 13.2435 30.4662 13.5557 29.3575C13.7765 28.0504 13.352 27.4195 12.788 26.2119C12.6839 24.7023 12.8361 23.4709 13.2604 22.0177C13.0266 21.8101 13.0266 21.8101 12.788 21.5983C12.6386 20.6202 12.6386 20.6202 12.788 19.5012C14.8277 17.4521 17.3532 16.2353 20.3462 15.7265C20.4321 15.218 20.4321 15.218 20.5197 14.6992C20.6384 14.0269 20.6384 14.0269 20.7596 13.341C20.8363 12.8982 20.913 12.4554 20.9921 11.9992C21.2716 10.7782 21.6704 9.73318 22.2358 8.59637C21.924 8.59637 21.6122 8.59637 21.291 8.59637C21.5543 7.19395 21.9296 6.06597 22.7082 4.82162C23.0199 4.82162 23.3317 4.82162 23.6529 4.82162C23.8088 4.40639 23.9647 3.99117 24.1253 3.56336C24.515 3.44226 24.9048 3.32115 25.3063 3.19637C25.696 3.04066 26.0857 2.88496 26.4873 2.72453C26.9095 1.65596 26.9095 1.65596 26.9597 0.627441Z" fill="#B3B3B3"/>
<path d="M24.5977 201.528C25.2213 201.667 25.8448 201.805 26.4873 201.948C26.4873 202.501 26.4873 203.055 26.4873 203.625C26.1755 203.625 25.8637 203.625 25.5425 203.625C25.5425 204.041 25.5425 204.456 25.5425 204.884C25.8348 204.91 26.1271 204.936 26.4282 204.962C26.7595 205.075 27.0908 205.187 27.4321 205.303C27.7582 205.998 28.0712 206.698 28.3768 207.4C30.7725 209.84 34.4217 212.827 38.1494 213.115C38.5312 213.146 38.913 213.178 39.3063 213.21C39.5968 213.23 39.8873 213.251 40.1865 213.272C39.9527 214.31 39.9527 214.31 39.7141 215.369C37.3758 215.577 37.3758 215.577 34.9903 215.789C34.9903 216.065 34.9903 216.342 34.9903 216.627C34.3965 216.428 34.3965 216.428 33.7908 216.224C32.0454 215.759 30.4889 215.618 28.6721 215.526C28.0838 215.495 27.4956 215.464 26.8896 215.431C26.445 215.411 26.0005 215.39 25.5425 215.369C25.5139 214.939 25.4853 214.51 25.4558 214.067C25.4159 213.496 25.3759 212.925 25.3358 212.355C25.3173 212.072 25.2987 211.79 25.2796 211.499C25.195 210.314 25.0908 209.166 24.8192 208.003C24.5361 206.696 24.5531 205.453 24.5682 204.124C24.5725 203.636 24.5767 203.149 24.5811 202.647C24.5866 202.278 24.5921 201.909 24.5977 201.528Z" fill="#B3B3B3"/>
</svg>
