<?xml version="1.0" encoding="UTF-8"?>
<svg id="Capa_2" xmlns="http://www.w3.org/2000/svg" version="1.1" viewBox="0 0 58 98.9">
  <!-- Generator: Adobe Illustrator 29.2.1, SVG Export Plug-In . SVG Version: 2.1.0 Build 116)  -->
  <defs>
    <style>
      .st0 {
        fill: #035981;
      }

      .st1 {
        fill: #0b4e4a;
      }

      .st2 {
        fill: #035b1c;
      }

      .st3 {
        fill: #033253;
      }

      .st4 {
        fill: #026f98;
      }

      .st5 {
        fill: #1e5b5d;
      }

      .st6 {
        fill: #031b2b;
      }

      .st7 {
        fill: #032f30;
      }

      .st8 {
        fill: #53ae1d;
      }

      .st9 {
        fill: #021522;
      }

      .st10 {
        fill: #05841d;
      }

      .st11 {
        fill: #021a26;
      }

      .st12 {
        fill: #5cb31d;
      }

      .st13 {
        fill: #0c2e3f;
      }

      .st14 {
        fill: #fdfdfd;
      }

      .st15 {
        fill: #042a3a;
      }
    </style>
  </defs>
  <path class="st14" d="M58,0v98.9H0V0h58ZM28.8,1.6c-2.7.4-1.6,4.3.9,3.3s.8-3.5-.9-3.3ZM5.2,9.2c-.8,1-1.3,2.3-1.6,3.5s-.8,2.9-1,4.5-.2,3.4,0,5.2,0,.5,0,.7.1.4.1.6c.4,2.2.9,3.5,1.9,5.5s.8,1.5,1.4,2.5,1.1,1.8,1.9,2.7,1.4,1.7,1.8,1.7c.4-.6.9-1.1,1.5-1.6s.6-.2.5-.5l-3-3.4c0-.9-.6-.8-.9-1.3-1.1-2.1-2-5.1-2.3-7.4s-.1-2.2,0-3.6,0-.4-.1-.4c0,0,.1-.2.1-.3.2-.7.2-2,.4-2.8.4-1.5,1.2-3.1,1.9-4.4s0-.2.1-.3c.4-.2.5-.7.7-1,.9-1.3,2.3-2.3,3.2-3.6l-1.9-1.9h-.2c-1.8,1.6-3.6,3.5-4.6,5.7ZM52.4,21.8c0,0,0,.2,0,.3s-.1,0-.1.3c-.5,4.1-2.4,7.8-5.2,10.8s-.7.4-.7.6,1.9,1.8,2.1,2.2l1.9-2c2.6-3.2,4.2-6.6,4.8-10.8s-.2-10.6-3-15.3-2.5-3.1-3.9-4.5c-.2,0-.2.1-.3.2-.2.2-1.8,1.9-1.7,2,1.4,1.5,2.8,3,3.8,4.7,2.1,3.7,2.7,7.3,2.4,11.5ZM29.8,12.5c0-1.3,0-2.7,0-4s0-1.8-.2-2.4-.2-.9-.8-.8-.8.9-.8,1.5c-.2,1.8.1,3.9,0,5.7h1.7ZM9.7,12.3c-1.1,2.2-1.2,2.8-1.4,5.2s-.3,2.9.1,5.2.8,3.4,2,5.5,1.2,2,2.1,2.9.8.9,1.1.9c.3-.5,2.1-1.7,2-2.2l-2-2c0-.3-.2-.4-.3-.5-.4-.6-1.4-2.3-1.6-3s-.2-1.8-.6-2.7c.1-.9-.2-1.8-.1-2.8,0-1.8.7-4.4,1.6-6s1.5-2.2,2.2-3,.7-.7,1-1v-.2c-.8-.4-1.4-1.3-2.1-1.9-1.5,1.6-2.9,3.2-3.9,5.1s0,.3,0,.4ZM46.7,22.7c-.5,2.8-2.2,5.3-4.3,7.2,0,.3.6.6.8.8.5.5.8,1,1.3,1.4,2.3-2,4.2-5.2,5-8.1s.6-5.2.3-7.6c-.5-3.7-2.9-6.8-5.4-9.4l-1.8,1.8c-.1.1-.1.2-.1.4s1.7,2.1,2,2.5c2.3,3.2,3.1,7,2.3,10.9ZM40.9,21.4c-.3,2-1.5,3.5-2.7,5,.6.2,1.9,2.3,2.4,2.1s.9-1.1,1.1-1.3c.6-.7,1-1.5,1.3-2.4s.2-.4.3-.6c.1-.3.2-.8.3-1.2s.2-.3.3-.6c.4-1.7.3-3.1.1-4.8-.2-2.5-1.1-4.3-2.8-6.2s-.9-1-1.2-.9-1.5,1.6-1.6,1.7-.2.2-.1.4,1.4,1.9,1.7,2.4c1.1,2,1.3,3.9.9,6.1ZM17.4,22.9c-.9-3.7-.8-6.5,1.7-9.5s.7-.4.7-.7-1.6-1.8-1.8-1.9c-.7-.3-2.2,1.7-2.6,2.2-1.3,2.1-1.8,4.6-1.8,7s0,1,.1,1.3.1.3.1.4c.1,2.7,2,4.7,3.3,6.8.2,0,.2,0,.4-.1.5-.4,1.3-1.3,1.8-1.8s.5-.1.4-.4c-1.2-.8-1.9-2.1-2.6-3.3ZM26.9,14.2c-.6.3-.6.3-1,.7s0,0-.1.1c-1.3,1.3-1.5,2.2-1.2,4.1s.8,2.8,2,3.3.7.1.9.2.3.3.3.3c0,0,0,.4,0,.6s-.1.4-.1.7c-.2,5.4-1,10.8-1.2,16.2l5.1-1.5c-.2-1.8-.2-3.7-.4-5.5-.3-2.8-1-5.7-1-8.5s0-1.3,0-1.9c0-.2,1.1-.5,1.4-.8,1.4-1,2-2.8,1.7-4.4s-.6-2-1.3-2.7-1.6-1-1.9-1.1-.9-.1-1.4,0c-.8,0-1,0-1.7.4ZM46.7,37.5c-1.3.3-2.8,1.2-4.2,1.7s-1.8.5-2.6.8c-4.5.6-10.7,2.5-15.2,3.7s-18.1,5.2-21.3,9.8-.3.6-.5.9c-1,2.1-.8,4.2-.7,6.5s0,.6.1.8c0,.1,0,1.7.3,1.5,2.3-3.8,7.1-6.3,11.1-7.8,9.3-3.6,19.3-5.3,28.7-8.4s5.8-1.8,6.8-3.1c1.8-1.7,2.5-3.8.1-5.4s-1.6-.9-2.4-1-.3.1-.3.1ZM20.6,38.9c-.8,0-1.6,0-2.5.1v3.8l4.7-1.2c.5-.3.1-.5.1-.7,0-.6,0-1.3,0-1.9-.8,0-1.5-.1-2.3-.1ZM11.6,41c-.2,0-.3.1-.4.1-.5.1-.5,0-1,.3s-.3,0-.7.3c-1,.7-1.1,1.6-1,2.8.2,2,1.3,1,2.6.7s5.8-1.6,5.9-1.9,0-1.6,0-1.9c0-.5-.4-.5-.8-.6-1.2-.1-3.3,0-4.6.1ZM52.2,44.9c-3,3.7-14,6.8-18.7,8.1s-11.7,2.9-17.5,4.9c-4,1.4-7.5,2.7-10.7,5.5s-2.7,2.5-2.9,4.5c-.5,2.1-.3,4.6,0,6.7s0,.9.3.8c2.4-3.8,6.5-6.1,10.5-7.8,9-3.8,19-5.6,28.4-8.4,5.1-1.6,11.6-3.6,13.6-9.1s.7-4.5-.1-6-.4-.3-.5-.5c-.4-.8-.4-1.8-1.3-2.3,0,1.2-.4,2.5-1.2,3.5ZM53.2,57.8c-.7.1-1.2.8-1.7,1.2-2.8,1.9-6.9,3.3-10.2,4.4s-2,.4-3,.8c-1.2.3-2.3.6-3.5.9-7.8,2-16.3,3.8-23.6,7.3s-10.5,5.9-8.3,12.1.3.8.5,1.2,1.5,2.6,1.8,2.2c0-1.1.7-2.3,1.5-3.1,5.3-6.1,21.7-9.2,29.6-11.3s16-3.9,19.1-9.7,1-5.2.8-7.4-.3-1.2-.3-1.8c-.4-.1-.2.4-.4.7-.4.8-2.3,2.3-2.4,2.8ZM55.9,67.4c0,0,0-.8-.3-.4s-.4,1.1-.7,1.3l-1.7,1.9c-.4,0-1.7,1.2-2.2,1.5-1.7,1-3.7,1.8-5.5,2.6-1.8.3-4.3,1.3-6.2,1.8-3.3.9-6.7,1.7-10,2.5-5.9,1.6-11.2,2.7-16.7,5.5s-.3,0-.5.1c-2.1,1.1-4.7,2.8-4.5,5.6s1,1.5,1.6,2,.1.2.3.4,1.8,1.3,1.9,1.3c.6.3.7-.3,1.2-.6,5.2-3.3,13-5,19.1-6.6s15.8-3.2,21.4-7.9c3.6-3.1,3.6-6,3-10.5s-.1-.3-.1-.4ZM55.2,79.7c-.2,0-.3,0-.4.1-.2.3-.3.7-.6,1.1-2.8,3.7-11.4,6-15.9,7.2s-11.1,2.6-16.5,4.2-4.7,1.4-5.9,2.2-.7.4-.6.6c4.5,2,9.8,2.4,14.7,2.1,7.2-.4,17-4.2,21.8-9.8s3.7-5,3.5-7.6Z"/>
  <path class="st11" d="M55.2,79.7c.2,2.7-1.8,5.7-3.5,7.6-4.8,5.6-14.5,9.4-21.8,9.8s-10.2,0-14.7-2.1c0-.2.5-.5.6-.6,1.3-.8,4.4-1.7,5.9-2.2,5.4-1.6,11.1-2.7,16.5-4.2s13-3.5,15.9-7.2.4-.8.6-1.1.3,0,.4-.1Z"/>
  <path class="st7" d="M53.2,57.8c0-.5,1.9-2,2.4-2.8s0-.8.4-.7c0,.6.3,1.2.3,1.8.2,2.3.2,5.4-.8,7.4-3.2,5.8-13.2,8.1-19.1,9.7s-24.3,5.2-29.6,11.3-1.4,2-1.5,3.1c-.4.4-1.7-2-1.8-2.2-.2-.3-.4-.8-.5-1.2.5-.4.3.3.4.4.4.3.6-.6.9-1,1.7-2.2,5.4-4.3,7.9-5.5,7.4-3.5,15.5-4.9,23.3-7.2s2.2-.6,2.7-.9.7-.9,1-1.2c1.7-1.6,3.6-3,5.4-4.5s4.7-3.6,7.1-5.4,1.4-.7,1.6-1-.1-.2-.1-.3Z"/>
  <path class="st5" d="M51.7,59.1c-2.4,1.9-4.7,3.5-7.1,5.4s-3.6,2.9-5.4,4.5-.8,1-1,1.2c-.5.3-2.1.7-2.7.9-7.8,2.2-16,3.7-23.3,7.2-.2-.4.4-.8.4-.8,0-.2-.1-.5-.1-.7,0-.4.4-.8.3-1.6s-.4-.4-.5-.6c-.5-.6-1.4-1.2-.3-1.5l.7-1.1c-.8-.3-.8.8-1.4.3,7.3-3.5,15.8-5.2,23.6-7.3.2.2.7,0,.9,0,1-.2,1.7-.5,2.6-.8s2-.5,3-.8c3.3-1.1,7.3-2.5,10.2-4.4h.3Z"/>
  <path class="st4" d="M39.8,39.9c.4,0,.9-.1,1.2-.1.6,0-.3,1-.4,1.2-.3.4-.2.4-.5.8-1.1,1.5-2.8,2.5-3.3,4.3-10.3,3-24,5.5-32.6,12.1s0,.2-.1.3c0,0-.2-.2-.1-.3s.3,0,.3,0c.2-.2.4-1.2,1.2-1.3,0-.6,1.6-2.7,1.5-2.9-.2-.8-1.2-.3-1.5-.4s-.2-.4-.3-.4c-.3-.2-1.2.4-1.4.6-.4.4-.1.8-.9.7.1-.3.3-.6.5-.9,3.1-4.5,15.9-8.3,21.3-9.8s10.7-3.1,15.2-3.7Z"/>
  <path class="st2" d="M55.2,50.3c-2,5.4-8.5,7.5-13.6,9.1-9.4,2.9-19.4,4.6-28.4,8.4-4,1.7-8.1,4-10.5,7.8-.3,0-.3-.6-.3-.8-.3-2.2-.5-4.6,0-6.7,0,.9-.1,3.4.1,4.3s0,.5.2.3,1.5-1.9,2-2.3c.6-.6,4.3-3,4.3-3.3l4.6-2.2c1.9-.4,4-1.5,5.9-2.1,3.6-1.2,7.5-1.9,11-3.1,2.5-.5,4.8-1.5,7.2-2.2,5.7-1.7,9.3-2.4,14.6-5.5s2.1-1,2.8-1.8Z"/>
  <path class="st9" d="M53.3,70.2l1.7-1.9c.3-.2.6-1.2.7-1.3.3-.3.3.4.3.4v.4c.7,4.6.7,7.5-2.9,10.5-5.6,4.8-14.5,6.1-21.4,7.9s-13.8,3.3-19.1,6.6-.5.9-1.2.6-1.7-1.2-1.9-1.3-.2-.3-.3-.4c.3,0,.7,0,.9,0s.3-.3.4-.3c2.4-1.1,4.5-2.4,7.1-3.3,4-1.5,8.2-2.6,12.3-3.8s6.5-1.2,9.4-3.2c1.2.3,1,0,1.6-.8s.8-.3.6-.9c.5-.4,1.1-.9,1.6-1.3.2.1.4,0,.4.3s-.1.9-.2,1.1-.6.6-.3.9c.8.2,1.1-.9,1.2-.9.5-.1,1.1.3,1.4.3s1.2-.7,1.6-.8c3.1-.7,2.9-1.4,5.3-2.5s1.5-.3,2.1-.6c.5-1.3,1.3-2.4,1.2-3.8-.5,0-1,.7-1.2,0s-.3-.7-.4-1c-.2-.7.3-1-1-.8Z"/>
  <path class="st3" d="M49.3,41.7c0,.4.4.7.4,1.1s-.3.8-.4,1c-1.1,1.2-5.2,2.5-6.8,3.1-9.5,3.1-19.4,4.7-28.7,8.4s-8.8,4.1-11.1,7.8c-.3.2-.3-1.3-.3-1.5,0-.8.2-1.5.7-2.1s1-.5,1-1.1c0,0,.1-.3.1-.3,8.6-6.5,22.3-9.1,32.6-12.1s8.5-2.2,12.5-4.4Z"/>
  <path class="st12" d="M33.5,53c.2.9-.3.9-.7,1.4-.6.7-.7.6-1.3,1-.9.7-.3.8-.5,1.5s-1.2.9-1.2,1.1.3.8.5.9,1.5.2,1.6.2c-.2.2-.7.2-1.1.3s-.2.2-.2.3c-3.5,1.2-7.5,1.9-11,3.1s-4,1.7-5.9,2.1-.5,0-.7.1c.1-1.2,1.8-1,2.5-1.6s.2-.4.4-.5c.5-.4,1.4-.4,1.7-1.4s0-2.3-.2-2.7-1.5-.3-1.3-1c5.9-2.1,11.6-3.3,17.5-4.9Z"/>
  <path class="st12" d="M31.9,59.1c.4-.5.1-.1.6-.3s.6-.6,1.3-.4c0,.6-1.4.7-1.9.7Z"/>
  <path class="st15" d="M45.6,74.2s.1.2.3.1c.5,0,1.5-.8,2.1-.7.3.3-.2.3-.4.5s-.1.5-.2.5c0,0-.4,0-.5,0s-.1.3-.2.4c-1.3,1-2.3,2.1-3.6,3.1s-1.1.9-1.6,1.3-1.5,1.3-2.2,1.7c-2.9,2-6.1,2.3-9.4,3.2,0-.5-.6-.3-.9-.6s-1-1.1-1.1-1.2c-.6-.9,0-.8.1-1.2s-.6-.8.6-.9c.1-.4-.6-.8-.4-1.2s1.2,0,1.2-.7c3.3-.9,6.7-1.7,10-2.5s4.4-1.5,6.2-1.8Z"/>
  <path class="st13" d="M29.4,78.6c0,.6-1,.2-1.2.7s.5.8.4,1.2c-1.2.1-.5.4-.6.9s-.7.3-.1,1.2,1,1.2,1.1,1.2c.3.3,1,0,.9.6-4.1,1.1-8.3,2.3-12.3,3.8,0-.4-.5-.7-.6-1s0-.7-.1-1.1-.9-1.1-1-1.2c-.3-.1-1.5-.2-1.5-.1s.2.7-.3.6c.2-.9-.3-.4-1-.7s-.5-.3-.5-.6c5.4-2.9,10.7-4,16.7-5.5Z"/>
  <path class="st10" d="M52.2,44.9c.8-.9,1.1-2.3,1.2-3.5.8.5.8,1.5,1.3,2.3s.3.2.5.5c.9,1.6.7,4.4.1,6-.7.8-1.9,1.2-2.8,1.8-5.3,3.1-8.8,3.8-14.6,5.5,0-.4.2-.3.4-.4,2.9-1.9,5.4-4.2,8-6.4s1.4-1.1,2-1.6c1.4-1.1,2.9-2,3.9-3.6s.4-.5,0-.6Z"/>
  <path class="st8" d="M52.2,44.9c.3.1,0,.4,0,.6-.9,1.6-2.5,2.5-3.9,3.6-.3.2-.9,0-1.2.3s0,.3-.1.4c-.1.1-.4,0-.6.3s-.4.6-.1.6c-2.6,2.2-5.1,4.6-8,6.4s-.5,0-.4.4c-2.4.7-4.8,1.6-7.2,2.2,0,0,0-.2.2-.3.3-.1.9,0,1.1-.3.5,0,1.8-.2,1.9-.7-.7-.2-.9.2-1.3.4s-.3-.2-.6.3c-.2,0-1.5-.1-1.6-.2-.2-.1-.6-.7-.5-.9s1-.5,1.2-1.1-.4-.8.5-1.5.7-.4,1.3-1,.9-.5.7-1.4c4.7-1.3,15.7-4.4,18.7-8.1Z"/>
  <path class="st1" d="M11.2,72.3c.6.5.7-.6,1.4-.3l-.7,1.1c-1.1.2-.2.8.3,1.5s.4.1.5.6c.2.8-.3,1.1-.3,1.6s.2.5.1.7-.6.4-.4.8c-2.5,1.2-6.2,3.4-7.9,5.5s-.5,1.3-.9,1,0-.8-.4-.4c-2.3-6.2,3.5-9.8,8.3-12.1Z"/>
  <path class="st6" d="M52.4,21.8c.3-4.2-.3-7.8-2.4-11.5s-2.5-3.2-3.8-4.7c0-.1,1.5-1.8,1.7-2s.2-.2.3-.2c1.4,1.4,2.8,2.8,3.9,4.5,2.9,4.7,3.9,9.7,3,15.3-.6,0-.4,0-.4-.4-.4-1.9-.8,0-.9,0s-.8,0-.9,0c0,0,.2-1.2-.6-1.2Z"/>
  <path class="st11" d="M53.3,70.2c1.4-.2.8.1,1,.8s.3.4.4,1,.7,0,1.2,0c.2,1.5-.6,2.6-1.2,3.8-.6.3-1.5.3-2.1.6-2.4,1.1-2.2,1.9-5.3,2.5s-1.2.8-1.6.8-.9-.4-1.4-.3-.4,1-1.2.9c-.3-.3.2-.6.3-.9s.2-.9.2-1.1-.2-.2-.4-.3c1.2-1,2.3-2.1,3.6-3.1s.2-.4.2-.4c.1,0,.4,0,.5,0s0-.3.2-.5.7-.2.4-.5c-.6,0-1.5.6-2.1.7s-.3-.1-.3-.1c1.8-.8,3.8-1.5,5.5-2.6s1.8-1.4,2.2-1.5Z"/>
  <path class="st6" d="M27.8,23.5c.5,0,.5-1,1.2-.7l1.2,2c0,2.8.7,5.7,1,8.5s.2,3.7.4,5.5l-5.1,1.5c.2-5.4,1-10.8,1.2-16.2s.1-.5.1-.7Z"/>
  <path class="st8" d="M15.9,58c-.2.7,1.1.7,1.3,1,.3.4.4,2.2.2,2.7-.3,1-1.1,1-1.7,1.4s-.2.4-.4.5c-.7.5-2.4.3-2.5,1.6.2,0,.5,0,.7-.1l-4.6,2.2s-.2,0-.1-.2.4-.3.4-.6-.1-1.1-.2-1.3c-.3-1.1-.9-.7-1.5-1.1s-.5-.6-.7-.6-1.1.5-1.6.1c3.2-2.8,6.7-4.1,10.7-5.5Z"/>
  <path class="st6" d="M49.4,24c-1,.3-1.4-1.4-1.5-1.5s-.8.5-1.2.1c.7-3.9,0-7.7-2.3-10.9s-2-2.3-2-2.5,0-.3.1-.4l1.8-1.8c2.6,2.5,4.9,5.7,5.4,9.4.4,2.4.4,5.2-.3,7.6Z"/>
  <path class="st0" d="M46.7,37.5c.3,0,.2.5.4.6,1.1,1,1.1.8,2,2.2s.8.5.6,1.2c-.2,0-.3.2-.4.3-3.9,2.2-8.2,3.1-12.5,4.4.5-1.8,2.2-2.8,3.3-4.3s.3-.3.5-.8,1-1.2.4-1.2-.9,0-1.2.1c.8-.3,1.7-.5,2.6-.8,1.4-.5,2.9-1.3,4.2-1.7Z"/>
  <path class="st15" d="M12.7,84.1c0,.3.2.5.5.6.6.3,1.1-.2,1,.7.5.1.2-.5.3-.6s1.3,0,1.5.1,1,1.1,1,1.2c.2.3,0,.7.1,1.1s.6.5.6,1c-2.6,1-4.7,2.3-7.1,3.3-.1-.6-.7-.7-1.1-1s-.9-.9-1.8-.8c-.2-2.7,2.5-4.4,4.5-5.6s.5,0,.5-.1Z"/>
  <path class="st9" d="M52.4,21.8c.8,0,.5,1.1.6,1.2s.8,0,.9,0,.5-1.9.9,0-.2.4.4.4c-.7,4.2-2.2,7.5-4.8,10.8l-1.9,2c-.2-.4-2.1-2-2.1-2.2s.5-.4.7-.6c2.8-3,4.7-6.7,5.2-10.8v-.3c.2,0,.1-.2.1-.3ZM52.9,23.1c-.2-.2-.4.1-.3.3s.4-.1.3-.3Z"/>
  <path class="st10" d="M13.8,20c0-2.4.5-4.9,1.8-7s1.8-2.5,2.6-2.2,1.8,1.7,1.8,1.9-.5.5-.7.7c-2.6,3.1-2.6,5.8-1.7,9.5s.4,1.2.3,1.3c-.8,0-1.7.2-2.5,0s-.4-.6-.5-.7c-.2-.4-.5-1.3-.6-1.8s0-.2-.1-.4c.2-.3.3-1.5-.1-1.3Z"/>
  <path class="st10" d="M9,67.1c0,.3-3.7,2.7-4.3,3.3s-1.8,2.2-2,2.3c-.3.1-.2-.2-.2-.3-.2-.9-.2-3.4-.1-4.3.2-2,1.5-3.3,2.9-4.5.5.3,1.4-.2,1.6-.1s.4.5.7.6c.7.3,1.2,0,1.5,1.1s.2,1.1.2,1.3c0,.3-.3.4-.4.6s.1.2.1.2Z"/>
  <path class="st9" d="M29,18.6c1-.5.9-.8,1.4-1.7s.9,1.3,1.2,1.8,1.2,1.2,1.5.9c.2-.6-.2-1.4.3-1.9.3,1.6-.4,3.5-1.7,4.4s-1.3.5-1.4.8c0,.6,0,1.3,0,1.9l-1.2-2c-.6-.3-.7.7-1.2.7,0-.1,0-.5,0-.6l-.3-.3c-.2,0-.6,0-.9-.2-1.2-.5-1.8-2.1-2-3.3.6,0,1.2,0,1.7,0,1,0,1.1-.1,2-.4s.4,0,.6-.1Z"/>
  <path class="st9" d="M49.4,24c-.8,2.9-2.6,6.2-5,8.1-.5-.5-.8-1-1.3-1.4s-.8-.5-.8-.8c2.1-1.9,3.8-4.4,4.3-7.2.5.4,1.1-.2,1.2-.1s.5,1.8,1.5,1.5Z"/>
  <path class="st6" d="M43.9,17.7c-1,0-.1,1.6-.7,2s-1-.6-1.1-.9c-.3-.5-.3.3-.4.4s-.5.5-.5.6c0,.2.6.4.7.5.2.3-.5,1.2-1,1,.4-2.2.2-4.2-.9-6.1s-1.6-2.2-1.7-2.4,0-.3.1-.4,1.5-1.7,1.6-1.7c.3-.2,1,.7,1.2.9,1.7,1.9,2.5,3.7,2.8,6.2Z"/>
  <path class="st11" d="M43.9,17.7c.2,1.7.3,3.1-.1,4.8-.9-.4-1,0-.3.6,0,.3-.2.8-.3,1.2-.3,0-.8-.9-1-.2s.4.6.7.8c-.4.8-.8,1.6-1.3,2.4s-1,1.2-1.1,1.3c-.5.2-1.8-1.9-2.4-2.1,1.3-1.5,2.4-3,2.7-5,.4.1,1.1-.8,1-1s-.7-.4-.7-.5.4-.4.5-.6.1-.9.4-.4.6,1.2,1.1.9-.3-2,.7-2Z"/>
  <path class="st15" d="M5.5,21.8c.3,2.4,1.2,5.3,2.3,7.4,0,.2,0,.7-.2.7s-1.6-.6-1.9-.7-.8-.2-1,0c-1-2-1.5-3.3-1.9-5.5.8.1.5-.7-.1-.6,0-.2,0-.5,0-.7.7-.1.7-1.4,1.4-1.4s.9.9,1.5.8Z"/>
  <path class="st1" d="M5.2,9.2c1-2.2,2.8-4.2,4.6-5.8h.2c0,0,1.9,1.9,1.9,1.9-.9,1.3-2.2,2.3-3.2,3.6-.7,0-.5.5-.7,1s-.1.2-.1.3c-.3.3-.7,1.1-1.1,1.2s-.9-.7-1.4-.7-.6.9-.8.6.6-1.8.7-2Z"/>
  <path class="st3" d="M5.2,9.2c-.1.2-.8,1.9-.7,2,.2.3.4-.6.8-.6s1.3.7,1.4.7c.4,0,.8-.9,1.1-1.2-.6,1.4-1.5,3-1.9,4.4s-.2,2.1-.4,2.8c-1-.2-1.9-.3-2.9-.3.2-1.5.5-3,1-4.5s.8-2.5,1.6-3.5Z"/>
  <path class="st15" d="M11.6,41l5.4.4c0,.2,0,1.8,0,1.9-.2.3-5.2,1.7-5.9,1.9.3-.8.3-.9,0-1.7s-1.1-1-1.6-1.8c.4-.3.4-.2.7-.3.4.4,0,1,.6.8s.4-.6.4-1.1c.1,0,.2-.1.4-.1Z"/>
  <path class="st3" d="M9.7,12.3c0,0,0-.3,0-.4,1-1.9,2.4-3.5,3.9-5.1.7.6,1.3,1.5,2.1,1.9v.2c-.3.4-.7.7-1,1-.7.8-1.7,2.1-2.2,3-.4.2-2.1-.6-2.2-.6s-.7,1.7-.7,0Z"/>
  <path class="st0" d="M2.9,54.3c.7.2.5-.3.9-.7s1.1-.8,1.4-.6,0,.3.3.4,1.3-.4,1.5.4-1.6,2.3-1.5,2.9c-.8.1-1,1.1-1.2,1.3s-.2,0-.3,0c-.1,0,.1.3.1.3,0,.6-.7.7-1,1.1-.5.7-.7,1.3-.7,2.1-.2-.2-.1-.6-.1-.8,0-2.3-.3-4.4.7-6.5Z"/>
  <path class="st6" d="M13.3,27.3c-.4.3.5.8,0,1s-1.1-.4-1.7-.4-.7.3-1.1.4c-1.2-2.1-1.6-3.2-2-5.5.7-.2,2.2.2,2.6-.5s.2-.7.2-.7c.3.8.3,1.8.6,2.7s1.2,2.4,1.6,3Z"/>
  <path class="st13" d="M9.7,12.3c0,1.7.5,0,.7,0s1.8.8,2.2.6c-.9,1.6-1.5,4.2-1.6,6-.5,0-.5-.9-.7-1s-.8-.2-.9-.1,0,.9-.5.8-.4-.1-.4-.1c-.2-.2.3-.9-.3-.8.3-2.4.4-3,1.4-5.2Z"/>
  <path class="st6" d="M28.7,13.8c.5,0,.9,0,1.4,0s1.6.9,1.9,1.1c.7.7,1.1,1.7,1.3,2.7-.5.5,0,1.2-.3,1.9-.3.3-1.3-.7-1.5-.9-.3-.5-.5-2.8-1.2-1.8s-.4,1.2-1.4,1.7c-.2-1.1-.2-.8-.9-.7s-.3,0-.4,0c.3-.4,1-.5,1.3-1.1.7-1.3-.4-1.9-1.6-1.5,0,0,.1-.2.2-.3.4-.3,1.2-.2,1.1-1.2Z"/>
  <path class="st11" d="M8.7,30.5l3,3.4c0,.3-.3.3-.5.5-.5.5-1.1,1-1.5,1.6-.4,0-1.5-1.3-1.8-1.7-.7-.9-1.3-1.8-1.9-2.7,1.2-.1,2.8.6,2.6-1.2Z"/>
  <path class="st6" d="M20.6,38.9c0,.4.2.3.4.4,1.1.5,1.7.3,1.7,1.8h.2s.4.3-.1.6l-4.7,1.2v-3.8c.8-.2,1.6-.2,2.5-.1Z"/>
  <path class="st15" d="M8.3,17.6c.6,0,.2.6.3.8s.3.1.4.1c.4,0,.4-.7.5-.8s.8,0,.9.1.2.9.7,1c0,.9.3,1.8.1,2.8s-.2.7-.2.7c-.4.7-1.9.3-2.6.5-.5-2.4-.4-2.9-.1-5.2Z"/>
  <path class="st2" d="M14.1,21.8c.1.5.4,1.4.6,1.8s.4.7.5.7c.8.2,1.7,0,2.5,0,0,0-.2-1.1-.3-1.3.7,1.2,1.4,2.5,2.6,3.3,0,.3-.2.2-.4.4-.5.5-1.3,1.5-1.8,1.8s-.2.2-.4.1c-1.3-2.2-3.2-4.1-3.3-6.8Z"/>
  <path class="st9" d="M13.3,27.3c0,.1.3.2.3.5l2,2c0,.5-1.7,1.7-2,2.2-.3,0-.9-.6-1.1-.9-.9-.9-1.5-1.8-2.1-2.9.4,0,.7-.4,1.1-.4.6,0,1.1.6,1.7.4s-.3-.7,0-1Z"/>
  <path class="st13" d="M5.5,17.4c0,0-.1.3-.1.3-.1,0-.5,0-.4.4h.6c-.1,1.4-.2,2.2,0,3.6-.6,0-.8-.9-1.5-.8s-.7,1.3-1.4,1.4c-.2-1.8-.2-3.4,0-5.2,1,0,1.9,0,2.9.3Z"/>
  <path class="st6" d="M29.8,12.5h-1.7c.1-1.9-.1-3.9,0-5.7s0-1.5.8-1.5.7.3.8.8.1,1.7.2,2.4c0,1.3,0,2.7,0,4Z"/>
  <path class="st15" d="M28.8,1.6c1.7-.2,3,2.4.9,3.3s-3.7-2.9-.9-3.3Z"/>
  <path class="st13" d="M9.4,41.7c.6.8,1.2.8,1.6,1.8s.2.9,0,1.7c-1.3.4-2.4,1.3-2.6-.7s0-2.1,1-2.8Z"/>
  <path class="st6" d="M7.8,29.2c.3.5.8.4.9,1.3.2,1.8-1.4,1-2.6,1.2-.6-1-.9-1.4-1.4-2.5.2-.2.8,0,1,0,.4,0,1.8.7,1.9.7.2,0,.3-.5.2-.7Z"/>
  <path class="st3" d="M49.4,38.3c.2.3.4.8.6,1.1s.3.2.4.3c.7,1.1,0,1.2-.7,1.6.1-.6-.4-.8-.6-1.2-.9-1.4-.9-1.2-2-2.2s0-.5-.4-.6c0,0,0-.1.3-.1.9,0,1.8.5,2.4,1Z"/>
  <path class="st15" d="M25.8,15.1c-.5.4-.3,1.5.4,1.3s.2-.5.5-.4c-.5.6-.7,1.2-.2,1.8s.9,0,1.2,0c0,0,0,.3,0,.3-.5.1-1-.2-1.5-.2,0,.5.2.8.3,1.2-.6,0-1.2,0-1.7,0-.3-1.9-.2-2.7,1.2-4.1Z"/>
  <path class="st3" d="M28.7,13.8c.2.9-.7.9-1.1,1.2s-.2.2-.2.3c-.2.2-.5.5-.7.7-.4-.1-.3.4-.5.4-.6.2-.9-.9-.4-1.3,0,0,0-.1.1-.1.4-.2,1-.2,1-.7.7-.3.9-.4,1.7-.4Z"/>
  <path class="st6" d="M7.7,89.8c.8,0,1.2.4,1.8.8s1,.4,1.1,1c0,0,0,.2-.4.3s-.6,0-.9,0c-.6-.5-1.5-1.2-1.6-2Z"/>
  <path class="st13" d="M49.3,43.7c.1-.1.4-.7.4-1,0-.4-.5-.6-.4-1.1.1,0,.3-.2.4-.3.8-.4,1.4-.6.7-1.6s-.3-.2-.4-.3c-.2-.3-.4-.7-.6-1.1,2.3,1.6,1.6,3.6-.1,5.4Z"/>
  <path class="st11" d="M17,41.4l-5.4-.4c1.2-.2,3.3-.3,4.6-.1s.7.1.8.6Z"/>
  <path class="st9" d="M20.6,38.9c.8,0,1.5.2,2.3.1,0,.6,0,1.3,0,1.9h-.2c0-1.3-.6-1.2-1.7-1.7s-.5,0-.4-.4Z"/>
  <path class="st13" d="M11.2,41.1c0,.6.4,1-.4,1.1s-.3-.5-.6-.8c.5-.2.5-.2,1-.3Z"/>
  <path class="st1" d="M53.2,57.8s.2.1.1.3c-.2.4-1.3.8-1.6,1h-.3c.6-.5,1.1-1.2,1.7-1.3Z"/>
  <path class="st6" d="M42.9,24.8c-.3-.2-.9-.1-.7-.8s.7.2,1,.2c0,.2-.2.4-.3.6Z"/>
  <path class="st1" d="M38.2,64.2c-.9.3-1.5.6-2.6.8s-.7.2-.9,0c1.2-.3,2.3-.6,3.5-.9Z"/>
  <path class="st6" d="M43.8,22.5c0,.3-.3.5-.3.6-.7-.5-.6-1,.3-.6Z"/>
  <path class="st3" d="M8.7,8.9c-.2.3-.3.8-.7,1,.2-.5,0-1.1.7-1Z"/>
  <path class="st13" d="M2.6,23.1c.7,0,.9.7.1.6,0-.2-.1-.4-.1-.6Z"/>
  <path class="st2" d="M13.8,20c.5-.2.4,1,.1,1.3,0-.3-.1-1-.1-1.3Z"/>
  <path class="st15" d="M26.9,14.2c0,.5-.6.5-1,.7.4-.4.4-.4,1-.7Z"/>
  <path class="st3" d="M5.4,17.7c.2,0,.2.3.1.4h-.6c-.1-.4.3-.3.4-.4Z"/>
  <path class="st11" d="M56.1,67.8v-.4c-.1.1,0,.2,0,.4Z"/>
  <path class="st6" d="M52.3,22.4c0-.3.1-.3.1-.3v.3Z"/>
  <path class="st6" d="M27.8,22.9s-.3-.3-.3-.3l.3.3Z"/>
  <path class="st11" d="M41.6,79.4c.2.7-.4.7-.6.9-.6.7-.4,1.1-1.6.8.7-.5,1.5-1.2,2.2-1.7Z"/>
  <path class="st12" d="M46.2,50.7c-.3,0,0-.6.1-.6.2-.2.5-.2.6-.3s0-.3.1-.4c.3-.2.9,0,1.2-.3-.7.5-1.4,1-2,1.6Z"/>
  <path class="st6" d="M52.9,23.1c.2.2-.1.4-.3.3s.1-.4.3-.3Z"/>
  <path class="st13" d="M28.1,17.9v.2c.3.2.3.3.3.7-.9.3-1,.4-2,.4-.1-.4-.4-.7-.3-1.2.5,0,1,.3,1.5.2s0-.3,0-.3c.1,0,.3,0,.4,0Z"/>
  <path class="st15" d="M28.1,17.9c.6,0,.7-.3.9.7-.1,0-.4,0-.6.1,0-.4,0-.5-.3-.7v-.2Z"/>
  <path class="st14" d="M27.7,17.9c-.3,0-1,0-1.2,0-.5-.6-.3-1.2.2-1.8s.5-.5.7-.7c1.2-.4,2.2.2,1.6,1.5s-1,.8-1.3,1.1Z"/>
</svg>