<svg width="121" height="120" viewBox="0 0 121 120" fill="none" xmlns="http://www.w3.org/2000/svg">
<path d="M60.4999 63.6914C61.9062 63.75 61.9062 63.75 62.3749 64.2187C62.4164 65.3664 62.429 66.5007 62.4207 67.6483C62.4201 67.991 62.4194 68.3337 62.4187 68.6867C62.4161 69.7853 62.4102 70.8839 62.4042 71.9824C62.4019 72.7255 62.3997 73.4686 62.3978 74.2117C62.3927 76.037 62.3846 77.8622 62.3749 79.6875C63.191 79.6844 63.191 79.6844 64.0236 79.6812C69.1418 79.6622 74.2599 79.6481 79.3781 79.6389C82.0097 79.634 84.6412 79.6274 87.2727 79.6168C89.8105 79.6066 92.3483 79.601 94.8862 79.5985C95.8562 79.5968 96.8262 79.5934 97.7962 79.5884C99.151 79.5816 100.506 79.5806 101.86 79.5811C102.265 79.5777 102.669 79.5743 103.086 79.5708C105.862 79.5806 105.862 79.5806 106.906 80.625C107.021 81.7649 107.081 82.8556 107.1 83.9978C107.114 84.4952 107.114 84.4952 107.128 85.0027C107.156 86.0629 107.178 87.1232 107.199 88.1836C107.217 88.902 107.235 89.6204 107.254 90.3387C107.299 92.1007 107.339 93.8628 107.375 95.625C107.7 95.7813 108.025 95.9375 108.36 96.0985C108.785 96.306 109.21 96.5135 109.647 96.7273C110.069 96.9319 110.491 97.1365 110.925 97.3473C113.095 98.5333 114.197 100.379 115.089 102.651C115.93 105.766 115.521 108.678 114.097 111.542C112.708 113.66 110.672 115.325 108.312 116.25C105.068 116.594 101.658 116.768 98.7873 115.03C96.5208 113.143 94.8542 110.713 94.2499 107.812C93.9763 104.42 94.6865 101.98 96.3886 99.0527C97.5312 97.9687 97.5312 97.9687 102.219 95.625C102.373 91.7578 102.528 87.8906 102.687 83.9062C89.3843 83.9062 76.0812 83.9062 62.3749 83.9062C62.3749 87.7734 62.3749 91.6406 62.3749 95.625C63.7671 96.089 65.1593 96.5531 66.5937 97.0312C67.6905 97.9065 67.6905 97.9065 68.4394 98.8476C68.695 99.1558 68.9506 99.464 69.2139 99.7815C71.1665 102.735 71.2166 105.773 70.8124 109.219C69.7079 112.191 67.4696 114.175 64.8304 115.831C62.2148 116.876 58.6665 116.773 56.0377 115.823C53.4603 114.291 51.3176 112.019 50.1874 109.219C49.7818 105.653 49.8021 102.293 52.0624 99.375C54.1532 97.0617 55.4721 96.5258 58.6249 95.625C58.6249 91.7578 58.6249 87.8906 58.6249 83.9062C45.3218 83.9062 32.0187 83.9062 18.3125 83.9062C18.4672 87.7734 18.6218 91.6406 18.7812 95.625C20.0187 96.2437 21.2562 96.8625 22.5312 97.5C24.5858 99.2806 26.3547 101.296 26.75 104.062C26.9881 107.635 26.3214 110.11 24.3183 113.086C21.7268 115.62 19.6143 116.369 15.9687 116.514C12.5372 116.407 10.6586 115.557 8.22519 113.223C5.95275 110.741 5.40767 108.11 5.47678 104.843C5.87383 102.079 7.18133 99.7464 9.11325 97.7636C10.564 96.9001 12.0701 96.2786 13.625 95.625C13.6343 95.1755 13.6435 94.726 13.6531 94.2629C13.6887 92.5977 13.7303 90.9328 13.7737 89.2678C13.7917 88.5467 13.808 87.8256 13.8227 87.1044C13.8441 86.0687 13.8713 85.0333 13.8996 83.9978C13.905 83.6745 13.9105 83.3513 13.916 83.0182C13.987 80.7317 13.987 80.7317 15.0312 79.6875C16.4153 79.5992 17.7551 79.5695 19.1394 79.5811C19.5647 79.5809 19.9901 79.5808 20.4283 79.5806C21.8385 79.5813 23.2487 79.5886 24.6589 79.5959C25.6349 79.5977 26.611 79.599 27.587 79.6C30.1594 79.6035 32.7317 79.6128 35.304 79.6231C37.9275 79.6327 40.551 79.637 43.1745 79.6417C48.3247 79.6518 53.4748 79.6678 58.6249 79.6875C58.6225 79.2214 58.62 78.7552 58.6175 78.2749C58.609 76.5514 58.6036 74.8278 58.5992 73.1043C58.5968 72.3572 58.5936 71.6101 58.5896 70.8631C58.5839 69.7915 58.5812 68.7199 58.5792 67.6483C58.5767 67.3124 58.5743 66.9764 58.5718 66.6303C58.5717 65.8263 58.5959 65.0223 58.6249 64.2187C59.0937 63.75 59.0937 63.75 60.4999 63.6914Z" fill="#02759D"/>
<path d="M63.1748 4.27804C63.6003 4.52314 64.0258 4.76824 64.4642 5.02076C65.1834 5.42937 65.1834 5.42937 65.9171 5.84623C66.4207 6.14061 66.9244 6.43499 67.4434 6.73829C67.9612 7.03479 68.4791 7.33129 69.0127 7.63677C70.5542 8.52184 72.0904 9.41547 73.625 10.3125C74.0572 10.5644 74.4894 10.8163 74.9347 11.0758C76.6842 12.0969 78.4304 13.1233 80.171 14.1596C80.9456 14.6171 81.7266 15.0664 82.5312 15.4688C81.8391 17.2886 80.9398 17.8679 79.2518 18.7811C78.7713 19.0452 78.2909 19.3093 77.7958 19.5813C77.2799 19.8581 76.764 20.1348 76.2324 20.4199C75.165 21.0007 74.0982 21.5824 73.0317 22.1649C72.4997 22.455 71.9677 22.7452 71.4195 23.0441C69.9973 23.838 68.604 24.6632 67.2163 25.5158C66.8166 25.7592 66.4168 26.0027 66.005 26.2536C65.2616 26.7098 64.5226 27.1732 63.7887 27.6445C63.4557 27.8466 63.1227 28.0486 62.7797 28.2568C62.4959 28.436 62.212 28.6152 61.9196 28.7998C60.0939 29.3043 58.5378 28.3225 56.9307 27.4906C56.5248 27.2504 56.119 27.0102 55.7008 26.7627C55.2425 26.4934 54.7842 26.2241 54.3121 25.9466C53.8307 25.66 53.3494 25.3734 52.8535 25.0781C51.8489 24.4842 50.8443 23.8904 49.8396 23.2965C49.0975 22.8564 49.0975 22.8564 48.3404 22.4073C47.0369 21.6395 45.7272 20.8844 44.4124 20.1361C44.0433 19.9246 43.6743 19.7131 43.2942 19.4953C42.6116 19.1046 41.9274 18.7169 41.2413 18.3325C38.9902 17.0331 38.9902 17.0331 38.4688 15.4688C38.7771 15.297 39.0855 15.1252 39.4032 14.9482C40.8597 14.1361 42.3156 13.3229 43.7715 12.5098C44.301 12.2148 44.8305 11.9199 45.3761 11.616C47.8855 10.2138 50.3846 8.80126 52.8499 7.3224C53.2491 7.08421 53.6483 6.84603 54.0596 6.60062C54.8007 6.15591 55.5389 5.70623 56.2736 5.2509C56.6066 5.05169 56.9397 4.85248 57.2828 4.64723C57.5666 4.47298 57.8505 4.29873 58.1429 4.1192C59.9402 3.42137 61.4121 3.54433 63.1748 4.27804Z" fill="#02759D"/>
<path d="M84.4062 19.2188C84.5133 22.8386 84.5871 26.4581 84.638 30.0792C84.6592 31.3106 84.688 32.5419 84.7245 33.7729C84.7757 35.5441 84.7996 37.3139 84.8182 39.0857C84.84 39.6351 84.8618 40.1845 84.8842 40.7506C84.8865 44.4863 84.8865 44.4863 83.5283 45.9391C82.4454 46.6731 81.3697 47.2553 80.1875 47.8125C79.7372 48.0828 79.2869 48.3532 78.823 48.6317C78.4352 48.8484 78.0474 49.0651 77.6478 49.2883C77.208 49.5354 76.7682 49.7824 76.315 50.0369C75.8624 50.289 75.4097 50.5411 74.9434 50.8008C73.993 51.3335 73.0426 51.8663 72.0924 52.3993C71.6346 52.6556 71.1768 52.9118 70.7051 53.1759C68.4414 54.4488 66.1937 55.7493 63.946 57.0502C62.8437 57.6562 62.8437 57.6562 62.375 57.6562C62.375 48.9937 62.375 40.3313 62.375 31.4062C65.1594 29.8594 67.9437 28.3125 70.8125 26.7188C72.8387 25.5537 74.861 24.3854 76.8769 23.2031C77.3637 22.9191 77.8504 22.6351 78.3519 22.3425C83.6935 19.2188 83.6935 19.2188 84.4062 19.2188Z" fill="#02759D"/>
<path d="M36.5937 19.2188C38.4324 19.9343 40.095 20.7712 41.8068 21.7566C42.0792 21.9128 42.3516 22.0691 42.6323 22.2301C43.5012 22.7288 44.3688 23.2296 45.2363 23.7305C45.8023 24.0559 46.3684 24.3812 46.9346 24.7064C48.0069 25.3224 49.0786 25.9393 50.1498 26.5569C52.9717 28.1789 55.799 29.7914 58.625 31.4062C58.625 40.0688 58.625 48.7312 58.625 57.6562C52.2956 54.4916 52.2956 54.4916 50.1545 53.2324C49.6862 52.9581 49.2179 52.6838 48.7355 52.4011C48.2672 52.1244 47.7989 51.8476 47.3164 51.5625C46.6085 51.1474 46.6085 51.1474 45.8863 50.7239C44.5056 49.9129 43.1272 49.0981 41.75 48.2812C41.0695 47.8779 41.0695 47.8779 40.3753 47.4664C39.7379 47.0867 39.7379 47.0867 39.0876 46.6992C38.5186 46.3602 38.5186 46.3602 37.938 46.0144C37.0625 45.4688 37.0625 45.4688 36.5937 45C36.5499 44.1944 36.5387 43.387 36.5405 42.5801C36.5406 42.064 36.5406 41.5479 36.5406 41.0161C36.5431 40.4546 36.5455 39.8931 36.548 39.3146C36.5486 38.743 36.5493 38.1714 36.55 37.5825C36.5526 35.7484 36.5585 33.9142 36.5645 32.0801C36.5668 30.8401 36.5689 29.6002 36.5709 28.3603C36.576 25.3131 36.5839 22.2659 36.5937 19.2188Z" fill="#02759D"/>
</svg>
