<svg width="121" height="120" viewBox="0 0 121 120" fill="none" xmlns="http://www.w3.org/2000/svg">
<g clip-path="url(#clip0_48_64)">
<path d="M85.5396 27.1051C93.753 34.0262 99.235 43.0552 100.344 53.9062C101.16 65.1904 98.2129 75.4495 91.1738 84.4043C84.075 92.6093 74.1851 97.5534 63.3356 98.3896C52.9283 98.9079 42.4952 95.8545 34.6309 88.8574C33.8762 88.1474 33.124 87.4347 32.375 86.7187C32.0862 86.4649 31.7973 86.2111 31.4998 85.9497C24.6456 79.6957 21.0406 69.7423 20.5079 60.6866C20.0966 49.3462 23.8691 39.4789 31.2489 30.9338C45.57 15.7902 69.2325 14.5141 85.5396 27.1051ZM49.5448 44.3848C47.2539 47.637 46.948 50.9141 47.375 54.8437C47.7545 56.003 48.2523 57.0211 48.7812 58.125C48.7812 59.6651 48.2798 60.0344 47.1992 61.1719C46.7931 61.5586 46.3871 61.9453 45.9687 62.3437C44.2819 64.3714 43.6094 66.6121 42.7754 69.082C42.6174 69.5195 42.4594 69.957 42.2966 70.4077C41.6458 72.326 41.2254 73.6648 41.5101 75.6921C42.3777 77.1403 43.0475 77.5487 44.5625 78.2812C46.0686 78.4929 46.0686 78.4929 47.7174 78.4632C48.0249 78.4656 48.3323 78.4681 48.6491 78.4706C49.6601 78.4768 50.6707 78.4727 51.6816 78.468C52.3873 78.4689 53.093 78.4703 53.7987 78.4721C55.2755 78.4741 56.7522 78.4711 58.229 78.4646C60.1189 78.4565 62.0086 78.4612 63.8985 78.4696C65.355 78.4747 66.8115 78.473 68.2681 78.4694C68.9648 78.4685 69.6615 78.4696 70.3582 78.4729C71.3331 78.4765 72.3076 78.471 73.2826 78.4632C73.8365 78.4621 74.3905 78.4609 74.9613 78.4598C76.6023 78.2613 77.4691 77.865 78.7812 76.875C79.9248 75.5008 79.9248 75.5008 79.455 73.7109C79.2434 72.8872 79.0165 72.0673 78.7812 71.25C78.6199 70.6862 78.4585 70.1224 78.2923 69.5416C77.0902 65.5558 75.8133 61.9276 72.2187 59.5312C72.3202 59.2581 72.4217 58.985 72.5263 58.7036C74.0286 54.2802 74.3851 49.9513 72.4 45.6189C70.6631 42.7126 68.1826 40.4244 65.0062 39.201C58.6386 37.6686 53.6246 39.3736 49.5448 44.3848Z" fill="#02759D"/>
<path d="M75.5 2.34374C75.8062 2.43189 76.1124 2.52003 76.4279 2.61085C91.4589 7.05649 103.774 16.9677 111.424 30.5968C114.66 36.5633 117.687 43.7673 117.687 50.625C117.978 50.683 118.268 50.741 118.566 50.8008C119.562 51.0937 119.562 51.0937 120.5 52.0312C120.742 54.2 120.695 56.3838 120.705 58.5644C120.72 59.1744 120.736 59.7844 120.752 60.4129C120.755 60.9963 120.758 61.5797 120.762 62.1808C120.768 62.7173 120.774 63.2538 120.781 63.8066C120.5 65.1562 120.5 65.1562 119.427 66.0307C117.726 66.7426 116.201 66.9481 114.406 66.5625C112.992 65.7393 111.868 64.7675 111.125 63.2812C110.975 61.6831 110.973 60.0808 110.949 58.4766C110.923 57.814 110.923 57.814 110.896 57.1381C110.85 53.4704 110.85 53.4704 112.319 51.8756C113.587 50.7523 113.587 50.7523 113.575 49.3671C110.312 34.429 102.658 21.8706 89.7676 13.3301C77.7201 5.63714 63.2381 2.97003 49.25 5.94726C40.1661 8.05035 31.7813 11.9323 24.875 18.2812C24.6329 18.501 24.3907 18.7208 24.1412 18.9473C16.2308 26.2005 11.2574 35.1369 8.4688 45.4687C8.25399 46.2219 8.25399 46.2219 8.03484 46.9903C7.92668 47.4357 7.81852 47.881 7.70709 48.3398C7.61403 48.7181 7.52098 49.0964 7.4251 49.4861C7.42831 50.7647 7.42831 50.7647 8.67388 51.8664C10.4252 53.7922 10.2201 55.8712 10.168 58.3594C10.1816 59.0092 10.1816 59.0092 10.1955 59.6722C10.1803 61.7953 10.1654 63.2122 8.65923 64.79C7.35945 66.0058 7.35945 66.0058 7.52764 67.6758C7.6642 68.2365 7.80076 68.7973 7.94146 69.375C8.0151 69.6814 8.08875 69.9879 8.16462 70.3036C8.40219 71.2509 8.66434 72.1874 8.93755 73.125C9.09466 73.6652 9.25176 74.2054 9.41363 74.762C14.0027 88.7555 23.6884 99.6299 36.6187 106.489C41.2807 108.839 47.6779 111.736 53 111.094C54.1937 110.292 54.1937 110.292 54.875 109.219C56.7425 108.596 58.4565 108.645 60.4121 108.633C60.9709 108.618 60.9709 108.618 61.541 108.604C63.8833 108.588 65.5205 108.821 67.5313 110.156C68.5123 111.834 68.9471 112.956 68.9082 114.902C68.3982 116.466 67.7177 117.402 66.5938 118.594C64.7862 119.498 62.5763 119.19 60.5879 119.209C60.1199 119.223 59.6519 119.236 59.1698 119.25C55.709 119.28 55.709 119.28 53.9027 118.204C53 117.187 53 117.187 52.0625 115.781C51.1603 115.426 51.1603 115.426 50.0978 115.247C49.6975 115.162 49.2972 115.078 48.8847 114.991C48.4542 114.904 48.0237 114.817 47.5801 114.727C32.4062 111.362 19.7224 102.035 11.2813 89.0625C7.17411 82.6116 4.59361 75.0988 3.26495 67.5842C2.9254 66.4411 2.9254 66.4411 1.66301 65.9804C0.500061 65.1562 0.500061 65.1562 0.21167 63.8141C0.214993 63.2805 0.218317 62.747 0.221741 62.1973C0.222949 61.616 0.224158 61.0347 0.225403 60.4358C0.238696 59.8279 0.25199 59.22 0.265686 58.5937C0.264477 57.9859 0.263269 57.378 0.262024 56.7517C0.308278 52.302 0.308278 52.302 1.12903 51.1432C1.90631 50.625 1.90631 50.625 3.31256 50.625C3.34217 50.2993 3.37177 49.9736 3.40228 49.6381C4.88906 37.29 10.8183 26.7535 19.25 17.8125C19.5371 17.4953 19.8241 17.178 20.1198 16.8512C26.7273 9.82098 36.2529 4.80565 45.5 2.34374C46.0197 2.1951 46.5393 2.04645 47.0747 1.8933C55.7103 -0.161899 66.9946 -0.158398 75.5 2.34374Z" fill="#02759D"/>
<path d="M50.6563 61.4062C51.6622 61.9045 52.6578 62.4124 53.6446 62.948C57.2442 64.78 60.5913 65.5242 64.5393 64.3103C66.0661 63.6646 67.3103 62.9967 68.586 61.9336C69.4063 61.4062 69.4063 61.4062 70.5488 61.582C73.5459 63.4826 74.6535 66.7297 75.6758 69.9609C75.8033 70.3368 75.9308 70.7126 76.0622 71.0999C76.9679 73.8775 76.9679 73.8775 76.4375 75.4688C65.9188 75.4688 55.4 75.4688 44.5625 75.4688C43.8289 73.2678 44.8276 71.5587 45.5879 69.4336C45.7308 69.0124 45.8737 68.5913 46.021 68.1573C47.0424 65.2579 48.0257 63.16 50.6563 61.4062Z" fill="#02759D"/>
<path d="M65.3633 42.4511C68.0262 44.0156 69.8597 46.2909 70.8125 49.2187C71.2212 52.6645 71.0868 55.77 68.9375 58.5937C66.8659 60.8409 64.8436 62.161 61.7415 62.4444C58.3931 62.5709 56.1659 61.8234 53.3809 59.9121C50.9859 57.5171 50.0819 55.4344 49.9531 52.0312C50.0714 49.0007 50.7451 46.8673 52.8352 44.6484C56.2987 41.5025 60.9562 40.4726 65.3633 42.4511Z" fill="#02759D"/>
</g>
<defs>
<clipPath id="clip0_48_64">
<rect width="120" height="120" fill="white" transform="translate(0.5)"/>
</clipPath>
</defs>
</svg>
