<?xml version="1.0" encoding="UTF-8"?><svg id="Capa_2" xmlns="http://www.w3.org/2000/svg" viewBox="0 0 455.49 43.35"><defs><style>.cls-1{opacity:0;}.cls-1,.cls-2{fill:#2c4f85;}</style></defs><g id="Capa_1-2"><rect class="cls-1" width="455.49" height="43.35"/><path class="cls-2" d="M16.96,23.23H6.21c-2.12,0-3.84,1.99-3.84,4.43v2.07c0,2.44,1.72,4.43,3.84,4.43h10.75c.45,0,.82,.43,.82,.95v3.61c0,.52-.37,.95-.82,.95H5.7c-.46,0-.82-.43-.82-.95v-1.82H1.87v1.82c0,2.44,1.72,4.43,3.84,4.43h11.26c2.12,0,3.84-1.99,3.84-4.43v-3.61c0-2.44-1.72-4.43-3.84-4.43H6.21c-.46,0-.82-.43-.82-.95v-2.07c0-.52,.37-.95,.82-.95h10.75c.45,0,.82,.43,.82,.95v1.78h3.01v-1.78c0-2.44-1.72-4.43-3.84-4.43"/><polygon class="cls-2" points="392.65 43.15 410.69 43.15 410.69 39.67 395.66 39.67 395.66 34.93 410.69 34.93 410.69 31.45 395.66 31.45 395.66 26.71 410.69 26.71 410.69 23.23 392.65 23.23 392.65 43.15"/><polygon class="cls-2" points="206.22 43.15 224.26 43.15 224.26 39.67 209.23 39.67 209.23 34.93 224.26 34.93 224.26 31.45 209.23 31.45 209.23 26.71 224.26 26.71 224.26 23.23 206.22 23.23 206.22 43.15"/><polygon class="cls-2" points="43.09 43.15 61.13 43.15 61.13 39.67 46.1 39.67 46.1 34.93 61.13 34.93 61.13 31.45 46.1 31.45 46.1 26.71 61.13 26.71 61.13 23.23 43.09 23.23 43.09 43.15"/><path class="cls-2" d="M100.34,23.23h-14.88c-.83,0-1.51,.78-1.51,1.74v16.44c0,.96,.67,1.74,1.51,1.74h14.88c.83,0,1.51-.78,1.51-1.74v-5.33h-3.01v3.59h-11.87v-12.96h11.87v2.97h3.01v-4.71c0-.96-.67-1.74-1.51-1.74"/><path class="cls-2" d="M139.69,39.67h-12.04V23.23h-3.01v18.18c0,.96,.67,1.74,1.51,1.74h15.05c.83,0,1.51-.78,1.51-1.74V23.23h-3.01v16.44Z"/><path class="cls-2" d="M178.12,23.23h-12.28v19.92h3.01v-8.49h9.27c1.07,0,1.94,1,1.94,2.24v6.25h3.01v-6.25c0-1.54-.53-2.94-1.4-3.97,.87-1.03,1.4-2.43,1.4-3.98,0-3.15-2.22-5.71-4.95-5.71m0,7.95h-9.27v-4.47h9.27c1.07,0,1.94,1,1.94,2.24s-.87,2.24-1.94,2.24"/><path class="cls-2" d="M278.3,23.23h-13.14v19.92h3.01v-8.49h10.13c2.73,0,4.95-2.56,4.95-5.71s-2.22-5.71-4.95-5.71m0,7.95h-10.13v-4.47h10.13c1.07,0,1.94,1,1.94,2.24s-.87,2.24-1.94,2.24"/><path class="cls-2" d="M452.77,28.94c0-3.15-2.22-5.71-4.95-5.71h-12.28v19.92h3.01v-8.49h9.27c1.07,0,1.94,1,1.94,2.24v6.25h3.01v-6.25c0-1.54-.53-2.94-1.4-3.97,.87-1.03,1.4-2.43,1.4-3.98m-4.95,2.24h-9.27v-4.47h9.27c1.07,0,1.94,1,1.94,2.24s-.87,2.24-1.94,2.24"/><path class="cls-2" d="M324.86,22.98h-16.35c-.83,0-1.51,.78-1.51,1.74v16.89c0,.96,.67,1.74,1.51,1.74h16.35c.83,0,1.51-.78,1.51-1.74V24.72c0-.96-.67-1.74-1.51-1.74m-1.51,16.9h-13.34v-13.42h13.34v13.42Z"/><polygon class="cls-2" points="372.92 22.48 366.48 42.23 363.67 42.27 359.21 29.55 355.19 42.21 352.38 42.26 345.44 22.48 348.69 22.48 353.7 36.78 357.72 24.12 360.53 24.06 365.02 36.84 369.71 22.48 372.92 22.48"/></g></svg>