<?xml version="1.0" encoding="UTF-8"?><svg id="Capa_2" xmlns="http://www.w3.org/2000/svg" xmlns:xlink="http://www.w3.org/1999/xlink" viewBox="0 0 455.49 96.38"><defs><style>.cls-1{fill:#e0a52d;}.cls-2{fill:#2c4f85;}.cls-3{fill:url(#Degradado_sin_nombre_2);}.cls-4{clip-path:url(#clippath);}.cls-5{fill:none;}</style><clipPath id="clippath"><rect class="cls-5" x="176.75" y="22.66" width="278.73" height="15.86"/></clipPath><linearGradient id="Degradado_sin_nombre_2" x1="1574.68" y1="-2718.13" x2="1576.96" y2="-2718.13" gradientTransform="translate(-172194.91 -297533.47) scale(109.47 -109.47)" gradientUnits="userSpaceOnUse"><stop offset="0" stop-color="#e0a52d"/><stop offset=".59" stop-color="#e0a52d"/><stop offset=".72" stop-color="#e3d7bf"/><stop offset=".9" stop-color="#e0a52d"/><stop offset="1" stop-color="#e0a52d"/></linearGradient></defs><g id="Capa_1-2"><rect class="cls-1" y="22.66" width="15.86" height="15.86"/><rect class="cls-1" x="44.03" y="22.66" width="15.86" height="15.86"/><rect class="cls-2" x="43.06" y="44.67" width="15.86" height="15.86"/><rect class="cls-1" x="66.04" y="22.66" width="15.86" height="15.86"/><rect class="cls-1" x="88.06" y="22.66" width="15.86" height="15.86"/><rect class="cls-2" x="88.38" y=".65" width="15.86" height="15.86"/><rect class="cls-2" x="176.76" width="15.86" height="15.86"/><rect class="cls-2" x="265.14" width="15.86" height="15.86"/><rect class="cls-2" x="407.9" width="15.86" height="15.86"/><rect class="cls-1" x="88.06" y="44.67" width="15.86" height="15.86"/><rect class="cls-1" x="110.07" y="66.69" width="15.86" height="15.86"/><rect class="cls-1" x="44.03" y=".65" width="15.86" height="15.86"/><rect class="cls-1" x="22.01" width="15.86" height="15.86"/><rect class="cls-1" x="154.1" y="22.66" width="15.86" height="15.86"/><rect class="cls-2" x="132.08" y="22.66" width="15.86" height="15.86"/><rect class="cls-1" x="131.44" y="44.67" width="15.86" height="15.86"/><rect class="cls-2" x="197.15" y="44.67" width="15.86" height="15.86"/><rect class="cls-2" x="342.18" y="44.67" width="15.86" height="15.86"/><g class="cls-4"><rect class="cls-3" x="191.46" y="-45.96" width="249.32" height="153.1" transform="translate(27.06 162.16) rotate(-30)"/></g><rect class="cls-5" x="0" width="455.49" height="96.38"/></g></svg>