<?xml version="1.0" encoding="utf-8"?>
<!-- Generator: Adobe Illustrator 26.3.1, SVG Export Plug-In . SVG Version: 6.00 Build 0)  -->
<svg version="1.1" id="Capa_1" xmlns="http://www.w3.org/2000/svg" xmlns:xlink="http://www.w3.org/1999/xlink" x="0px" y="0px"
	 viewBox="0 0 1920 160" style="enable-background:new 0 0 1920 160;" xml:space="preserve">
<style type="text/css">
	.st0{fill:#2C4F85;}
</style>
<g>
	<rect x="12" y="132" class="st0" width="136" height="16"/>
	<rect x="12" y="72" class="st0" width="136" height="16"/>
	<rect x="12" y="12" class="st0" width="136" height="16"/>
</g>
<g>
	<rect x="172" y="132" class="st0" width="136" height="16"/>
	<rect x="172" y="81" class="st0" width="136" height="16"/>
	<rect x="172" y="30" class="st0" width="136" height="16"/>
</g>
<g>
	<rect x="332" y="132" class="st0" width="136" height="16"/>
	<rect x="332" y="98" class="st0" width="136" height="16"/>
	<rect x="332" y="64" class="st0" width="136" height="16"/>
</g>
<g>
	<rect x="492" y="132" class="st0" width="136" height="16"/>
	<rect x="492" y="113" class="st0" width="136" height="16"/>
	<rect x="492" y="95" class="st0" width="136" height="16"/>
</g>
<g>
	<rect x="652" y="132" class="st0" width="136" height="16"/>
</g>
<g>
	
		<rect x="813.4" y="116.5" transform="matrix(0.9692 -0.2464 0.2464 0.9692 -3.5056 220.9809)" class="st0" width="136" height="16"/>
</g>
<g>
	
		<rect x="977.7" y="89.9" transform="matrix(0.8358 -0.5491 0.5491 0.8358 117.8155 589.6334)" class="st0" width="133.7" height="16"/>
</g>
<g>
	
		<rect x="1124.8" y="71.6" transform="matrix(0.7071 -0.7071 0.7071 0.7071 294.6312 870.4213)" class="st0" width="146.4" height="16"/>
</g>
<g>
	<rect x="1772" y="72" transform="matrix(0.7071 0.7071 -0.7071 0.7071 595.4921 -1277.645)" class="st0" width="136" height="16"/>
	<rect x="1838" y="72" class="st0" width="4" height="16"/>
	<rect x="1772" y="72" transform="matrix(0.7071 -0.7071 0.7071 0.7071 482.355 1324.5079)" class="st0" width="136" height="16"/>
</g>
<g>
	<rect x="1612" y="72" transform="matrix(0.8206 0.5714 -0.5714 0.8206 347.0361 -945.6741)" class="st0" width="136" height="16"/>
	<rect x="1678" y="72" class="st0" width="4" height="16"/>
	<rect x="1612" y="72" transform="matrix(0.7071 -0.7071 0.7071 0.7071 435.4921 1211.3708)" class="st0" width="136" height="16"/>
</g>
<g>
	
		<rect x="1452" y="72" transform="matrix(-0.9808 -0.1952 0.1952 -0.9808 2995.1406 455.1803)" class="st0" width="136" height="16"/>
	<rect x="1518" y="72" class="st0" width="4" height="16"/>
	<rect x="1452" y="72" transform="matrix(0.7071 -0.7071 0.7071 0.7071 388.6292 1098.2338)" class="st0" width="136" height="16"/>
</g>
<g>
	
		<rect x="1292" y="72" transform="matrix(-0.9654 0.2609 -0.2609 -0.9654 2693.7778 -197.5551)" class="st0" width="136" height="16"/>
	<rect x="1358" y="72" class="st0" width="4" height="16"/>
	<rect x="1292" y="72" transform="matrix(0.7071 -0.7071 0.7071 0.7071 341.7662 985.0967)" class="st0" width="136" height="16"/>
</g>
</svg>
