<?xml version="1.0" encoding="UTF-8"?>
<svg id="Capa_1" data-name="Capa 1" xmlns="http://www.w3.org/2000/svg" version="1.1" viewBox="0 0 1920 160">
  <defs>
    <style>
      .cls-1 {
        fill: #fff;
        stroke-width: 0px;
      }
    </style>
  </defs>
  <g>
    <path class="cls-1" d="M20,106.2h120c4.4,0,8,3.6,8,8h0c0,4.4-3.6,8-8,8H20c-4.4,0-8-3.6-8-8h0c0-4.4,3.6-8,8-8Z"/>
    <path class="cls-1" d="M20,72h120c4.4,0,8,3.6,8,8h0c0,4.4-3.6,8-8,8H20c-4.4,0-8-3.6-8-8h0c0-4.4,3.6-8,8-8Z"/>
    <path class="cls-1" d="M20,38h120c4.4,0,8,3.6,8,8h0c0,4.4-3.6,8-8,8H20c-4.4,0-8-3.6-8-8h0c0-4.4,3.6-8,8-8Z"/>
  </g>
  <g>
    <path class="cls-1" d="M179.9,103.7h120c4.4,0,8,3.6,8,8h0c0,4.4-3.6,8-8,8h-120c-4.4,0-8-3.6-8-8h0c0-4.4,3.6-8,8-8Z"/>
    <path class="cls-1" d="M179.9,72h120c4.4,0,8,3.6,8,8h0c0,4.4-3.6,8-8,8h-120c-4.4,0-8-3.6-8-8h0c0-4.4,3.6-8,8-8Z"/>
    <path class="cls-1" d="M179.9,39.9h120c4.4,0,8,3.6,8,8h0c0,4.4-3.6,8-8,8h-120c-4.4,0-8-3.6-8-8h0c0-4.4,3.6-8,8-8Z"/>
  </g>
  <g>
    <path class="cls-1" d="M339.8,90.2h120c4.4,0,8,3.6,8,8h0c0,4.4-3.6,8-8,8h-120c-4.4,0-8-3.6-8-8h0c0-4.4,3.6-8,8-8Z"/>
    <path class="cls-1" d="M339.8,72h120c4.4,0,8,3.6,8,8h0c0,4.4-3.6,8-8,8h-120c-4.4,0-8-3.6-8-8h0c0-4.4,3.6-8,8-8Z"/>
    <rect class="cls-1" x="331.8" y="52.3" width="136" height="16" rx="8" ry="8"/>
  </g>
  <g>
    <path class="cls-1" d="M499.6,75.1h120c4.4,0,8,3.6,8,8h0c0,4.4-3.6,8-8,8h-120c-4.4,0-8-3.6-8-8h0c0-4.4,3.6-8,8-8h0Z"/>
    <path class="cls-1" d="M499.6,68.3h120c4.4,0,8,3.6,8,8h0c0,4.4-3.6,8-8,8h-120c-4.4,0-8-3.6-8-8h0c0-4.4,3.6-8,8-8h0Z"/>
  </g>
  <path class="cls-1" d="M659.5,72h120c4.4,0,8,3.6,8,8h0c0,4.4-3.6,8-8,8h-120c-4.4,0-8-3.6-8-8h0c0-4.4,3.6-8,8-8Z"/>
  <g>
    <path class="cls-1" d="M1790.6,31.9h0c3.1-3.1,8.2-3.1,11.3,0l84.9,84.9c3.1,3.1,3.1,8.2,0,11.3h0c-3.1,3.1-8.2,3.1-11.3,0l-84.9-84.9c-3.1-3.1-3.1-8.2,0-11.3Z"/>
    <path class="cls-1" d="M1791.2,117.6l83.4-86.3c3.1-3.2,8.1-3.3,11.3-.2h0c3.2,3.1,3.3,8.1.2,11.3l-83.4,86.3c-3.1,3.2-8.1,3.3-11.3.2h0c-3.2-3.1-3.3-8.1-.2-11.3Z"/>
  </g>
  <g>
    <path class="cls-1" d="M1629.2,33.6h0c3-3.2,8.1-3.4,11.3-.4l87.8,81.8c3.2,3,3.4,8.1.4,11.3h0c-3,3.2-8.1,3.4-11.3.4l-87.8-81.8c-3.2-3-3.4-8.1-.4-11.3Z"/>
    <path class="cls-1" d="M1632.8,119.2l80.3-89.2c3-3.3,8-3.5,11.3-.6h0c3.3,3,3.5,8,.6,11.3l-80.3,89.2c-3,3.3-8,3.5-11.3.6h0c-3.3-3-3.5-8-.6-11.3Z"/>
  </g>
  <g>
    <path class="cls-1" d="M1467.8,35.4h0c2.9-3.3,8-3.7,11.3-.8l90.6,78.7c3.3,2.9,3.7,8,.8,11.3h0c-2.9,3.3-8,3.7-11.3.8l-90.6-78.7c-3.3-2.9-3.7-8-.8-11.3h0Z"/>
    <path class="cls-1" d="M1473,119.3l80.3-89.2c3-3.3,8-3.5,11.3-.6h0c3.3,3,3.5,8,.6,11.3l-80.3,89.2c-3,3.3-8,3.5-11.3.6h0c-3.3-3-3.5-8-.6-11.3Z"/>
  </g>
  <g>
    <path class="cls-1" d="M1303.6,41h0c2.5-3.6,7.5-4.5,11.1-2l98.3,68.8c3.6,2.5,4.5,7.5,2,11.1h0c-2.5,3.6-7.5,4.5-11.1,2l-98.3-68.8c-3.6-2.5-4.5-7.5-2-11.1Z"/>
    <path class="cls-1" d="M1315.3,121.6l75.5-93.3c2.8-3.4,7.8-4,11.3-1.2h0c3.4,2.8,4,7.8,1.2,11.3l-75.5,93.3c-2.8,3.4-7.8,4-11.3,1.2h0c-3.4-2.8-4-7.8-1.2-11.3Z"/>
  </g>
  <g>
    <path class="cls-1" d="M1132,71.8h0c.5-4.4,4.5-7.5,8.9-7l119.1,14.6c4.4.5,7.5,4.5,7,8.9h0c-.5,4.4-4.5,7.5-8.9,7l-119.1-14.6c-4.4-.5-7.5-4.5-7-8.9Z"/>
    <path class="cls-1" d="M1168.7,132.1l46.9-110.5c1.7-4.1,6.4-6,10.5-4.2h0c4.1,1.7,6,6.4,4.2,10.5l-46.9,110.5c-1.7,4.1-6.4,6-10.5,4.2h0c-4.1-1.7-6-6.4-4.2-10.5Z"/>
  </g>
  <g>
    <path class="cls-1" d="M1039.8,12h0c4.4,0,8,3.6,8,8v120c0,4.4-3.6,8-8,8h0c-4.4,0-8-3.6-8-8V20c0-4.4,3.6-8,8-8Z"/>
    <path class="cls-1" d="M984.2,104l102.9-61.8c3.8-2.3,8.7-1.1,11,2.7h0c2.3,3.8,1.1,8.7-2.7,11l-102.9,61.8c-3.8,2.3-8.7,1.1-11-2.7h0c-2.3-3.8-1.1-8.7,2.7-11Z"/>
  </g>
  <g>
    <path class="cls-1" d="M855.7,16.5h0c4.1-1.6,8.8.5,10.3,4.6l43,112c1.6,4.1-.5,8.8-4.6,10.3h0c-4.1,1.6-8.8-.5-10.3-4.6l-43-112c-1.6-4.1.5-8.8,4.6-10.3Z"/>
    <path class="cls-1" d="M843.9,128.6l58.2-105c2.1-3.9,7-5.3,10.9-3.1h0c3.9,2.1,5.3,7,3.1,10.9l-58.2,105c-2.1,3.9-7,5.3-10.9,3.1h0c-3.9-2.1-5.3-7-3.1-10.9h0Z"/>
  </g>
</svg>