<?xml version="1.0" encoding="UTF-8"?>
<svg id="Layer_1" data-name="Layer 1" xmlns="http://www.w3.org/2000/svg" version="1.1" viewBox="0 0 24 24">
  <defs>
    <style>
      .cls-1 {
        fill: #fff;
        stroke-width: 0px;
      }
    </style>
  </defs>
  <path class="cls-1" d="M8.2,15h-2.2v-2h2.3c1.9,0,2,2,0,2ZM15,12.3h3c-.1-1.7-2.7-2-3,0ZM8.2,9h-2.2v2h2.4c1.7,0,1.9-2-.2-2ZM24,5v14c0,2.8-2.2,5-5,5H5c-2.8,0-5-2.2-5-5V5C0,2.2,2.2,0,5,0h14C21.8,0,24,2.2,24,5ZM14,8h5v-1h-5v1ZM10.4,11.6c1.9-1,1.8-4.6-1.8-4.6h-4.6v10h4.3c4.5,0,4.4-4.5,2.1-5.4ZM19.9,12.2c-.3-1.8-1.5-2.9-3.6-2.9s-3.4,1.3-3.4,3.9,1.4,3.8,3.4,3.8,3.1-1.1,3.4-2h-2.1c-.7.9-2.9.5-2.8-1.4h5.1c0-.6,0-1.1,0-1.4Z"/>
</svg>