<?xml version="1.0" encoding="UTF-8"?>
<svg id="Layer_1" data-name="Layer 1" xmlns="http://www.w3.org/2000/svg" version="1.1" viewBox="0 0 24 24">
  <defs>
    <style>
      .cls-1 {
        fill: #fff;
        fill-rule: evenodd;
        stroke-width: 0px;
      }
    </style>
  </defs>
  <path class="cls-1" d="M12,0C5.4,0,0,5.4,0,12s3.2,9.4,7.6,11.2c-.1-.9-.2-2.4,0-3.4.2-.9,1.4-6,1.4-6,0,0-.4-.7-.4-1.8,0-1.7,1-2.9,2.2-2.9s1.5.8,1.5,1.7-.7,2.6-1,4c-.3,1.2.6,2.2,1.8,2.2,2.1,0,3.8-2.2,3.8-5.5s-2.1-4.9-5-4.9-5.4,2.6-5.4,5.2.4,2.1.9,2.7c0,.1.1.2,0,.3l-.3,1.4c0,.2-.2.3-.4.2-1.5-.7-2.4-2.9-2.4-4.6,0-3.8,2.8-7.3,7.9-7.3s7.4,3,7.4,6.9-2.6,7.5-6.2,7.5-2.4-.6-2.8-1.4l-.7,2.9c-.3,1-1,2.4-1.5,3.1,1.1.3,2.3.5,3.6.5,6.6,0,12-5.4,12-12S18.6,0,12,0Z"/>
</svg>