<?xml version="1.0" encoding="UTF-8"?>
<svg id="Capa_2" data-name="Capa 2" xmlns="http://www.w3.org/2000/svg" version="1.1" viewBox="0 0 250.5 250.5">
  <defs>
    <style>
      .cls-1 {
        fill: #bff72f;
      }

      .cls-1, .cls-2, .cls-3 {
        stroke-width: 0px;
      }

      .cls-2 {
        fill: #3f4041;
      }

      .cls-3 {
        fill: #fefffc;
      }
    </style>
  </defs>
  <path class="cls-3" d="M241.7,125.3c0,64.2-52.2,116.5-116.5,116.5S8.8,189.5,8.8,125.3,61,8.8,125.3,8.8s116.5,52.2,116.5,116.5Z"/>
  <path class="cls-1" d="M125.3,0C56.2,0,0,56.2,0,125.3s56.2,125.3,125.3,125.3,125.3-56.2,125.3-125.3S194.3,0,125.3,0ZM125.3,241.7c-64.2,0-116.5-52.2-116.5-116.5S61,8.8,125.3,8.8s116.5,52.2,116.5,116.5-52.2,116.5-116.5,116.5Z"/>
  <path class="cls-2" d="M181.4,76.6l4.6,100.2-9.6.2-3.1-85.8-100.5,100.7-6.7-6.7,100.5-100.7-86.1-3.1.7-9.4,100.2,4.6Z"/>
</svg>