<?xml version="1.0" encoding="utf-8"?>
<!-- Generator: Adobe Illustrator 26.3.1, SVG Export Plug-In . SVG Version: 6.00 Build 0)  -->
<svg version="1.1" id="Capa_1" xmlns="http://www.w3.org/2000/svg" xmlns:xlink="http://www.w3.org/1999/xlink" x="0px" y="0px"
	 viewBox="0 0 200 35" style="enable-background:new 0 0 200 35;" xml:space="preserve">
<style type="text/css">
	.st0{fill:#2D4F85;}
</style>
<g>
	<path class="st0" d="M0,0.3h15.1c2.5,0,4.6,0.1,6.1,0.4C22.8,1,24,1.5,24.8,2.1c1.5,1,2.6,2.2,3.4,3.8c0.8,1.6,1.1,3.4,1.1,5.6
		c0,2.1-0.3,3.8-0.9,5.2c-0.7,1.5-1.6,2.7-2.9,3.6c-0.6,0.4-1.2,0.7-1.7,1c-0.5,0.3-1.2,0.5-2,0.7c-1.5,0.3-3.7,0.5-6.4,0.5H6.9
		v11.9H0V0.3z M15,6.4H6.9v10h8.5c2.2,0,3.7-0.4,4.7-1.2c1-0.8,1.5-2.1,1.5-3.7c0-1.8-0.5-3.1-1.5-3.8C19.2,6.8,17.4,6.4,15,6.4z"/>
	<path class="st0" d="M57.9,21.8c0,3.9-1.2,7-3.5,9.4c-2.4,2.3-5.5,3.5-9.4,3.5c-3.9,0-7.1-1.2-9.4-3.5c-2.4-2.3-3.5-5.5-3.5-9.4
		c0-3.8,1.2-7,3.5-9.3C37.9,10.1,41.1,9,45,9c3.9,0,7,1.2,9.4,3.5C56.7,14.8,57.9,17.9,57.9,21.8z M38.9,21.8c0,2.4,0.6,4.2,1.7,5.6
		c1.1,1.3,2.6,2,4.5,2c1.9,0,3.5-0.7,4.6-2c1.1-1.3,1.6-3.2,1.6-5.6c0-2.4-0.6-4.2-1.7-5.5c-1.1-1.3-2.6-2-4.5-2
		c-1.9,0-3.4,0.7-4.5,2C39.4,17.6,38.9,19.4,38.9,21.8z"/>
	<path class="st0" d="M80.4,17.2l-5.1,17h-7.1L59.7,9.4h6.7l5.4,17.4l5.3-17.4H84l5.4,17.4l5.4-17.4h6.6l-8.2,24.9h-7.4L80.4,17.2z"
		/>
	<path class="st0" d="M114.6,34.3c-4,0-7.1-1-9.1-3.1c-2.1-2.1-3.1-5.2-3.1-9.3c0-4,1-7.1,3.1-9.2c2.1-2.1,5.1-3.2,9.1-3.2h9.4v5.2
		h-8.5c-2.3,0-3.9,0.3-4.7,1c-0.9,0.7-1.3,1.9-1.3,3.7H124v5.2h-14.5c0,1.7,0.4,2.9,1.2,3.6c0.8,0.7,2.4,1.1,4.8,1.1h8.5v5.2H114.6z
		"/>
	<path class="st0" d="M127.2,9.4H138c2.6,0,4.3,0.5,5.3,1.4c1.1,0.9,1.6,2.6,1.6,4.9v4.1h-6.1v-3.2c0-0.9-0.2-1.6-0.5-1.9
		c-0.3-0.3-1.1-0.5-2.3-0.5h-2.3v20.1h-6.4V9.4z"/>
	<path class="st0" d="M148.6,29.1h13.5c1.2,0,2.1-0.2,2.6-0.6c0.5-0.4,0.8-1,0.8-1.8c0-0.9-0.3-1.5-0.8-1.9
		c-0.6-0.3-1.4-0.5-2.6-0.5h-5.6c-3.2,0-5.4-0.5-6.6-1.6c-1.2-1-1.8-2.8-1.8-5.4c0-2.7,0.7-4.7,2.1-6c1.4-1.2,3.6-1.8,6.5-1.8h13.8
		v5.2h-11.3c-1.8,0-3,0.2-3.6,0.5c-0.6,0.3-0.9,0.9-0.9,1.8c0,0.8,0.3,1.4,0.8,1.7c0.5,0.4,1.2,0.5,2.3,0.5h5.8
		c2.7,0,4.7,0.6,6.1,1.9c1.4,1.2,2.1,3.1,2.1,5.5c0,2.3-0.6,4.2-1.9,5.7c-1.2,1.4-2.8,2.2-4.8,2.2h-16.6V29.1z"/>
	<path class="st0" d="M176.9,9.4H190c3.3,0,5.8,0.8,7.5,2.3c1.7,1.5,2.5,3.9,2.5,7v15.6h-17.3c-2.4,0-4.2-0.6-5.5-1.9
		c-1.3-1.2-2-3-2-5.3c0-2.8,0.7-4.9,2.2-6.1c1.5-1.2,4-1.8,7.5-1.8h8.4v-0.6c0-1.4-0.4-2.5-1.3-3.1c-0.9-0.6-2.4-0.9-4.6-0.9h-10.7
		V9.4z M185.4,29.2h8v-5.1h-7.5c-1.5,0-2.5,0.2-3.1,0.6c-0.6,0.5-0.9,1.2-0.9,2.2c0,0.9,0.2,1.5,0.6,1.8
		C183,29.1,183.9,29.2,185.4,29.2z"/>
</g>
</svg>
