<?xml version="1.0" encoding="utf-8"?>
<!-- Generator: Adobe Illustrator 26.3.1, SVG Export Plug-In . SVG Version: 6.00 Build 0)  -->
<svg version="1.1" id="Capa_1" xmlns="http://www.w3.org/2000/svg" xmlns:xlink="http://www.w3.org/1999/xlink" x="0px" y="0px"
	 viewBox="0 0 200 95" style="enable-background:new 0 0 200 95;" xml:space="preserve">
<style type="text/css">
	.st0{fill:#F2F2F2;}
	.st1{fill:#E0A52D;}
	.st2{fill:url(#SVGID_1_);}
</style>
<g>
	<path class="st0" d="M0.5,42.3h15.2c2.6,0,4.6,0.1,6.2,0.4c1.6,0.3,2.8,0.7,3.6,1.3c1.5,0.9,2.6,2.2,3.4,3.8
		c0.8,1.6,1.1,3.4,1.1,5.5c0,2-0.3,3.8-0.9,5.2c-0.7,1.5-1.6,2.7-2.9,3.6c-0.6,0.4-1.2,0.7-1.7,1c-0.5,0.2-1.2,0.5-2.1,0.7
		c-1.5,0.3-3.7,0.5-6.4,0.5H7.5V76h-7V42.3z M15.6,48.4H7.5v9.9H16c2.2,0,3.7-0.4,4.8-1.2c1-0.8,1.5-2,1.5-3.7
		c0-1.8-0.5-3.1-1.5-3.8S18,48.4,15.6,48.4z"/>
	<path class="st0" d="M58.5,63.6c0,3.9-1.2,7-3.5,9.3c-2.4,2.3-5.5,3.5-9.4,3.5c-3.9,0-7.1-1.2-9.4-3.5c-2.4-2.3-3.5-5.4-3.5-9.3
		c0-3.8,1.2-6.9,3.5-9.3c2.3-2.3,5.5-3.5,9.4-3.5c3.9,0,7.1,1.1,9.4,3.4C57.3,56.6,58.5,59.7,58.5,63.6z M39.4,63.6
		c0,2.4,0.6,4.2,1.7,5.5c1.1,1.3,2.6,2,4.5,2c1.9,0,3.5-0.7,4.6-2c1.1-1.3,1.6-3.1,1.6-5.5c0-2.4-0.6-4.2-1.7-5.4
		c-1.1-1.3-2.6-2-4.5-2c-1.9,0-3.4,0.7-4.5,2C40,59.4,39.4,61.3,39.4,63.6z"/>
	<path class="st0" d="M80.8,59.1L75.7,76h-7.1L60,51.3h6.8l5.4,17.2l5.3-17.2h6.9l5.4,17.2l5.4-17.2h6.6L93.5,76h-7.4L80.8,59.1z"/>
	<path class="st0" d="M114.9,76c-4,0-7.1-1-9.2-3.1c-2.1-2.1-3.1-5.1-3.1-9.2c0-4,1.1-7.1,3.2-9.2c2.1-2.1,5.2-3.1,9.1-3.1h9.4v5.1
		h-8.5c-2.3,0-3.9,0.3-4.7,1c-0.9,0.7-1.3,1.9-1.3,3.6h14.5v5.2h-14.5c0,1.7,0.4,2.9,1.2,3.6c0.8,0.7,2.4,1,4.8,1h8.5V76H114.9z"/>
	<path class="st0" d="M127.4,51.3h10.8c2.6,0,4.3,0.5,5.3,1.4c1.1,0.9,1.6,2.5,1.6,4.8v4.1H139v-3.2c0-0.9-0.2-1.6-0.5-1.9
		c-0.3-0.3-1.1-0.5-2.3-0.5h-2.3V76h-6.4V51.3z"/>
	<path class="st0" d="M148.8,70.9h13.6c1.2,0,2.1-0.2,2.6-0.6c0.5-0.4,0.8-1,0.8-1.8s-0.3-1.5-0.8-1.9c-0.6-0.3-1.5-0.5-2.6-0.5
		h-5.6c-3.3,0-5.5-0.5-6.6-1.6c-1.2-1-1.8-2.8-1.8-5.4c0-2.7,0.7-4.7,2.1-5.9c1.4-1.2,3.6-1.8,6.5-1.8h13.9v5.1h-11.4
		c-1.8,0-3,0.2-3.6,0.5c-0.6,0.3-0.9,0.9-0.9,1.7c0,0.8,0.3,1.4,0.8,1.7c0.5,0.4,1.2,0.5,2.3,0.5h5.8c2.7,0,4.7,0.6,6.1,1.9
		c1.4,1.2,2.1,3,2.1,5.4c0,2.3-0.6,4.2-1.9,5.6c-1.2,1.4-2.9,2.1-4.8,2.1h-16.7V70.9z"/>
	<path class="st0" d="M177.3,51.3h13.2c3.3,0,5.9,0.8,7.5,2.3c1.7,1.5,2.5,3.8,2.5,6.9V76h-17.3c-2.4,0-4.2-0.6-5.6-1.9
		c-1.3-1.2-2-3-2-5.2c0-2.8,0.7-4.8,2.2-6c1.5-1.2,4-1.8,7.5-1.8h8.5v-0.6c0-1.4-0.4-2.5-1.3-3.1c-0.9-0.6-2.4-0.9-4.6-0.9h-10.7
		V51.3z M185.8,71h8.1v-5.1h-7.6c-1.5,0-2.5,0.2-3.1,0.6c-0.6,0.5-0.9,1.2-0.9,2.1c0,0.9,0.2,1.5,0.6,1.8
		C183.4,70.8,184.3,71,185.8,71z"/>
</g>
<rect x="0" y="10" class="st1" width="7" height="7"/>
<rect x="19.3" y="10" class="st1" width="7" height="7"/>
<rect x="18.9" y="19.6" class="st0" width="7" height="7"/>
<rect x="29" y="10" class="st1" width="7" height="7"/>
<rect x="38.7" y="10" class="st1" width="7" height="7"/>
<rect x="38.8" y="0.3" class="st0" width="7" height="7"/>
<rect x="77.6" y="0" class="st0" width="7" height="7"/>
<rect x="116.4" y="0" class="st0" width="7" height="7"/>
<rect x="179.1" y="0" class="st0" width="7" height="7"/>
<rect x="38.7" y="19.6" transform="matrix(6.123234e-17 -1 1 6.123234e-17 19.0476 65.2452)" class="st1" width="7" height="7"/>
<rect x="48.3" y="29.3" transform="matrix(6.123234e-17 -1 1 6.123234e-17 19.0476 84.5771)" class="st1" width="7" height="7"/>
<rect x="19.3" y="0.3" class="st1" width="7" height="7"/>
<rect x="9.7" y="0" class="st1" width="7" height="7"/>
<rect x="67.7" y="10" class="st1" width="7" height="7"/>
<rect x="58" y="10" class="st0" width="7" height="7"/>
<rect x="57.7" y="19.6" class="st1" width="7" height="7"/>
<rect x="86.6" y="19.6" class="st0" width="7" height="7"/>
<rect x="150.2" y="19.6" class="st0" width="7" height="7"/>
<linearGradient id="SVGID_1_" gradientUnits="userSpaceOnUse" x1="91.4024" y1="40.8013" x2="186.2095" y2="-13.9356">
	<stop  offset="0.5855" style="stop-color:#E0A52D"/>
	<stop  offset="0.724" style="stop-color:#E3D7BF"/>
	<stop  offset="0.8972" style="stop-color:#E0A52D"/>
</linearGradient>
<rect x="77.6" y="10" class="st2" width="122.4" height="7"/>
<g>
	<g>
		<path class="st0" d="M7.4,86.2H2.7C1.8,86.2,1,87,1,88.1V89C1,90.1,1.8,91,2.7,91h4.7c0.2,0,0.4,0.2,0.4,0.4V93
			c0,0.2-0.2,0.4-0.4,0.4H2.5c-0.2,0-0.4-0.2-0.4-0.4v-0.8H0.8V93c0,1.1,0.8,1.9,1.7,1.9h4.9c0.9,0,1.7-0.9,1.7-1.9v-1.6
			c0-1.1-0.8-1.9-1.7-1.9H2.7c-0.2,0-0.4-0.2-0.4-0.4v-0.9c0-0.2,0.2-0.4,0.4-0.4h4.7c0.2,0,0.4,0.2,0.4,0.4v0.8h1.3v-0.8
			C9.1,87,8.4,86.2,7.4,86.2z"/>
	</g>
	<g>
		<polygon class="st0" points="172.4,94.9 180.3,94.9 180.3,93.4 173.7,93.4 173.7,91.3 180.3,91.3 180.3,89.8 173.7,89.8 
			173.7,87.7 180.3,87.7 180.3,86.2 172.4,86.2 		"/>
	</g>
	<g>
		<polygon class="st0" points="90.5,94.9 98.5,94.9 98.5,93.4 91.9,93.4 91.9,91.3 98.5,91.3 98.5,89.8 91.9,89.8 91.9,87.7 
			98.5,87.7 98.5,86.2 90.5,86.2 		"/>
	</g>
	<g>
		<polygon class="st0" points="18.9,94.9 26.8,94.9 26.8,93.4 20.2,93.4 20.2,91.3 26.8,91.3 26.8,89.8 20.2,89.8 20.2,87.7 
			26.8,87.7 26.8,86.2 18.9,86.2 		"/>
	</g>
	<g>
		<path class="st0" d="M44.1,86.2h-6.5c-0.4,0-0.7,0.3-0.7,0.8v7.2c0,0.4,0.3,0.8,0.7,0.8h6.5c0.4,0,0.7-0.3,0.7-0.8v-2.3h-1.3v1.6
			h-5.2v-5.7h5.2V89h1.3v-2.1C44.7,86.5,44.4,86.2,44.1,86.2z"/>
	</g>
	<g>
		<path class="st0" d="M61.3,93.4h-5.3v-7.2h-1.3v8c0,0.4,0.3,0.8,0.7,0.8H62c0.4,0,0.7-0.3,0.7-0.8v-8h-1.3V93.4z"/>
	</g>
	<g>
		<path class="st0" d="M78.2,86.2h-5.4v8.7h1.3v-3.7h4.1c0.5,0,0.9,0.4,0.9,1v2.7h1.3v-2.7c0-0.7-0.2-1.3-0.6-1.7
			c0.4-0.5,0.6-1.1,0.6-1.7C80.4,87.3,79.4,86.2,78.2,86.2z M78.2,89.7h-4.1v-2h4.1c0.5,0,0.9,0.4,0.9,1S78.7,89.7,78.2,89.7z"/>
	</g>
	<g>
		<path class="st0" d="M122.2,86.2h-5.8v8.7h1.3v-3.7h4.4c1.2,0,2.2-1.1,2.2-2.5S123.4,86.2,122.2,86.2z M122.2,89.7h-4.4v-2h4.4
			c0.5,0,0.9,0.4,0.9,1S122.7,89.7,122.2,89.7z"/>
	</g>
	<g>
		<path class="st0" d="M198.8,88.7c0-1.4-1-2.5-2.2-2.5h-5.4v8.7h1.3v-3.7h4.1c0.5,0,0.9,0.4,0.9,1v2.7h1.3v-2.7
			c0-0.7-0.2-1.3-0.6-1.7C198.6,90,198.8,89.4,198.8,88.7z M196.6,89.7h-4.1v-2h4.1c0.5,0,0.9,0.4,0.9,1S197.1,89.7,196.6,89.7z"/>
	</g>
	<g>
		<path class="st0" d="M142.6,86.1h-7.2c-0.4,0-0.7,0.3-0.7,0.8v7.4c0,0.4,0.3,0.8,0.7,0.8h7.2c0.4,0,0.7-0.3,0.7-0.8v-7.4
			C143.3,86.4,143,86.1,142.6,86.1z M142,93.5h-5.9v-5.9h5.9V93.5z"/>
	</g>
	<g>
		<polygon class="st0" points="163.7,85.8 160.9,94.5 159.7,94.5 157.7,88.9 156,94.5 154.7,94.5 151.7,85.8 153.1,85.8 155.3,92.1 
			157.1,86.6 158.3,86.5 160.3,92.1 162.3,85.8 		"/>
	</g>
</g>
</svg>
