<?xml version="1.0" encoding="UTF-8"?>
<svg id="Capa_2" data-name="Capa 2" xmlns="http://www.w3.org/2000/svg" viewBox="0 0 190 75">
  <defs>
    <style>
      .cls-1, .cls-2 {
        fill: #234142;
        stroke-width: 0px;
      }

      .cls-2 {
        opacity: 0;
      }
    </style>
  </defs>
  <g id="Capa_1-2" data-name="Capa 1">
    <rect class="cls-2" width="190" height="75"/>
    <g>
      <path class="cls-1" d="M128.08,30.52c1.21,7.28,2.4,14.51,3.61,21.78h-9.26c-.15-1.36-.29-2.7-.44-4.07-.25-.02-.46-.04-.67-.04-2.87,0-5.74,0-8.61-.01-.44,0-.74.12-1.03.46-.94,1.13-1.91,2.24-2.9,3.32-.18.2-.51.36-.77.36-4.82.02-9.63.03-14.45,0-.3,0-.69-.27-.88-.53-2.62-3.57-5.21-7.16-7.81-10.75-.15-.21-.31-.41-.54-.71-.38.96-.72,1.83-1.06,2.7-1.11,2.87-2.22,5.73-3.3,8.61-.19.52-.42.72-1.01.72-2.51-.04-5.03-.02-7.62-.02.08-.24.12-.44.19-.62,2.65-6.86,5.3-13.72,7.94-20.59.18-.48.43-.63.93-.62,1.9.03,3.8.03,5.69,0,.46,0,.73.15.99.52,2.59,3.62,5.2,7.23,7.81,10.84.16.23.33.45.58.78.14-.32.24-.54.33-.77,1.37-3.55,2.75-7.1,4.1-10.66.2-.53.44-.72,1.02-.71,2.25.04,4.51.02,6.76.02.23,0,.47,0,.85,0-2.58,6.68-5.12,13.25-7.66,19.83.03.02.07.04.1.07.13-.12.26-.22.38-.35,5.84-6.31,11.69-12.62,17.52-18.95.41-.44.81-.62,1.41-.61,2.32.03,4.65.01,6.98.01h.82ZM121.6,44.07c-.12-2.3-.23-4.56-.35-6.91-1.92,2.34-3.75,4.58-5.65,6.91h6Z"/>
      <path class="cls-1" d="M62.58,39h10.24c-.56,1.45-1.07,2.82-1.63,4.17-.06.15-.43.23-.66.23-2.99.01-5.98.03-8.97,0-.58,0-.83.18-1.01.71-.41,1.2-.89,2.38-1.38,3.66h11c-.57,1.5-1.09,2.92-1.67,4.31-.07.16-.46.25-.71.26-4.22.02-8.45.01-12.67.01-2.06,0-4.12,0-6.26,0,.09-.29.16-.51.24-.72,2.63-6.82,5.27-13.63,7.9-20.45.16-.41.3-.66.83-.66,6.05.02,12.1.01,18.15.02.16,0,.32.03.58.05-.56,1.46-1.07,2.87-1.65,4.26-.07.16-.47.25-.72.25-3.11.02-6.22.02-9.32,0-.55,0-.85.12-1.03.69-.34,1.05-.79,2.07-1.25,3.24Z"/>
      <path class="cls-1" d="M141.04,33.78c-1.62-.66-3.24-1.32-4.86-1.98-3.73-1.52-7.46-3.04-11.18-4.58-.48-.2-.86-.2-1.34.02-3.81,1.8-7.64,3.58-11.46,5.36-.21.1-.42.18-.81.35,1.57-2.81,3.04-5.46,4.58-8.23-17.35-.55-34.46.48-51.49,2.9,2.63-.48,5.25-1,7.88-1.43,6.74-1.1,13.47-2.24,20.22-3.2,4.76-.68,9.56-1.11,14.34-1.64,3.56-.39,7.12-.76,10.68-1.17.26-.03.54-.26.72-.48,1.06-1.33,2.09-2.69,3.17-4.09.2.11.38.21.55.32,1.54,1.03,3.06,2.08,4.62,3.07.37.23.87.39,1.3.37,3.41-.12,6.83-.29,10.24-.44.23-.01.47,0,.77.13-2.36,1.54-4.72,3.09-7.18,4.7,3.14,3.33,6.23,6.6,9.33,9.88l-.1.12Z"/>
      <path class="cls-1" d="M136.3,47.78c1.28,0,2.33,1.03,2.31,2.29-.02,1.22-1.06,2.24-2.29,2.25-1.27.01-2.32-1.04-2.3-2.3.01-1.25,1.01-2.24,2.28-2.24ZM136.31,51.94c1.05,0,1.91-.83,1.91-1.88,0-1.04-.83-1.9-1.87-1.92-1.06-.02-1.97.86-1.96,1.91,0,1.02.89,1.88,1.92,1.88Z"/>
      <path class="cls-1" d="M135.31,48.82c.46,0,.9-.08,1.3.03.25.07.66.52.62.59-.36.63.09,1.22.02,1.99-.55-.42-.48-1.62-1.55-1.06-.03.28-.06.6-.1.94-.41-.25-.49-.98-.3-2.48ZM135.69,50.05c.44-.14.78-.23,1.1-.37.04-.02.01-.35-.03-.37-.33-.1-.67-.15-1.06-.23v.96Z"/>
    </g>
  </g>
</svg>