<?xml version="1.0" encoding="UTF-8"?>
<svg xmlns="http://www.w3.org/2000/svg" version="1.1" xmlns:cc="http://creativecommons.org/ns#" xmlns:dc="http://purl.org/dc/elements/1.1/" xmlns:inkscape="http://www.inkscape.org/namespaces/inkscape" xmlns:rdf="http://www.w3.org/1999/02/22-rdf-syntax-ns#" xmlns:sodipodi="http://sodipodi.sourceforge.net/DTD/sodipodi-0.dtd" xmlns:svg="http://www.w3.org/2000/svg" viewBox="0 0 715.2 715.2">
  <defs>
    <style>
      .cls-1 {
        fill: #fff;
        stroke-width: 0px;
      }
    </style>
  </defs>
  <g id="svg2" inkscape:version="0.46+devel r22167">
    <g id="_defs" data-name="&amp;lt;defs">
      <inkscape:perspective id="perspective297" inkscape:persp3d-origin="372.04724 : 350.78739 : 1" inkscape:vp_x="0 : 526.18109 : 1" inkscape:vp_y="0 : 1000 : 0" inkscape:vp_z="744.09448 : 526.18109 : 1" sodipodi:type="inkscape:persp3d"/>
      <inkscape:perspective id="perspective6734" inkscape:persp3d-origin="0.5 : 0.33333333 : 1" inkscape:vp_x="0 : 0.5 : 1" inkscape:vp_y="0 : 1000 : 0" inkscape:vp_z="1 : 0.5 : 1" sodipodi:type="inkscape:persp3d"/>
    </g>
    <sodipodi:namedview id="namedview291" bordercolor="#666666" borderopacity="1" gridtolerance="10" guidetolerance="10" inkscape:current-layer="svg2" inkscape:cx="209.24672" inkscape:cy="571.35075" inkscape:pageopacity="0" inkscape:pageshadow="2" inkscape:window-height="729" inkscape:window-maximized="1" inkscape:window-width="1272" inkscape:window-x="0" inkscape:window-y="39" inkscape:zoom="0.45041527" objecttolerance="10" pagecolor="#ffffff" showgrid="false"/>
    <g id="surface0">
      <path id="path5" class="cls-1" d="M437.2,335c0,1.3-1.2,2.4-2.4,2.6-1.2.2-2.2-1.2-2.4-2.5,0-1,1-2,2.4-1.3,1.4,0,2.4.7,2.4,1.2"/>
      <path id="path7" class="cls-1" d="M372.1,504l-2.2,1.2c-1.1,3.8-3.9,9.4-12.6,13.8,0,0,8.4-.3,12.3-8.5-.2.9-2,9.9-13.3,24.7,0,0,.3,2.4,2.4.4,11.7-11.8,13.7-28.9,13.4-31.6"/>
      <path id="path9" class="cls-1" d="M471.2,518c.9-.9-1.7.8-.6.3.8-.3,1.7-.4,2.7-.5,3.5-.2,7,1.8,9.8,3.5l2.2-1.3c-4.7-3-11.6-5.5-16.2-.8l2.1-1.3"/>
      <path id="path11" class="cls-1" d="M495.9,536.2c1.7,1.5,4.2,2.3,6.6,2.4l2.1-1.2c-2.3,0-4.8-.9-6.5-2.4l-2.1,1.3"/>
      <path id="path13" class="cls-1" d="M564,245.5c0-1.1-.8-1.3-1.7-.5-12.5,11.4-34.7,11.7-49.9,6.8-1.9-.6-3.1,1.1-3.1,1.1,17.2,5.2,45.1,6.9,54.6-7.4"/>
      <path id="path15" class="cls-1" d="M510.8,248.2c-3.4-.5-2.6,1-2.6,1,3.7,1.2,7.4,1.8,11,1.8,7.5,2.5,15.6-.3,15.6-.3-2.3,0-6,0-9.2-.3,9-1.6,21-6.2,25.2-11.4-4.3,5.3-28.5,10.7-40.1,9.1"/>
      <path id="path17" class="cls-1" d="M359.1,228h-.3c0-.1.3,0,.3,0"/>
      <path id="path19" class="cls-1" d="M381.7,238.3c-5.3-7.5-17.6-9.1-22.5-10.3,11.4,3.3,22,10.2,22.5,10.3"/>
      <path id="path21" class="cls-1" d="M471.7,270.5c2.5,1.3,4.4-1.9,4.4-4.1,0-1.6-2.1-4.3-4.6-3.9-2.5,1.1-4.5,1.9-4.5,5.5,0,2,2.1,3.4,4.6,2.5"/>
      <path id="path23" class="cls-1" d="M450.6,179.5c-1.5.6-4.3,0-4.3,0,4.1,5.1,7.8,1.4,7.8,1.4,1.9-2.4-3.5-1.4-3.5-1.4"/>
      <path id="path25" class="cls-1" d="M418.3,188.7l-1.5,1.2s-2.4-.6-.7,1.8c0,0,2.5,4,4.3,3.2,0,0,1.7-.4-.3-2,0,0,.5-3.4-1.8-4.2"/>
      <path id="path27" class="cls-1" d="M58.9,359.3c-3.2-2.5-20-3.4-24.2-3.8-4.2-.3-14.2-1.1-14.9-1.1-1.2-.1-2.3-.1-3.2-1.2-.6-.9-.6-1.4-1.8-1.6l-1.8.8h0c0,0,0,0,0,0-.9.6-.5,2.2-.6,3.1,0,2.2,0,4.3-.2,6.4,0,1.5,1,1.6,2,1.2,0,0,2.8-2.7,4.6-2.7,7.7.2,29.7.3,32.9,1.2,5.5,1.5,6.2,9.2,2.3,12.6v.2c-.1,0-2.8.8-3.9.9-9.8,0-19.5-.1-29.3-.1-1.2,0-2.2-.3-3.2-1.1-.8-.7-1.6-1.6-2.7-1.1h0c0,0-.2.1-.2.1l-.9.5c-1.8,1.3-.8,4.9-.8,6.9,0,1.4-.5,10.3,1.2,10.9,1,.4,2.7-2,3.5-2.9,2.4-.7,17.8-.7,22.7-.9,6-.2,13.4.2,18.4-3.6,3.6-2.6,3.3-7.2,3.3-11.1,0-4.7.6-10.3-3.4-13.6h0ZM15.5,361.7l.7-.7h0s-.8.7-.8.7h0ZM52.6,386.5c2.1-.4,3.6-.9,4.8-1.6-1.3.9-3,1.3-4.8,1.6"/>
      <path id="path29" class="cls-1" d="M506.8,50.6h-.1c0,0,.1,0,.1,0h0"/>
      <path id="path31" class="cls-1" d="M17.7,338.6h0"/>
      <path id="path33" class="cls-1" d="M58.6,311.3c-.8,0-10.3-1.6-14.2-2.3-7-1.2-14.2-1.9-21.2-3.5-1.3-.2-1.9-.9-2.4-1.9-.4-.9-1.5-2.7-2.6-2.1h0l-1,.6h.2c0-.1,0,0,0,0-1.1,1.1-.9,2.6-1.3,4.4-.3,2.1-.6,4.4-.9,6.5-.2,1.2.2,2.5,1.5,1.8h0c0,.1.2,0,.2,0l.8-.5c.8-.5,1.2-1.2,2.1-1.5,1.1-.3,18.1,1.3,17,1.9,1-.6-12.4,7.2-16.6,9.7-1.9,1.1-4.2,2.1-5.9,3.6-1.2,1.1-1.8,8.5-2.1,10.4-.7,2.9.7,2.9,1.1,2.9h.2l4.4-2.9c1.5-.6,3.3-.5,5-.3,8.6.6,32.9,2.3,33.4,2.9l.8,1.6c.2,2.4,2.1,2.6,2.1,2.6,1.8.6,1.8-2.6,1.9-3.7.3-3,.9-6.2.7-9.2-.2-1.5-2.4,0-2.4,0-.2.1-.7,2.4-2.1,2.6-1.2.3-3.1.3-4.7,0-3-.3-21.2-1.8-21.9-3.5,6-3.5,31.9-18.2,31.9-18.3h0c0,0,.3-.2.3-.2,2-1.5-3.7-1.8-4.2-1.8M17.8,313.7l.3-.2,1.5-.7-1.8,1"/>
      <path id="path35" class="cls-1" d="M17.5,338.6l-1.2.7,1.2-.7"/>
      <path id="path37" class="cls-1" d="M538.4,109.2c-2.1,2.6-4.3,3.8-7.3,5.6h0c-.2.2-2.1,1.5,2,3.6,2,1,3.9,2.5,5.6,4,3.6,3.2,4.1-.3,4.3-1.2.5-2.6.1-5.2,1.8-7.4,4.5-6.4,8.9-12.7,13.4-19,.6,0,.3,3.8.2,5.1-.5,4.5-3,27.3-3.6,34.2-.3,2.8,2.2,4.5,4,4.2l1.3-.9c1.3-2.1,1.4-5,2.7-7.3.5-.8,1.2-1.4,1.8-2.2,5.7-6.4,11.4-12.9,17.1-19.4,1.7-1.9,3.1-3.4,5.7-3.8l3-1.1c.6-.5.8-1.3-.3-2.4-2.2-2.4-5.4-3.8-7.2-6.5-.9-1.3-2.3-1.5-2.2-1.5-.2.1-2.9-.4-1.8,3.1.7,2.3-.3,5.4-1.6,7.4-2.5,3.5-5,7-7.4,10.4-1-1.4.9-16.7,1.2-21.4.2-2.8,1.2-7-1.1-9.2-1.5-1.5-8.3-6.4-10.1-6.8l-1.6.8c-.5.7-.3,1.7-.4,2.7,0,1.5-.2,3-.6,4.4-.4,1.8-1.5,3.4-2.7,4.9-2.6,3-13.1,16.4-16,19.9"/>
      <path id="path39" class="cls-1" d="M23,290h-.2l-.2.2.3-.2"/>
      <path id="path41" class="cls-1" d="M66.5,297.8c.3-2.4.8-4.8,1.4-7.1.2-1.2.9-2.3,1.2-3.4.6-2.3-.6-2.4-1.7-1.9-.2,0-4.3,1.9-9.2.5-4.8-1.2-25.5-5.1-29.3-8.2-1.2-1-3.4-4.5-5.2-3.9h0s-.9-.5-2.2,6.1c-.7,3.5-1.5,7-1.9,10.5,0,1.4,1,1.1,1.5,1,1.4-.3,1.6-1.8,3-1.7,1.4,0,28.8,4.8,34.5,7.4,2.2,1,3.5,3,5.3,4.6,1.5,1.3,2.6-2.7,2.7-3.7h0ZM22.6,290l.4-.2-.4.2"/>
      <path id="path43" class="cls-1" d="M646.3,253.9c-2.2,1-3,.8-3.7,1.1-.8.4-6.3-.1-5,2.9.9,2.1,1.5,4.4,2.1,6.6.3,1.2,1.7,7,3.4,6,1.7-.9,2.5-3.2,4.3-4.5,1.1-.5,2.2-.9,3.3-1.4,0,0,25.7-9.4,30.1-10.6,1.3-.3,2.1.7,3.3.5,0,.1,2.3.3.7-3.8-.9-2.3-1.7-4.5-2.4-6.8-.5-1.8-.3-6.3-3.2-4.9h0c0,0-2.2,2.1-2.2,2.1-.4.3-4.6,2.8-5.5,3.1-4.8,1.8-25.3,9.6-25.3,9.6h0s0,0,0,0ZM646.4,266.5l.5-.4h0l-.6.4h0ZM647.1,266h-.1c0,.1.1,0,.1,0" sodipodi:nodetypes="ccccccccccccccccccccccccc"/>
      <path id="path45" class="cls-1" d="M129.4,102.8c1.7.2,3,1.4,4.1,2.6,6.8,6.5,14.4,12.9,19.8,20.6,1.5,2.2,2.6,4.6,3.1,7.3.8,3.8,3.8.7,3.8.7h0c3.6-3.5,9.8-7.5,10.2-7.8.5-.4,2.7-2.1.7-3.2h0c-2.3-.1-4.4-1.1-6.1-2.6-5.1-5.6-19.6-20.9-21.4-23.3-1.5-2-1.5-4.5-2.6-6.8l-1.3-.5h0c0,0-5.5,3-11.8,9.7-.7.7-1.4,1.2-1.6,2.1-.2,1.2,2.7,1.1,3.2,1.2"/>
      <path id="path47" class="cls-1" d="M571,143.7c-.9,6.6,3.2,13.2,9.1,16.2,9.1,4.7,19.9-2.3,26.2-8.4,4.6-4.6,8.6-9.9,9.8-16.3,1.3-7.1-3.4-13.5-9.4-16.9-9.4-5.2-20.3,2.2-26.8,8.5-4.6,4.5-8.2,10.4-9,16.8h0ZM591.1,132.4c2.7-2.4,17.6-15.5,18.7-5.8.3,3.2-2.9,6.8-4.7,9.1-3.1,3.8-6.7,7.3-10.1,10.8-1.1,1-2.3,2.4-3.6,3.6-1.2,1.1-2.3,2-3.4,2.7-.9.6-2.1,1.1-3.2,1.2-2.7.4-5.1-2.1-6.1-4.3-1.2-2.8.9-5.7,2.4-7.7,2.8-3.6,6.5-6.6,10-9.6"/>
      <path id="path49" class="cls-1" d="M68.7,176.7c3.6-.1,7.3,3.2,10.1,5,6.3,4.4,12.6,8.8,18.8,13.4,1.3,1.4,2.4,2.9,2.9,4.8.2.5.2,3.4,1.6,2.6h0c.9,0,6.7-9.1,9-12.8,1.9-3.1-2.9-2.5-4.5-3.2-1.8-.9-3.6-2.1-5.3-3.1-2.9-1.6-9.3-4.5-5-7.9,2.8-1.1,7.2-.6,10.2-.7,4.9-.3,10.1-.6,14.9-2.1,1.9-.6,4.5-1.8,5.1-3.8.9-2.9-3.6-2.3-5-2.2-1.9,0-14.8-1.4-19.3-2.1-2.2-.4-2.7-.3-2.5-2.4.2-2.9-1.1-5.3-3.2-7.3-4.3-4-10.3-4.4-15.2-1.5,0,0-4.1,2.4-12.3,15.2-1.3,1.9-2.6,3.9-3.8,5.8-2.2,3.5,1.1,2.4,3.5,2.3h0ZM88.6,175.5h-.3c0,0,.4,0,.4,0h0c0,0,0,0,0,0ZM76.7,164.4c.9-1.4,1.9-2.8,3.2-3.9,3.6-1.1,7.8,2.7,10.1,4.8,3.1,2.7,1.1,7.1-1.1,9.8-1.8,0-4.1-2.2-5.3-3-2.1-1.4-4-2.7-6-4-1.2-1.3-2.1-2.1-1-3.7"/>
      <path id="path51" class="cls-1" d="M654.5,313.2h0c0,0,0,0,0,0l17.9-13,4.2,2.3c3.6,1.4,7.9.7,11.3-.8,4.4-2,7-5.8,7.5-10.6.4-4.4-1.4-9.1-2.5-13.3-.9-3.2-1.5-6.4-2.5-9.6-.5-1.7-1-2.6-2.2-2.1h-.1s0,0,0,0h-.2c0,.1-.4.3-.4.3h-.2c0,0-.3.3-.3.3h0c0,0-.7,1-.7,1-.6,1.2-1.6,2.2-2.7,2.9-1,.5-2.2.8-3.3,1.2-1.5.4-22.8,5.5-27.7,6.6-1.9,0-4.3.3-5.5-1.2-.9-1.1-5.3-.1-3.7,2.4,2.4,4.1,1.8,9.5,3.1,13.9.3,1,2.2.3,3.6-1.1,1.4-1.4,3-2.1,4.7-2.7,2-.7,8.8-3.1,10.5-2.7,5.1,1.4-2,6.6-3.8,8.1-4,3.8-7.9,8-10.3,13-.9,1.9-2.2,5.9,1,6.1l1.9-1h0ZM688.4,290.2l-.6.2.6-.2ZM685.9,280.5l.5-.2-.5.2c2.4,0,3.1.3,3.6,2.6.6,2.4,1.2,5.1-.8,6.9-1,.4-2.1.9-3.2,1.2l-2.1.5c-2.1.4-4.1.4-5.7-.1-2-.7-5-6.3-3.6-8.3,3.9-.9,7.9-1.8,11.8-2.7h0ZM674,283h0c0,0-.3.2-.3.2l.3-.2h0ZM673.5,283.3h.2-.2c0,.1,0,0,0,0"/>
      <path id="path53" class="cls-1" d="M116.3,145.1c.4-.2,7.9-4.3,10.6-5.9,5.4-2.7,10.6-4,11,2.1.3,3.5-2.7,6.8-5.1,9-4.3,3.6-9.7,4.7-15,5.8-1.1.2-2.2.5-3.1,1h0c-.2,0-1.5,1,.3,2,2.5,1.4,5.3,2.3,8,3.4.9.3,3.9,2,4.9,1.6l1.3-.9c1.6-2.9,3.6-5.3,6.2-7.5,2.9-2.4,5.3-4.6,7-7.9,1.7-3.1,2.3-6.6,1.9-10.1-.8-6.4-6.5-10.8-12.9-10.7-5.5,0-19.6,7.9-20.7,8.3-2.8,1.1-5.7,1.5-7.6-.9-2.1-2.5.5-7,3.1-8.3,2.7-1.3,6-1.6,9.1-2,2.5-.3,5.9-.2,8.1-1.9,2.6-2.1-5.5-5.1-6.9-5.8-1.5-.6-3.7-1.4-3.7-1.3-1.2-.8-2.1,3.7-3.9,4.7-.7.4-7.5,5-8.9,6.2-4,4.8-6,12.5-.9,17.2,4.5,4.2,11.8,3.9,17.2,1.8"/>
      <path id="path55" class="cls-1" d="M617.2,176.3c1.2,4.8,1.7,10.1-2.7,13.4-8.1,3.5-11.5-9.4-11.6-15-.2-3.6,1.4-7.1,1.6-10.8,0-1.6-1.2-2.1-2.5-1.5h0c0,0-6.2,5.7-8.4,8.7-1.4,1.8-3.4,3.5-1.3,5.3,3.4,2.8,5,5.4,6.3,9.6,2.1,6.7,8.3,10.8,15.5,10.4,4-.3,7.9-2.6,10.8-5.3,4.8-4.6,6.1-10.9,5-17.2-.9-4.6-3.4-9.2-3.5-14,0-1.1.4-2.1,1.3-2.9,5.9-2.3,8.1,7.3,8.2,11.4,0,2.7-.3,5.4-1,7.9-.2.7-1.1,2,0,2.1,2.4.2,9.7-6.7,10.1-7,2.7-2-1.8-5-2.9-7-.7-1.4-1.1-2.9-1.9-4.3-.5-1-1.2-1.9-1.8-2.9-3.1-5.2-10.8-10.8-17.1-7.3l-1.8,1.1c-.1.1-4.9,4.2-5.2,8.3-.2,5.7,1.6,11.5,2.9,16.9"/>
      <path id="path57" class="cls-1" d="M692,356c-.1,0-7.1-.3-9.6,2.1-4.1,4.1-7.2,11.3-9.3,17.1-1.7,4.7-4.1,9-9.6,9.2-12.2-4.5-5.5-17.2-1-20.7,3.4-2.7,5.3-4.4,7.4-5.8,0,0,1.9-2.1-.3-1.6l-15.2,2.8c1.3,2.5.7,7.3-.8,11.4-2.4,6.6-.5,15.4,5.5,19.1,3.4,2.1,7.9,2.6,11.9,2.1,6.7-.8,10.1-5.4,13-11.1,3.6-7.2,2.4-11.7,6.7-15.5.9-.8,2.1-.9,3.2-.9,6.1,1.5,3.3,11.5.9,14.9-1.5,2.2-8.3,6.6-7.7,6.7.2,0-1.4,2.2,1,1.9,2.4-.3,9.9-2.6,10.4-2.8,1.9-1,.8-2.9,1.3-5.1.2-1.6,1.1-6.9,1.3-8,.7-5.9-2.1-14.9-9.3-15.8"/>
      <path id="path59" class="cls-1" d="M153.7,83.3c3.7,1.4,6,3.5,8.2,6.6,2.5,3.8,5.1,7.5,7.7,11.3,2.1,3.1,4.2,6.1,6.2,9.3.5,1.4.8,2.9.8,4.5,0,1.1-.7,2.4.7,3.1l1.1-.6c1.6-1.1,3.2-2.6,4.8-3.8,2.6-1.8,11.5-8.4,12.6-10.6,2.5-3.5,3.5-7.6,2.8-12.5-.9-7.8-6.5-15.6-13.1-19.9-5.6-3.7-12-2.6-17.8.1h.3c-2.1.9-15.9,9-16.8,10.2-.7,1.1,1.7,1.9,2.4,2.1h0ZM168.9,74.8c4.2-1.9,7.5,1.4,9.9,4.5,3.1,4.1,5.7,8.6,8.4,12.9,2.4,3.9,5.2,8.7.9,12.2-2.3.7-3.2-1.4-4.4-3.1-2-2.9-3.9-5.8-5.9-8.8-3.2-4.7-6.3-9.2-9.4-13.9l-.3.2.3-.2c-2-2-1.2-2.6.5-3.8"/>
      <path id="path61" class="cls-1" d="M240.3,35.4c1.9,1.4,3.8,2.9,4.5,5.3,2.6,9.5,5.3,18.9,8,28.4.5,1.6.4,3.1,0,4.6-.2,1.2-1.3,2.3-.5,3.4,1,1.4,6.9-1.3,8-1.7,4.3-1.6,8.8-2.7,12.8-5,12.4-7.3,10.4-22.7,4.9-33.8-2.4-4.6-5.8-8.6-11-9.7-6.3-1.4-13.4,1-19.2,2.8-2.6.7-5.5,1.7-7.7,3.5-.9.8-.5,1.6.3,2.2h0ZM256.6,32.6c9.3-3.5,12.2,14.6,13.5,20.2,1.2,4.8,3,11.2-1.6,14.6-3.3,1.1-3.4-1.9-4.2-4.4-.9-3.4-1.9-6.9-3-10.3-1.8-5.6-3.5-11.3-5.3-16.8-.4-1.4-.5-2.4.6-3.3"/>
      <path id="path63" class="cls-1" d="M314.4,19.9c.9,1.2,1.2,2.6,1.4,4.1.9,3.9,1.6,7.8,2.2,11.8.7,5.6,1,11.3,1.2,17,0,1.5,0,2.9.2,4.4,0,.9-.8,1.9-1.3,2.7-.9,1.7,1.8,2.1,2.8,2,6.2-.7,12.9-.8,18.7-2.9,1.6-.5,3.1-1.2,4.5-2.2,1-.6,1.9-1.3,2.8-2.2,4.6-4.5,6.2-11.3,6.2-17.5,0-5.8-1-12.4-4-17.5-2.4-4.1-6.8-5.8-11.4-6.4-6.7-.8-14.2,0-20.9,1-1.1.1-5.5,1.1-4.5,3.1.5,1,1.5,1.7,2.2,2.6h0ZM329.1,17.7c10.5-3.1,9.6,17.9,9.7,23.3.2,4.8.9,10.5-3.1,13.9-2.9.9-3.3-2.3-3.5-4.6-.4-3.7-.8-7.5-1.2-11.3-.6-6.5-1.4-13-2.1-19.5l.2-1.8ZM328.7,17.8h0s-.2.3-.2.3l.2-.3"/>
      <path id="path65" class="cls-1" d="M205.7,59.2c.9,5.3,1.5,10.6,2,15.9.3,4.1.5,8.2.7,12.3,0,2.5.2,4.8-.8,7.2-.5,1.2-1.9,2.7-1.6,4.1.2.9,2.5,0,2.5,0l.9-.6c2.5-2,9.2-4.8,9.7-4.9,1-.5,2-1.2,1.9-2.2-.2-1.4-3.5-2.8-4.3-4.1-1-1.5-1.5-5-.3-6.3,2.1-1,8.9-4,10.4-4.2,1.2-.2,4.2,4,4.1,4.6,0,.9.5,1.6.3,2.6-.2,1.3.2,2.5,1.7,2.3,1.3-.2,14.6-6.6,14.7-6.7,2.7-1.6-3.2-3-4.1-3.8-2.1-1.8-17.9-19.2-23.2-26.3-1.1-1.6-1.4-3.9-1.5-5.8,0-1-8.7,1.8-9.7,2.1-.7.2-6,2.9-6.6,3.8l1.4,3.1c1.2,1.9,1.3,4.8,1.7,7h0ZM215.5,80.8l.3-.2-.3.2ZM221,69.5c1,1.2,1.9,2.2.6,3.2-.3.2-4.4,1.9-5.3,2.2-.9.2-1.8.2-2.5,0l-.7-3.6c-.3-3.6-1-11.3-1-11.6,2.3.8,7.7,8.5,8.9,9.8ZM212.5,95.7c-1.4.8-2.5,1.7-3.7,2.6.8-.6,2.1-1.7,3.7-2.6"/>
      <path id="path67" class="cls-1" d="M626,212c-2.9.2-5.3-1-7.8-.4l-1.5.4c-1.2.7.9,2.9,1.2,3.3.9,1.2,2.2,4.7,2.4,5.3.6,1.6,2.2,1.3,3.5.4l2.9-2.7c1.9-.9,4-1.5,6-1.9,1.9-.3,2.6.2,3.4,1.8,1,2.2,2.1,4.3,3,6.5.6,1.4,1.3,2.5,1,4-.2,1.1-6.7,5.3-8.1,5.7l-2.3.3h0s-1.3.5-1.1,1.8c.2,1.4,1.3,2.6,2,3.8,1.2,2.1,1.5,4.9,2.3,7.1,1.7,4.5,3.8,2.7,3.8,2.7.6-.6.7-1.4,1.2-2.3,1.4-2.8,4.3-5,6.6-7.1,6.6-6.3,21.1-19.5,21.5-19.8.2,0,5.7-.6,6.1-1.7h.1c0,0,.1-.1.1-.1h-.1c2.5-1.9-5.6-11.9-5.7-14.3,0-1.7-1.9-1.5-1.8-1.5-.2.1-1.7.3-4.3,4l-3.1.7c-8.2,1.8-29.2,3.8-31.2,4h0ZM626.2,218.6h0c0,0,0,0,0,0h0ZM665.9,220.8h.2c0,0,.1-.2.1-.2h.3c0,0-.5.2-.5.2h0c0,0,0,0,0,0ZM665.8,220.9h0-.2c0,.1.2,0,.2,0h0ZM646.9,223.2h0c0,0,.4-.3.4-.3l-.4.3h0ZM647.5,222.9h-.2s.2-.1.2-.1h0c0,.1,0,.1,0,.1ZM642.9,214.7c1.4-.4,10.3-.3,10.4-.4,0,0,2.1.6.7,2.1l-7.1,6.8h-1.7c-1.1-1.3-1.4-3.5-2-5.1-.3-1.2-1.3-2.4-.2-3.3"/>
      <path id="path69" class="cls-1" d="M43.7,219l1.5-.7c.9-.6,1.4-.8,2.9-.6,3.6.3,7.1,2.8,10.1,4.6,5.5,3.1,11.1,6.2,16.7,9.3h0c1.3.9,5.4,3.5,5.9,4.2.8,1.1.4,2.7,1.9,3l1.5-.8h0,0l14.5-26s-10.3-15.1-13.2-10c-.9,1.6,1.6,4.7,2.1,6.2.8,2.3.9,4.6.7,7,0,2.2-.3,6.8-2,8.9-1.5,0-14.5-7.4-15.1-7.7-.2-.1,1.1-4.7,4.3-5.4,1.4-.3,4.1-.4,4.7-1.3,1.8-2.3-9.8-7-12.8-7.8-2.6-.6-.9,5.3-.5,6.2.3.7.9,3.4-.7,5.8-3.3-1.6-12-6-13.2-6.5-1-.5,3-8.7,5.1-9.1,2.3-.5,6.5-1.4,7.9-2.3,1.9-1.2-.3-2.6-1.5-2.8-2.2-.3-4.4-.5-6.5-1.1-1.3-.3-2.5.4-2.5.4-2.3,1.6-8.5,15.5-10.2,19.2-.5,1.1-4.7,7.5-1.5,7.2h0ZM67.2,213.3l-.5.5.5-.5ZM46.1,217.5l-1.1.6,1.1-.6"/>
      <path id="path71" class="cls-1" d="M516.5,66.5c-3.4,5.8-14.2,23.5-16.6,25.4-4.6.6-4.2,1.7-4.4,1.9-1.9,1.8,3.8,3.2,4.9,3.7,4.8,2.4,18.2,10.5,20.2,11.9,1.1.6,2.2,1.7,3.4,2.1.2,0,2.7-.2,10.5-9.2.9-1.1,3.1-3.7.1-3.3-2.1.2-4.2,1.9-6.2,2.4-4.1,1-9.2,0-12.8-1.8-3.4-1.8-2.4-3.3-1-5.7,2.4-4,4.8-8,7.2-12.1,1.4.4,2.4,1.2,3.4,2.4,2,2.1,2.6,3.9,2.9,6.7.2,1.8,1.5,2.8,2.9,1.4,1.9-1.9,2.6-5.4,3.7-7.7.7-1.3,3-5.9,1.4-6.3-1.2-.3-3.4.8-4.5,1.1l-2.7-.5c-2.1-.5-3.3-.4-4.5-2.2,2.4-3.5,4.6-7.3,7.2-10.7,2.5-.2,5.5,3.6,6.5,5.4,1.4,2.1,2.4,4.6,3.1,7,.7,2.3,3,1.8,3,1.8.7-.2,1.4-.9,1.8-1.9.7-1.9,2.5-7.1,2.6-7.9-.1-1-3.2-2.3-4.1-2.9-6.3-4.1-12.5-8.3-18.9-12.1-.9-.6-6.6-3.5-6.4.1,0,1.2.5,2.4.3,3.6-.3,2.5-1.6,5.2-2.9,7.4ZM499.6,92.2l-.8.3,1-.4h-.2c0,.1,0,.1,0,.1Z"/>
      <path id="path73" class="cls-1" d="M653.8,338.5c0,2.5-.3,5.1-.2,7.6,0,1.2.2.9.5,2.1l1.1.4c.2,0,9.6,1.3,11.5,1.7,2.7.5,3.5-1.4,1.8-2.1-6.6-2.9-10.5-10.5-11-14.5-.5-3.7,1.3-3.8,4.1-4,4.8-.4,9.5-.7,14.2-1.1.5,1.4.4,2.6,0,4.1-.7,2.8-1.7,3.7-3.9,5.5-1.4,1.2-1.1,2.9.9,2.4,2.8-.5,8.2-2.4,10.8-2.5,2.6-.2,1.2-1.6,1.2-1.7-4.8-4-3.8-6-4-6.7-.8-1.9,0-1.7,1.9-1.8,4.3-.1,8.5-.8,12.8-.7,1.6,1.9.3,9.3-.5,11.3-.9,2.4-3.4,3.5-4.8,5.6,0,0-2.3,2.9,1.9,2.5l8.1-2.4c.8-.6,0-2.2,0-3.1-.1-7.4-.7-14.6-1.1-22-.2-3.6-.6-5.3-.7-5.3-.5-.6-1.3-.8-2.5,0-1,.6-1.7,1.7-2.8,2.3-2.3,1.3-12.9.3-14.9,1.7-2.7,1.8-18.8,2.8-21.8,1.9-.9-.6-.9-1.3-2.5-1.9h0c-2.6-.5-2.1,4.3-1.9,5.5.8,5.2,1.5,10.2,1.8,15.5h0ZM656.2,319.4h-.2c0,0-.6-.6-.6-.6l.9.6h0ZM654,317.6h0c0,0,0,0,0,0h0"/>
      <path id="path75" class="cls-1" d="M27,267.3c.8-.9.5-.7.9-1.1,1.1-.3,2.5-.2,3.6-.2,2.2,0,36.9-1.2,38,.5,2.4,3.6,3.9,1,3.9.9,1.5-2.4,2.2-5.8,3.1-8.4.3-.8,2.3-4.9,1.4-5.4-.8-.4-2.4,0-3.3.1-2,.1-3.3-.3-4.9-1.5-8.7-6.2-18.1-12.3-25.6-19.9-.7-.7-1.5-1.6-2-2.6-.7-1.2-1.4-4.7-2.7-4-3,1.6-5.5,11-5.5,12.8,0,1.4,2.6,0,2.6,0,3.7-1.2,10.5,5,13,6.8,1.4,1,11.3,7.1,9.3,9.5-1.3.5-19.6-.2-21.6-.3-2.6-.1-4.1-1-6.1-2.2-1.3-.8-2.1.4-2.2.5h0c0,0,0,0,0,0-.6.4-3.5,11.7-4.1,13.5-.2.7.9,2.1,2.2,1.1h0ZM37,238l-.4.2.4-.2ZM27.6,266.3h0c0,0-.3.3-.3.3l.3-.3"/>
      <path id="path77" class="cls-1" d="M408.8,94.9c0,0,1.4-1.1.4-1.7-5.2-2.9-9-7.6-13.2-11.7-2.1-2.1-4.2-4.2-6.3-6.2l-3-2.4c0,.4,4.1,5.9,6,8.1,4.7,5.4,10.1,10.1,16.2,13.8"/>
      <path id="path79" class="cls-1" d="M383.3,108.3c1.4,1.6,4.5,3.2,6.7,2l2.2-1.6c-2.9,1.1-5.1-1-7-2.9-1.9-2-3.7-3.8-6-5.3-1.5-1-6.1-3-7.6-.9h0c1.5,1.5,2.9,4.7,3,6.7.2,2.5,0,5.7,3,6.2,1.8.3,5.5-1.2,5.7-1.4h0c-3.6,1.4-6.3-.5-5.8-4.3.3-3.5-2.2-5.3-2.4-5.5,2.9,1.9,3.3,1.2,8.1,6.9h0ZM391,109.3h-.2s.2,0,.2,0"/>
      <path id="path81" class="cls-1" d="M448.9,280.2h0c3.7,3.7,7.7,7.1,12.4,9.4,5.9,3,12.9,3.2,18.8.3,9.4-4.7,11.6-15.2,12.8-20.6l-1.9,1c-1.4,4.6-6.3,16.2-20.6,16.8-13.4.6-21.4-7.1-21.6-7ZM480,285.2h0,0"/>
      <path id="path83" class="cls-1" d="M433.1,270.1c.2,5.5,4.7,9.7,8.8,12.8h0c0,0,1.1-.5,1.1-.5,0,0-7.9-6.4-7.9-13.6l-2.1,1.3"/>
      <path id="path85" class="cls-1" d="M491.6,332.6c-3.6-4.1-16.3-6.5-16.8-6.7,5,1.7,12,4,15.1,8.3,0,0,.1,8.4.4,14.1.3,6.1-1.7,12.9-6.8,16.8l2.1-1.2c7.5-5.7,7.5-17.4,6.7-25.8-.5-5.4,3.2-9.4,7.7-12.3-2.9,1.7-6.2,4-8.3,6.8"/>
      <path id="path87" class="cls-1" d="M439,323.6c4.9-1.8,10.3-2.8,15.5-2.3l2.2-1.3c-5.2-.4-10.7.5-15.5,2.3l-2.2,1.3"/>
      <path id="path89" class="cls-1" d="M523.3,425l-3,1.6c-.4.3,0,.5,0,2.7-.2,3.4-3.4,5.8-3.5,5.8,6.7,0,6.9-7.5,6.4-10.2"/>
      <path id="path91" class="cls-1" d="M530.8,399.7l-2.1,1.2c.5,4.9,0,9.9-2.3,14.4-.7,1.3-1.6,2.6-2.7,3.6l-1.1,1c-.1.1-.7.4-.6.4,0,0,0,0,.1,0-.1.1-.2.1-.2.1,0,0,1.3-.7,1.5-.8,6.9-4.1,8.2-12.8,7.4-19.9"/>
      <path id="path93" class="cls-1" d="M510.2,370.9l-2.1,1.3c11.7,1.7,20.7,10.8,22.7,22,0-.2-2.3-23.3-20.6-23.2"/>
      <path id="path95" class="cls-1" d="M521.5,407.7l.8-2.9c-3.9-19.5-32.4-20.2-33.1-20.2,14.9,3.6,25.7,8.8,32.2,23.1"/>
      <path id="path97" class="cls-1" d="M498.7,370.8c-7.8-.1-13.8-.6-23.5,1.8-1.1.3-2.3.5-3.4.9-1.1.4-4.1-.4-5.3,0-2.5.6-3.7,2.7-4.3,3,1.2-.7,5.3-2.8,9.3-1.5,1.1.4,7.4-3.1,25.1-2.9l2.1-1.2"/>
      <path id="path99" class="cls-1" d="M355.7,414.7c-10.1-11.2-20.2-22.5-30.3-33.8l-.7.4-.4.3c9.1,11.9,19.1,23.4,29.1,34.5h.3c0-.1,0-.1,0-.1h0c0,0,.2,0,.2,0l.7-.4h.2c0-.1,0,0,0,0l.7-.6.3-.2-.3.2h0s.3-.2.3-.2"/>
      <path id="path101" class="cls-1" d="M395.3,399.3c-8.7.2-16.4,0-25.2.3-2.2,0-8.2.9-8.5,0-1-2.1-2.2-4.1-3.5-6.1-5.5-8.4-11.8-16.4-18.2-24.1-4-4.9-11.5-10.3-18.2-7-2,1-2.7,3-4.2,4.8.5-.6,5.5-3.4,7.3-3.9,5-1.1,10.6,4.4,13.6,8,6.3,7.7,12.5,15.6,17.8,23.9,1.2,1.8,2.3,3.7,3.2,5.7.4.9.2,1.1,1.2,1.2,2.1-.1,6.3,1.1,8.5,1,8.8-.2,16.4-.1,25.3-.3,14.1-.3,30,.2,42.8-2l.9-1.8c-14.3.4-28.4,0-42.8.4"/>
      <path id="path103" class="cls-1" d="M434.1,406.7c-7.2.1-14.4.2-21.6.3l-2.2,1.3c7.2-.1,14.4-.2,21.6-.3l2.2-1.2"/>
      <path id="path105" class="cls-1" d="M396,410.9c-8.1.1-16.2.2-24.3.3l-2.2,1.3c8.2-.1,16.3-.2,24.3-.4l2.2-1.2"/>
      <path id="path107" class="cls-1" d="M359.8,416.6c5.4-.1,10.7-.2,16-.2l2.2-1.2c-5.4,0-10.7.1-16,.2l-2.2,1.3"/>
      <path id="path109" class="cls-1" d="M363.9,418.8l-2.2,1.3c27.7.7,55.5,1.5,83.3,2.3l2.2-1.2c-27.8-.8-55.6-1.6-83.3-2.3"/>
      <path id="path111" class="cls-1" d="M425.7,418.3c5.8,0,11.7-.1,17.5-.2l2.2-1.3c-5.8,0-11.7.1-17.6.2l-2.1,1.2"/>
      <path id="path113" class="cls-1" d="M339.8,506.7l2.1-1.2c-10.9,4-23.8,1.2-34.1-3.5-12.7-5.8-24.4-14.4-34.4-24-10.3-10-25.6-36-25.6-36,4.8,13.4,12.9,26.8,22.9,36.7,10,10,22,18.5,34.8,24.5,10.3,4.8,23.4,7.6,34.3,3.5"/>
      <path id="path115" class="cls-1" d="M412.8,551.4l-3.7,1.5c.9.6,1.9-.1,2.9,2.3,1,2.4.4,7.2-.2,7.8.1,0,4.5-9.2,1-11.6"/>
      <path id="path117" class="cls-1" d="M390.3,620.2s15.9-4.3,6.1-14.5l-3.4,4.2c-1.2,1,.7,1.7,1.6,1,.1,0,2,2.4.9,4.7-1.2,2.3-5.1,4.6-5.1,4.6"/>
      <path id="path119" class="cls-1" d="M352.6,536.8c-1.5-1.4-3.5-.3-5.4-.6-33.4-2.5-57.8-20-57.9-20,11.6,12.7,28,20.9,44.9,24.4,15.4,3.1,19.7-2.6,18.5-3.8"/>
      <path id="path121" class="cls-1" d="M300.9,507.1c5.3,3.3,16.9,6.5,22.1,7.8-10.5-3.1-33.8-16.3-33.9-16.4,3.7,3.1,7.7,5.9,11.8,8.6"/>
      <path id="path123" class="cls-1" d="M386.3,539.6c-2.5,11.6-15.9,17.4-16.1,17.5,13.2,0,16.7-10.8,16.1-17.5"/>
      <path id="path125" class="cls-1" d="M311.3,560.4c0,0,1.8-10-9.9-23.2-18.4-20.7-37-54.5-36.9-54.3,3.5,9.6,11.9,25.5,19.9,37,4.5,6.4,9.9,12,14.6,18.1,4,5.4,9.4,11.8,9.9,18.9-2.3-2.7-17.5-21.5-21.6-28-5-7.9-9.6-16.1-13.8-24.5,0,0,6.6,17.4,11.3,25.2,13.9,23.1,25.8,30.4,26.6,30.9"/>
      <path id="path127" class="cls-1" d="M262,526.6c1.2,7.1,1.8,14.2,2.8,21.2l.8-.4.2-.2c.7-.6.1-3.9.1-4.7,0-2.4-.2-4.7-.3-7.1-.3-4.6-.9-9.3-1.7-13.9-1.5-8.6-3.9-17.6-8.2-25.4h-.2c-1,.7-2.1,1.2-2.9,1.8l.3-.2-.3.2c2.9,3.5,4.4,7.9,5.7,12.1,1.7,5.4,2.8,11,3.8,16.5"/>
      <path id="path129" class="cls-1" d="M304.7,562.5c-7.2-3.1-14.8-5.1-22.7-5.3-5.8-.1-11.4,2.2-11.3,2.1-.1,0,19.4-1.1,31.1,5l2.9-1.9"/>
      <path id="path131" class="cls-1" d="M336.3,557.6l2.2-1.3c-4.8,1.8-24.5-10.7-24.5-10.7,2.7,2.4,17.3,13.8,22.3,11.9"/>
      <path id="path133" class="cls-1" d="M312.6,421.1c1,.4,4,2.3,4,2.3l1.5-.5c0,0-7.1-7.6-12.8-7.5-1.9.1-9.8,3.9-9.9,4,5.8-1.2,11.8-1,17.2,1.7Z"/>
      <path id="path135" class="cls-1" d="M469.7,406.6c1.5-1.2-14.9-18.6-25.8-23l-.9.4c18.3,11,25.6,23,25.5,23.1l1.2-.5"/>
      <path id="path137" class="cls-1" d="M489.2,430c2.2-6.7-.9-14.5-5.7-19.8,0-.1,6.7,11.6,3.6,21.1l2.1-1.3"/>
      <path id="path139" class="cls-1" d="M487.1,403.5c-.9-1.5-3.8-3.5-5.6-3.6l-1,.6c.1.3,6,6.8,6.7,9.1.3.8,1.9-2.9,0-6"/>
      <path id="path141" class="cls-1" d="M263.4,115.7c-18.2,6.5-32.4,12.9-43.3,18.2-20.9,10-48.6,31.5-60.4,40.2,16.4-11.7,75.9-51.8,137.7-65.6l1.2-.4c12.2-3.3,13.5-6.2,12.6-7.6-.2.1-21.8,6.9-24.3,7.6-7.9,2.3-15.8,4.8-23.5,7.5"/>
      <path id="path143" class="cls-1" d="M293.2,112.5l-.5.4.5-.4"/>
      <path id="path145" class="cls-1" d="M166,161.9h0c0,0,0,0,0,0h0c55-39.8,120.3-65.7,140.4-70.7-27.3,6.8-54.1,17.7-79.1,30.5-11.6,5.9-60.1,34.8-61.3,40.2ZM284.9,97.6c-5.6,1.9-11.1,3.9-16.5,6-6,2.3-11.8,4.6-17.6,7.2,11.1-4.9,22.6-9.4,34.2-13.2"/>
      <path id="path147" class="cls-1" d="M198,138l.9-.5.4-.2-1.3.7"/>
      <path id="path149" class="cls-1" d="M282.6,154.3l-.5.4.5-.4"/>
      <path id="path151" class="cls-1" d="M369,294c-19.9-3.2-56.4-1.5-56.7-1.2,17.9.3,56,1.1,56.7,1.2"/>
      <path id="path153" class="cls-1" d="M373.3,284.2h.6s-.6,0-.6,0"/>
      <path id="path155" class="cls-1" d="M216.9,285.6c-4.9,0-9.9.5-14.7,1.5l-2.1,1.3h0c0,0-.5.3-.5.3l-.3.2h-.3c0,.1,0,.1.1.1h0s0,0,0,0c2-.4,3.8-.6,5.7-.8l28.8.2c1.5,0,3.2.2,4.8.4,1.6.1,4,.7,6,.7s1.3,0,1.8-.2l1.7-1.1.5-.3.5-.3-.3.2.3-.2c-10.5-1.1-21.2-1.8-31.9-1.8"/>
      <path id="path157" class="cls-1" d="M587.3,441.5l-2.1,1.3c-.5,7.2-6,14-11.3,18.7l2.1-1.3c5.3-4.6,10.8-11.4,11.3-18.7"/>
      <path id="path159" class="cls-1" d="M326.7,626.2l1.2-.7h.1c0-.1-1.4.7-1.4.7"/>
      <path id="path161" class="cls-1" d="M630.1,394.8c-1.5,1.6,3.1,4.7,6.1,5.3.2,0-5.1-3.5-4.5-5.1l-1.6-.2"/>
      <path id="path163" class="cls-1" d="M548.6,149.2h-.2.2"/>
      <path id="path165" class="cls-1" d="M441.2,95.1c.3-1.5-2.7-1.4-3.3-2-.7-.9,3.5-.8,2.6-1.6-1.8-1.7-4.5-1.5-6.5-1.2-1.1,0-2,.2-2.5,0-13.7-5.4-15.6-7-20.4-11.2-.3-1.6-.2-3-.8-4.7-2.5-5.7-11.3-7.7-11.3-7.7,2.2,2,4.4,4,6.3,6.2,1.9,2.3,2.3,4.9,3,7.7,1.3,4.1,8.1,10.4,7.9,10.2-1.3-2.2-2.4-4.4-3.4-6.6-.4-.9-.8-1.9-1.2-2.9,7.1,6.4,15,14.4,24,16.1.1.1.2-.4.3-1,.2-.8.7-1.6,1.7-.8l10.9,5.8c.3-3.1-8.2-3.5-7.5-6.3"/>
      <path id="path167" class="cls-1" d="M457,111.3l1.3-1.2c1.5-2.6,2.2-5.5,2.2-8.5.2-6.1-2.4-12-5.5-17.3-2.9-5-15.7-20.4-16.3-20.4h0c-.3,1.6,4,5.2,4.9,6.2,3.6,4.8,6.5,10.1,8.7,15.5,2.1,5,3.5,10.4,3.7,15.9-3.3-5.8-8.1-10.9-12.3-15.7-.4-.5-2-.3-1.1.8,5.7,7.4,9.8,13.3,12.9,21.1h0s-.4,1.9-.4,1.9l2.1,1.6h0ZM455.3,109.4h0c0,0-.2.1-.2.1h.2"/>
      <path id="path169" class="cls-1" d="M435.3,111c.9-.5.5-3.6,0-3.5v-.2c-6-1.9-11.8-4.2-16.7-8-1.2-1-2.3-2.1-3.3-3.2l-1.3-1.6h-1.6c0,.1,0,.3,0,.3h0c4.6,6.1,10,11.7,17.1,14.9,1.2.6,4.4,2.2,5.8,1.3h0ZM435,107.3h-.2.2"/>
      <path id="path171" class="cls-1" d="M420.8,110.1l5-.2c-4.8-2.4-13.3-7.4-16.2-11.2-.1-.1.8,4.7,11.2,11.4"/>
      <path id="path173" class="cls-1" d="M438.8,106.2h0c1,.3,2.2.4,3.3.4,1.2.2,2.3.9,3.5,1.1,1,.1,1-2,1-2.1-.3-.3-4.1-3.1-7.2-2.5,0,0-9.6-1.7-12.9-5.3h-.5c-.4.9.5,2,1,2.6,2.9,3.2,7.7,4.6,11.7,5.8h0Z"/>
      <path id="path175" class="cls-1" d="M412.1,67.2l-2.1,1.2c1.9,1.1,4.1,1.6,6.2,1.6s1.4,0,2-.1l2.1-1.3c-.6.1-1.3.2-2,.2-2.2,0-4.4-.6-6.2-1.6"/>
      <path id="path177" class="cls-1" d="M416.6,71.4l-2.2,1.3c4.4,1,9.5,1.3,13-2-.6.5-7.8,1.5-10.8.7"/>
      <path id="path179" class="cls-1" d="M428,77.8c-.2,0-1.8,2.9-3.4,2.3l-1.2,2.3c3,.9,4.8-1,6.9-4.7h-2.2"/>
      <path id="path181" class="cls-1" d="M424.1,85l1,.6c3,.1,6.1-1.7,8.4.2.2.2,1.5.2,1-1.6-3.9-4.7-4.2-1.9-8.2-.5l-2.1,1.3"/>
      <path id="path183" class="cls-1" d="M454.6,142.4c2.5.2,4.6,2.6,6.7,4.3l.7-1.6c-.8-1.9-1.7-5.9-4.2-6.1-2-.2-3.2,3.4-3.2,3.4"/>
      <path id="path185" class="cls-1" d="M460,117.7c0,3.8-.5,7.6-2.7,10.8l-4.1,3.1c6.9-1.5,9.8-9,9.8-15,0,.4-2.9-1.5-2.9,1.1"/>
      <path id="path187" class="cls-1" d="M465.3,111.5c1.7-3.9,3.9-9.4,4.3-13.6l-2.2,1.3c-6.3,15.6-2.1,12.3-2.1,12.3"/>
      <path id="path189" class="cls-1" d="M350.8,588.7l4.3-2.6c-3.4-.2-10.9,2.4-14.1,5.6,1-1.1,7.7-3.2,9.8-3"/>
      <path id="path191" class="cls-1" d="M365.4,584.3c2,0,4.1-.4,5.9-1.2,1.5-.7,8.4-5.3,9.1-6.6l-4.1,2c-1,1.8-5.7,3.3-6.7,3.3l-4.3,2.5"/>
      <path id="path193" class="cls-1" d="M376.1,585.5c1.5.2,3.2,0,4.7-.5,1.2-.3,5.9-3.1,6.8-4.2-.4.5-5.3,2.4-7.2,2.2l-4.3,2.5"/>
      <path id="path195" class="cls-1" d="M126.6,236.3c33.9-23.8,70.3-44.6,109.5-58.7,8.5-3,17-6.4,25.3-10.3,5.1-2.4,22.3-12.2,25.1-15.2-1,1-30.7,16.5-54.6,25.2-27.5,9.9-52.8,25.4-77.5,40.5-12.3,7.5-24.5,15.2-36.3,23.5,2.7-1.9,5.8-3.1,8.5-5"/>
      <path id="path197" class="cls-1" d="M279.1,149.7c-40.4,13.9-79.1,33.7-115.4,55.7-13.9,8.5-27.4,17.6-40.3,27.7,2.6-2,6-3,8.6-4.9,25.6-20.1,53.8-36.4,83.3-50.4,17.1-8.1,34.6-15.6,52.3-22.1,1-.3,2-.7,2.9-1,3.1-1.1,5.5-4,8.6-5"/>
      <path id="path199" class="cls-1" d="M254.3,204.7c-.5.6-8.2,4.7-10.8,6.1-1.7,1-12.7,6.1-19.9,8.5-11,3.7-21.1,8.7-31.4,14-17.2,8.7-33.8,18.5-50.1,28.6-8,4.9-15.8,9.9-23.5,15.2-.7.4,5.1-2.7,8.7-4.7,3.5-2.1,7.3-4,10.6-6.3,5-3.5,34.3-21.1,37.8-22.8,9.7-4.8,19.7-8.8,29.9-12.3,19.1-6.6,47.5-24.9,48.8-26.3"/>
      <path id="path201" class="cls-1" d="M234.5,204.8c-13.9,4.8-27.3,10.7-40.6,17-14.8,7-29.1,15-43.2,23.3-15.5,9-30.7,18.3-44.8,29.4.8-.6,18.2-10,21.4-12.4,5.4-4.3,11-8.4,16.8-12.2,2.7-1.9,25.8-14.4,36.5-19.2,10.6-4.8,21.4-9.4,32.6-13.3,3.6-1.3,20.3-12.1,21.3-12.5"/>
      <path id="path203" class="cls-1" d="M112.4,526.5v-.4c-1-5.3-8.1-14.8-8.3-15.3l-4.1-6.2-3.1,2.2c-2.1,1.2-4.9,1.5-7.1,2-5.3,1.1-24.4,2.7-28.6,3-2.5.2-4.8.4-7.3-.4-1.3-.4-2.1-2.1-3.5-1.7-.9.3-.8,1-.5,1.6,0,0,4.2,4.6,5.2,9.9.2.3,6.8-4.8,12.4-1.9,1,2,6.9,12.2,6.5,15.2-1.2,2.6-6.7,6.7-6.7,6.8l.2,1.1h0c0-.1,4.6,8.1,4.6,8.1.2.4,2,3,2.6-.5.5-2.6,3.5-8.8,5.5-10.7,1.9-1.7,3.7-3.5,5.5-5.3l2.1,2.1c1.7,2.1,3.4,3.6,1.7,7.8-1.9,4.5-7.6,11.8-8.7,15-.7,1.8,3.5,7.6,3.5,7.6,1.2,1.1,1.5,0,2.2-1.4,3.2-7.4,9.5-15.3,9-19.6l.4-4.7c2.6.5,8.3.1,10.1-.6,5.3-2.4,7.1-8.1,6.1-13.6h0ZM73.8,518l3.7-.8c3.6-.5,10.7-1.3,10.6-.4-.8,2.3-4.3,6.8-4.7,7.1-1.8,1.1-2.9,3.2-4.8,4.4l-4.9-10.3ZM98.4,532.9c-3.3,1.5-8-.2-9.9-2.9,2.9-2.7,11.5-15.8,12.6-14.3,1,1.4,3.8,4.2,3.9,6.9-.3,3.7-3.8,8.9-6.7,10.3"/>
      <path id="path205" class="cls-1" d="M122.9,559.7l4.1,3.6s3.2-2.5,4.5-4.9c.4-1.2,3.6-7.4-3.5-11.4,0,0-7-7.5-18.6,1.6,0,0-20.1,12.9-16.8,26.9,0,0,4.7,13.3,17.1,11.8,0,0,4.8.1,6.8-3.8,0,0,.6-2.2,2.7,1,0,0,2.6,1.8,0,4.1,0,0-3.1,5.1-7.4,5.5,0,0-3.3,0-.9,3.3l5.5,6s3.1,2.7,3.9-.8c0,0,8.6-11.7,23.1-23.1,0,0,4.5-5.7,4.9-1.3,0,0,.7,7.7,3.6,4,0,0,2-3.2,3.8-4.3,0,0,3.4-.2-.2-3.4l-15.1-14.9s-1.5-3.9-4.8-.2l-2.4,2.5s-3.1,2.7,1.3,3.2c0,0,3.9.3,5.2,4.4l-13.9,13.4s-1.4,2.7-3.4-.3l-7.3-8.9s-2.8-3.8-3.9.9c0,0-.6,5.4-7.6,7,0,0-3.8.7-5.9-4.4,0,0-1.2-2.6,4.5-8.4l16.4-15.6s3-3.5,6.3-1.4c0,0,2.9,2.9-2,7.8"/>
      <path id="path207" class="cls-1" d="M130,609.8s-3.7,3.1-.8,5.5l3.6,3.6s2.4,2.6,3.5-.9c0,0,.3-2.4,3.2-5.5l11.5-11.4s1.2-2,1.4.6l-5.7,23.4s-1.5,6.5,3.3,4.8l23.1-15.3s2.7-2.5,1.7,1.8l-9.9,22.9s-1.6,2.4.9,4.2l3.2,2.4s3.3,2.4,3.9-.7l14.6-38.5s2.5-5.5-2.4-7.6c0,0-2.5-1-6.8,2.1l-16.2,11.1s-2.6.5-2.3-2.4c0,0,3.4-11,4-13.4,0,0,3.6-11.1.8-13.2,0,0-3-4.2-5.8-.9l-28.8,27.3"/>
      <path id="path209" class="cls-1" d="M199.1,609.4s-3.8-3.6-5.2,1.2l-11.3,39s-2.5,3.5,1.2,5c0,0,2.7,1,2.8,2.1,0,0,3.8,1.3,5.6-1.2l30-29.9s3.3-2.5-.7-4.2l-3.7-1.8s-3.8-2.4-5.7,2.1c0,0-.2,3.1-5.3,7.4l-9,7.9s-2,1.4-1.4-1.2l6-18.8s3.3-4.9-3.2-7.7"/>
      <path id="path211" class="cls-1" d="M231.2,626s-3.6-2.8-6,1.9l-17.6,34.1s-4.5,4.1-.7,5.1l3.5,1.8s2.6,2,4.4-1.1l17.1-34.5s3.4-4.7.8-6.5c-2.8-1.8-1.5-.8-1.5-.8"/>
      <path id="path213" class="cls-1" d="M293.7,666.1s3.8-6.8-1.9-6.3c0,0-6.7-1.9-7.6,5.6,0,0,.2,3.5,1.1,5.9l2.1,20.7s-.2,3,2.6,3.4c0,0,2.9,1.2,5.6-2.7l21.1-32.2s3.3-2.8-1.3-4c0,0-4.6-2.4-6.2.1l-14.5,20.7s-2,3.5-1-11.1"/>
      <path id="path215" class="cls-1" d="M338.9,666.9s-1,3.7-3.9.9c0,0-4-4.3-6.4.5,0,0-2.7,1.6,7.6,11.3,0,0,9.9,9.6-2.2,20.4,0,0-7.2,7.4-23.8-2.5,0,0-4.2-1.2-2.4-5.1l2.6-3.9s2.2-4.3,5.4.3c0,0,1.2,6.5,9.6,6.2,0,0,9.5-1.6-1.3-15.3,0,0-9.9-15.1,2.9-19,0,0,7-1.3,11.4,1.7,0,0,2.5.8.5,4.5"/>
      <path id="path217" class="cls-1" d="M286.4,647.3s-2.7-.2-9.1-2.7c0,0-6.5-4.2-9.4-.7,0,0-4.5,6.6-.1,6.7,0,0,3.5-1.7,5-1.1,0,0,1.7-1,.7,3.2l-10.3,27.2s-.9,4.9-6.2.3c0,0-2.1-1.9-2.6-8.8,0,0,0-6.7-2.2-9.5,0,0,4.7-1.1,8-5.6,0,0,4.1-6,1.9-13.1,0,0-1.7-4.6-6.9-6.4l-11.7-5.2s-5.5-2.5-4.3,2.6c0,0,.2,3.9-1.8,7.5l-13.9,28.2s-2.8,3.9,1.2,5.1l5.4,2.5s3,2.4,3.8-1.2c0,0,1.2-6.5,3.4-10.4l3.1-7s6.6,1.2,7.4,12.3c0,0-1.2,14,8.7,16.3,0,0,11.3,4.2,15-5.4l9.8-26.4s-.2-3.7,2.3-3.1c0,0,1-.6,2.7,1,0,0,3.7,1.8,3.7-2.3,0,0,1-3.7-3.4-4.2h0ZM244.4,655.9c-4.1.1-1.9-3.4-1.9-3.4l5.7-11.7c.7-3.3,2.7-1.4,2.7-1.4l3.3,2.4c3.1,3.5-1.9,12-1.9,12-1.5,3.3-7.9,2.1-7.9,2.1"/>
      <path id="path219" class="cls-1" d="M381.2,698.1s-5,1.1-10-10.3c0,0-1.7-3.8-4.8-6,0,0,7-1.7,6.7-11.9,0,0,1-7.8-9.1-9.6l-12.8-.7-3.9,1.3.7,1-1.5,32.7s.5,2.9-.5,4.3c0,0-3.1,4.2,1.7,4.3l5.1.2s4.3.9,3.9-3.1l-.2-15.4s4.5-4.2,8.2,6.4c0,0,6.2,16,17.9,10.1,0,0,3.5-2.2-1.4-3.2h0ZM364.2,671.5c.3,4.9-3.8,6.5-3.8,6.5-4.2,2.3-3.8-1.6-3.8-1.6v-11c-.3-2.8,4.4-1.7,4.4-1.7,4.4,0,3.2,7.7,3.2,7.7"/>
      <path id="path221" class="cls-1" d="M390.6,663.6s-16.5-1.6-15.1,17.4c1.5,19.1,19.5,15.2,19.5,15.2,0,0,9.8-3.4,9.3-18.4-.4-12.6-13.7-14.2-13.7-14.2ZM389.8,691.1s-5.6,1.7-6.2-11.7c-.6-13.1,6-11.3,6-11.3,0,0,6.9.9,6.9,10.2-.2,14-6.7,12.7-6.7,12.7"/>
      <path id="path223" class="cls-1" d="M440.1,678.6s-1.5-6.5-8-8.3c0,0-2.2-.3-.8-2.6,0,0,6.6-13.1-6.5-18,0,0-14.2,2.8-16.6.6,0,0-1,1.7-2.8,1.9,0,0-3.8.6-.6,5.1,0,0,1.9.5,4,17.8,0,0,2.1,13.6,1.9,17.9,0,0-2.7,6.5,2.2,5.7,0,0,1.7-.9,8.9-1.5,0,0,10.6-2.6,12.1-3.4,0,0,8.5-2.2,6.2-15.1ZM416.2,668.6l-.9-7.1c-1.8-8.1,3.1-7.4,3.1-7.4,6.9-2.3,6.5,7.6,6.5,7.6.9,8.9-5.1,8.6-5.1,8.6-5,1.9-3.6-1.8-3.6-1.8ZM431.3,684.4c-.4,9-8.6,8.7-8.6,8.7-3.6.6-3.4-2.2-3.4-2.2,0-3.9-1.9-12.4-1.9-12.4-1.1-5.3,8.5-4.4,8.5-4.4,0,0,5.8.5,5.3,10.3"/>
      <path id="path225" class="cls-1" d="M493.3,670.3s-2.9-.7-7.5-7.3c0,0-5.3-6.4-9-6.8,0,0,7.2-6.8,5-13.9,0,0-.5-10.7-14.2-7.7l-9.3,2.6s-2.7-.4-1.4,4.9c0,0,2.8,25.4,1.4,31.9,0,0-5.7-8.9-7.6-11.1,0,0-8.3-12.8-7.7-15.4,0,0,1.5-6.5-2.2-3.9,0,0-5.3,2.9-7.4,2.8,0,0-4.3-.6,1.5,4.7,0,0,2.9,1.2,9.1,11.7l13.1,20.8s2.6,4.6,6,2.4c0,0,3.3-.4,3.7-4.3l-.3-19.9s.3-5.3,6.2-1.1c0,0,1.4,1,7.5,8.8,0,0,5.7,8.9,13.4,5.1,0,0,3.9-2.3-.5-4.3h0ZM469.6,654.8c-3.4,2.6-2.9-.7-2.9-.7l-.6-11.6c-.7-4.8,3.5-3.7,3.5-3.7,4.4-.5,5.1,7.8,5.1,7.8.5,5.7-5.1,8.2-5.1,8.2"/>
      <path id="path227" class="cls-1" d="M491.9,631s-1.4-2.9-4.5-.2l-2.1,3.7s-1.2,3.9-3.7.2l-1.5-3.6s-1.7-2.7,3.1-3.5c0,0,14.2-6.7,15.9-7.9,0,0,2.5-3.1,4.8.4,0,0,4.1,3.2-.2,4.8,0,0-7-.7-4.8,2.8l14.9,29.5s5.7,3.5,2.7,6l-12.5,6.6s-4.3,2.5-5.4-.7c0,0-2-4.9,2.6-5.8l4-1s2.4,0,.3-4.9l-4-7.7s-.5-2.8-3.5-.3c0,0-5.4,4.9-7.4,2.1,0,0-4.2-3.2.5-6.1l4.5-3s2.4-.4.2-3.8c0,0-4.3-6.9-3.9-7.7"/>
      <path id="path229" class="cls-1" d="M530.3,614.8s.3,5.3,4.4,1.6c0,0,3-3.5,0-7.3,0,0-2.8-7.9-16.2-2-10.3,4.3-6,15.7-6,15.7,0,0,.7,8.1,17.9,8.7,0,0,13-.6,8.1,10.5,0,0-3,4.9-10.3,1.8,0,0-7.7-3.9-7.4,4.9,0,0,.6,4.7,12.7,4.5,0,0,17.4-1.8,14.2-18.4,0,0-.8-11-20-11.6,0,0-11.8,0-7.4-8,0,0,8.2-6.8,9.9-.4"/>
      <path id="path231" class="cls-1" d="M544.2,599.6s-.9-2.4-3.1-.1c0,0-2.5,2.9-2.8,4.1,0,0-1.5,3.7-3.6.7l-1.6-3.4s-1.5-2.2,2.2-4.7l14.6-11.6s2.5-3.1,5,.5c0,0,3.5,2.6-.2,5.2,0,0-4.5,1-5.3,2.7,0,0-1.8,1.1.3,2.9l16.9,23.1s1.9,2.5,5.2,3.8c3.3,1.4,1,3.2,0,4.8l-3.3,2.7s-4.1,3.5-5.5-1.2c0,0-1.4-5.7-3.8-8l-15.1-21.4"/>
      <path id="path233" class="cls-1" d="M565.2,593.3s-3.6-2.2-5.3.9c0,0-5,3.9,1.9,6.4l23.8,10.7s1.5,2.2,3.9.1l2.9-2.3s2-1.1.4-5.7l-13.4-32.3s-1.9-3-1.9-8.5c0,0-.3-5.3-3.6-1.2l-4.9,4.5s-3.9,4.6.3,5.7c0,0,2.4-1.1,4.2,4.4l11.1,25.1s1,1.6-1.3,1.2l-18.1-9.1"/>
      <path id="path235" class="cls-1" d="M619.7,560.7s-13.5-15.7-23.6-15.5c0,0-7.9-.9-13.2,6.2,0,0-1.8,3.8-3.2,3.5,0,0-3.9,3.3,1.5,5.7,0,0,6.2,2.2,23.1,22.3,0,0,1.4.1,2.4,5.6,0,0,1.1,7.2,5.7,1.8l10.5-12.8s5.2-9-3.1-16.8ZM613.3,579.3l-22.2-20.6c-5.7-2.6-1.6-6.5-1.6-6.5,3.9-3.7,10.6,1.7,10.6,1.7,7.5,4.4,14.7,13.8,14.7,13.8,4.2,6.3-1.5,11.6-1.5,11.6"/>
      <path id="path237" class="cls-1" d="M598.1,531.7s-3.4,3.5,2,5.3l31,22.4s2.5,3.6,4.6,1l2.4-2.5s2.6-3.3-1.1-4.8c0,0-2.7-.4-9.2-4.8,0,0-17.6-13.8-21-15.6,0,0-4.8-7-8.7-.9"/>
      <path id="path239" class="cls-1" d="M634.8,486.6s-8.2-4.1-9.5-.3c0,0-2.5,2.9,2.5,6.7l7.2,7s3.1,2.8-1.6,2l-9.4-2.5s-4.2-2.4-5.9,2.1c0,0-3,2.5,2.6,7.7,0,0,19.1,18.2,19.5,20.8,0,0-5.8-1.5-26.9-10.4,0,0-4.6-5.4-7.4.9,0,0-3.2,4.1,3.2,6l35.6,12.8s4.6,1.3,6-1.7c0,0,3.2-3.1-.5-7.1l-19.5-21.5s-1.9-1.6,1.2-1.5l17.6,4.9s4.5-.1,1.8-3.3l-14.5-14.9s28,4.9,28.3,9.2c0,0,3.3,3.6,4.3-1.1l1.4-3.1s3-4.9-3.4-4.8"/>
      <path id="path241" class="cls-1" d="M305.8,39.5c0,3.6-3.3,6.7-7,6.6-4.1.1-7.3-2.9-7.2-6.5-.3-3.4,2.9-7,7.1-7,3.9.4,7.2,2.9,7.2,6.9"/>
      <path id="path243" class="cls-1" d="M413.9,36.3c0,3.5-3.2,6.6-7,6.7-4.1,0-7.3-3-7.2-6.5-.3-3.5,2.9-7,7.1-7,3.8.4,7.2,3,7.1,6.9"/>
      <path id="path245" class="cls-1" d="M644.6,197.1c0,3.5-3.3,6.6-7,6.7-4.2.1-7.3-3-7.2-6.6-.3-3.4,2.9-6.9,7-6.9,3.9.4,7.2,2.9,7.2,6.8"/>
      <path id="path247" class="cls-1" d="M701.7,406.2l-2.2,1.2c3.1,19-2.7,38-11.7,54.6-2.3,4.2-4.8,8.3-7.6,12.1l-.5.6.7,2.6c0,.9-.2,1.9-.2,2.9-.5,2.8-1.8,5.5-3.3,7.9l2.1-1.3c1.4-2.2,2.4-4.6,3.1-7.2.6-1.9.6-3.8,0-5.6v-1c2.9-3.9,5.5-8.1,7.9-12.2,8.9-16.5,14.8-35.7,11.7-54.6"/>
      <path id="path249" class="cls-1" d="M638.7,425.2v.2c0,0,0-.2,0-.2"/>
      <path id="path251" class="cls-1" d="M632.3,469c-.7-1.7-2.7-1.3-2.1,1.2-.2,9,7.4,10.9,8,11.4,2.1,1.6,7.8,0,11.1,3.6l1-1.2-4.9-5.3v2.5c.4.7-3.2-3.2-5.7-3.3-1.2-.1-3,0-3.9-.8l-3.4-8.1"/>
      <path id="path253" class="cls-1" d="M638.4,464.2c.7,1,1.7,2,2.4,3.2.3.5.5,1,.7,1.5-.3-1.1-.7-2-1.2-2.9-.3-.5-1-1.2-1.9-1.8M636.4,452.2h0c0,0,0,0,0,0M636.7,451.4s0,.1,0,.2c0,0,0-.1,0-.2"/>
      <path id="path255" class="cls-1" d="M641.5,468.9c.9,2.6,1.1,5.7.4,7.9h0c.8-2.7.7-5.4-.4-7.9M636.4,452.2c-.8,3.3-.5,6-2.1,9.2,0,0,2.2,1.4,4,2.7-.2-.3-.4-.6-.6-1-1.9-3.4-2.2-7.3-1.4-11M636.6,451.6c0,.2-.1.4-.2.6,0-.2.1-.4.2-.6M639,449.4l-2.1,1.2c0,.2-.2.5-.2.7,0-.2.2-.5.2-.7l2.1-1.2h0"/>
      <path id="path257" class="cls-1" d="M639,449.4l-2.1,1.2c0,.2-.2.5-.2.7,0,0,0,.1,0,.2,0,.2-.1.4-.2.6h0c-.9,3.8-.5,7.7,1.4,11,.2.3.4.6.6,1,.9.7,1.6,1.3,1.9,1.8.5.8.9,1.8,1.2,2.9,1.1,2.5,1.2,5.3.4,7.9l2.2-1.3c.3-1.1.5-2.1.5-3.2,0-3.6-1.9-6.8-4.2-9.8-1.7-2-2.4-4.6-2.4-7.3,0-2,.3-4.1,1-5.9"/>
      <path id="path259" class="cls-1" d="M649.3,459.9l-2.1,1.2c-.7,2.5-1.4,5.1-2,7.6l2-1.3c.7-2.6,1.4-5.1,2.1-7.6"/>
      <path id="path261" class="cls-1" d="M650.4,448.5c-1.2-7.2,3.6-17.7,6.9-22.9-.4.6-8,10.7-9.2,16.7-.4,1.8-.4,5.6.2,7.5l2.1-1.2"/>
      <path id="path263" class="cls-1" d="M642.9,432.5h0c0,.1,0,0,0,0M652.9,419.3l-2.1,1.3c-3.9,3.2-7.5,11.1-7.9,12,2.6-4.7,5.7-9.8,10-13.2"/>
      <path id="path265" class="cls-1" d="M650.7,452.2l-2.1,1.3c-1.5,1.1-2.6,2.8-2.7,4.7l1.1-.6,1-.6c.2-1.8,1.2-3.6,2.8-4.7"/>
      <path id="path267" class="cls-1" d="M72.2,437.3c1.4,5.7,4,13.6-4.5,18,0,0,1.9.9,1.4,3.3,0,.3,0,1.8,2.6,3.2,0,0,0-4.9,1.7-6.2,6.7-4.9,2.1-17.6.7-18.8-1.9-1.8-1.9.1-1.8.4"/>
      <path id="path269" class="cls-1" d="M106.1,454.8c-.9,0-6.2-2.1-5.8,3.4l3.8-.6,1.6-1.4.4-1.5"/>
      <path id="path271" class="cls-1" d="M95.9,467.5l1.9.9c.2,0,.2-4.6.3-6h-1.4c0-.1-.8,1.3-.8,1.3,0,0-1.5,2.8,0,3.9"/>
      <path id="path273" class="cls-1" d="M85.1,476.8l2.9-2.3c-.3.1,2.1,1.2,3.3,1,1-.1,3.7-4.3,4.9-5.7l-2.2,1.2s-8.9-1.4-8.9,5.8"/>
      <path id="path275" class="cls-1" d="M114.5,447.5c-1.2-.1-3.1-.5-4.2,0-1.5.5-2.7,2.2-3.6,3.6,1.5.5,5.1-1.6,3.3-.7,4.2-1.3,4.2-2.8,4.5-2.8"/>
      <path id="path277" class="cls-1" d="M112,434.5c-.8.3-1.1-1.2-3.1.2-1.8,1.3-.7,1.8-1.5,2.2,1.6.3,2.7,0,3.8-.5l.9-1.8"/>
      <path id="path279" class="cls-1" d="M94.7,420.8c-2.2,2.5-8.3.7-9.4,1.4-2,1.1-4,3.8-4.6,6.2l2.1-.4c.5-1.1,2.3-4.3,3.9-4.1,8.7,1.1,9.6-2.6,10.1-4.4l-2.2,1.3"/>
      <path id="path281" class="cls-1" d="M112.9,412.3c-.2,1.4-.3,2.8-.5,4.1l1.1-.6,1-.6c.2-1.4.3-2.8.5-4.1l-1.1.6-1.1.7"/>
      <path id="path283" class="cls-1" d="M116.5,423.8c.7,1.6-.8,3.3-2,4.2l2.2-1.3c1.2-.9,2.6-2.6,1.9-4.2l-2.1,1.2"/>
      <path id="path285" class="cls-1" d="M712.8,353.1h-2.4c0,1.7,0,3.3,0,4.9,0,192.8-154.9,350.2-348,352.6-1.5,0-3.1,0-4.7,0-192.6,0-350.2-155-352.8-348.5,0-1.6,0-3.2,0-4.8C4.8,164.4,159.7,7.1,352.8,4.6c1.5,0,3.1,0,4.6,0,192.6,0,350.2,155,353,348.5h2.4s2.4,0,2.4,0C712.4,157.1,552.8,0,357.4,0s-3.1,0-4.6,0C156.8,2.6,0,162.1,0,357.3s0,3.3,0,4.9c2.7,195.8,162.3,353,357.6,353,1.6,0,3.2,0,4.8,0,196-2.5,352.8-162.1,352.8-357.2s0-3.3,0-4.9h-2.4"/>
      <path id="path287" class="cls-1" d="M45,459.3h0c0,.1,0,0,0,0"/>
      <path id="path289" class="cls-1" d="M712.6,393.4c-3.1,6.5-13.8,12.6-20.1,14.4-5.8,1.6-11.1,3.6-17,4.4-13.4,1.9-23.2,4.8-34,13,.4-.3-.9,0-1.8.1,1.9-7.8,3.5-15.6,4.6-23.5,4.7-31.3,4.1-63.4-1.6-94.7,0-.3-12.2-55.8-27.9-82.5-24.5-41.8-50.6-80.1-97.6-109.8-1.6-1,69.2,52.2,103.8,129.2-1.1-1.3-11.2-9.5-19.5-2.6-1.2,1-4.4,8.4,1.5,12.2l1.5.4h0c-.5,1.7-.3,3.3,1.1,4.2v.2c-4.5,5.8-8.2,12.7-10,19.7-1.1,4.3-1.1,9.2,2.4,12.4,3.6,3.4,15.6,4.6,15.6,4.5,0,.3,5.3,53.2,5.3,74.5l-23.4,19.7c-.9-1.6-.6-12.6-.6-17.4,0-27-2.1-53.9-9.3-80.1-2.8-10.6-7.5-21.6-12.9-31.2,0,0,8.5,23.6,11.5,35.1,6.8,26.1,8.5,52.8,8.5,79.6,0,5,.5,10.7.5,15.8s.1,1.8,1.1,1.3c1.2-.5,24.5-21.1,24.9-21.2.9,2.9,2.1,5.1,5.3,5.6,2,.2,4.6-.2,6.5-.6,3.5-.8,7.7-1.7,11.8,1.1,0,.9-.1,1.7-.2,2.6-3.4-1.3-8.1,2.2-9.2,1.7,4.4,2.5,6.5-1.2,9,.4-.2,1.7-.3,3.4-.5,5.1-1.5-1.2-3.1-2.5-3.1-2.5,0,0,1.5,3.3,2.9,4.8-.3,2-.6,3.8-.8,5.8-.3-.3-5-2.4-5.6-5.6l-1.9-.2c-1.6,1.7,3.9,6.4,7.3,7-.5,3.4-.8,5.8-1.3,8.8-3.6,1.1-9.3,2.4-10.5.9.9-.3,4.5-3,3.7-2.9-2.5.4-6.9-2.8-6.9-2.8,0,1.4.6,2.8.8,4.1-2.4-.5-7.9-.6-8.5-.7-1.4,0-3.9.9-4.8,2-3.6,4.3-16.6,17.5-18.1,17.9-.9-1-.5-2.5-.1-3.6,3.8-11-1.1-16.9-1.1-16.8.5,6.6-1.5,12.9-5.8,27.9-1.2,4.3,10.8-3.1,14.2-7,12.2-13.8,15.5-10.9,15.6-11.1-1.4,14.7-4.6,29.3-8.5,43.6-1.8,7-3.5,14.2-5.9,20.9-.8,2.1-1.7,4.1-1.7,6.4-.2,5.5,7.3,3.7,11.6,2.1-16.3,32.5-39.1,61.5-67.1,86.1s-12.9,10.9-19.4,15.9c-7.4-3.9.5-24.8,2.7-30,5.3-13.6,12.6-26.5,19-39.7,3.2-6.5,5.8-13.4,9.3-19.7,8.1-15.1,8.3-19,8.2-19.1,2.3-.2,5.1-1.2,7.1-2.8-.3,1.5-9.4,23-13.7,32.5-4.1,9.1-8.4,18.1-12.9,27-3.3,6.6-7.3,12.8-10.8,19.3-4.8,8.9-8.2,19.3-9.6,29.4,0-.5,1.7,2.1,2.2-1.2,2.2-17.2,13.5-30.5,21.1-45.7,9.1-17.9,17.8-37.2,23.9-56.3,1.2-3.6,2.4-7.4,2.5-11.3.1-1.8,1.4-2.5,2.6-3.9,2-2.3,4.1-5.2,3.8-8.3l-2.1,1.2c.2,2.7-1.4,5.2-3,7.3-.6.9-3.4,3.1-3.3,4.1,0,1.6,0,2.7-.3,4.3-.3.1-6.2,3.9-8.7,2.7-1.4-.7-1.9-2-3.2-2.7-3.9-2.3-10.1-.6-13.7,1.5-5.5,3.3-15.6,11.2-16.7,5.1,2.3.5,5.8-1.6,9.9-5,7.7-6.6,23.5-8.6,23.5-8.6.5-1.1,4.7-2.7,4.7-2.7-5-.5-19.7,3.2-34.1,13,4.9-4.5,6.8-7.9,8.9-12.8-.6.4,15.5-9,21.6-15,3.8-3.6,3.2-.2,5.5-4.9,7.2-14.6,10.8-35.9,12.6-52.1,2.2-21.1,2.3-42.9-1.2-63.9-3.8-23.2-9.5-46.9-20.1-68.2.9-.4,1.8-.9,2.7-1.4,1.2-.7,1.6-3.5-.5-2.7-14.3,5.8-39.4,7.1-45.3,6.4-3.6-.4-7-.6-9.6-3.3-1-1.1-7.7-15.4-7.1-18,34.3,3.3,48.3-8.5,50.7-15.2,1.5-4.2-10.4-23.8-12.2-26.4h0c-16.6-50.7,6.5-51.8,7.2-52-1.6.2-27.7-3.1-12.8,44.2-12.9-19.2-27.6-32-27.6-32,2.3,4.3,2.4,3.9,3.3,6.2-7-3.2-23.3-8.7-24-8.7-.9-1.8-1.8-3.6-2.7-5.5,16.4,7.3,20.2,1.9,21,1.7-4.2,1.2-20.1-4.5-23.9-7.9-2.2-5-6.4-14.8-6.8-14.7,3,8.5,5,18,9.1,25.9-1-.2-1.9-.4-2.7-.9-1.9-.8-7.2-7.1-9.1-8-1.1-.5,1.3,4.4.2,3.9-.5-.3-6.9-8.1-8.2-8.7-1.2-.5.5,5.2-.8,4.7-4.8-1.8-15.4-5.7-15.3-12.5,1.4-.4,2.8-5.5,3.7-8.2,3.5-1.9,6.5-11,6.7-13l-1-.4s-2.4,4.1-3.7,5.1c.2-1.8.2-3.6-.6-5-1.6-2.3-12.9-5.5-14.2-5.8h-2.8c-.3-.1,7.1,2.6,10.5,4.3,6.1,3,3,12.1,2.9,12.6-1.6-2.4-3.9-4.5-6.2-5.9-1.6-1-3.5-2.6-5.2-3.3-.9-.4-1.2.9-1.3.8,1.9,1.5,5.9,5.3,6.3,5.6,2.1,2.1,3.9,4.5,4.6,6.6,0,0-.5,2.9-1.1,4.3-1.6-3-3.5-5.8-5.7-8.3-1.4-1.6-7.2-6.9-15.7-10.4-9.4-3.8-21.1-16-24.1-20.9,4.8,8,10.6,16.9,19.1,20.8,4.8,2.2,11.9,5.9,11.8,6-2,7.1-10.4,12.3-13.3,11.5,4.1,1.1,8.4-.5,11.2-2.7,2.2-1.7,4-4.1,5.4-6.6,5,4.2,10.1,13.5,10.3,13.5-.6,2.4,2.8,7.1,4.3,8.5,7,6.3,16.8,9.5,25.6,12.4,6.8,2.3,31.7,10,36.9,12.5.3.6,19.5,24.4,26.1,37.7,1.8,3.6,8.7,21.9,8.4,22.3-12,11.1-42.4,10.9-42.4,10.9,0,0-3.5-7.1-5.7-6,0,0-5.7-8.9-6.6-7.4,0,0,6,11.5,4.6,22.8,0,0,1,6.5,2.4,3.8,0,0,.1-6.6,3.1-2.9,1,2.1,3.1,7.1,3.2,7.7.5,3.1,6.7,6.5,6.8,6.5,1.9,8.1,5.3,16.2,9.8,23.7,1.3,3.8,10.1,21.3,12.5,26.7,2.4,5.3,2.7,11.3,3.7,16.9,1.5,9.2,6.8,58.4,6.8,58.4-.3,12.8-1.8,25.9-5.4,38.2-1.8,6.1-9.2,22-30.9,27-3.4.8-7.1.4-10.7.6,7.1-4.6,12.9-11,15.2-19.3-.2.6-12.6,17.2-22.5,19.5,3.6-3,7.9-7.6,13.7-15.9,1.8-2.7,3.3-5.9,4.8-8.7,2.9-5.1,1.5-14.1,1.4-14.6,1.8,3,3.4,6.2,3.8,9.4,0-.3,1.5,2.2,1.7-.5.3-5.5-4.3-12-7.6-16.1-3.1-3.7-6-7.7-9.4-11.3-6.4-6.8-15.3-11.9-24.7-13.6-1.5-.2-11-6.5-14.9-8.2-4.7-2-9.7-3.4-14.7-4-1.4-.2-2.2-.9-3.4-1.6-8.2-5-21.5-.2-21.5,0-4.9-3.4-20.7-10.9-20.7-11,1.5-6.5,4.7-12.7,7.8-18.7,3-5.7,11-18.7,11.6-19.7,0-.2-6.2-11.5-7.2-19.5,5.6-.6,11.1-3.3,15.8-6.8-.7.5-24.8,11.8-35.8-4.7l-3-1.7c-1-.8-1.6-1.9-2.1-3.1-.4-1.6.2-3.3.4-4.9.2-.7,3.6-16.2,4.1-20,1.3-7.7-4.2-15.6-10.4-19.8-.1-.2,6,6.2,8,14.1-9.3,1.4-17.6,7.5-26.1,10.8-10.9,4.4-16.5,8.2-26.9,11.5-6.7,2.2-35.6,9.6-57.8,3.3-.4-.1-7.3.6-12.2-3.7-2.6-2.4-2.7-6.4-2.7-9.8-.1-4.4,6.9-21.9,10.3-28.7,10.4-21.3,25.3-40.6,41.1-58.4,2.7-3,8.1-11.8,9.1-13.2,6.2-5.6,17.2-11.3,16.7-11,8.6-6,13.9-6.9,25.6-8.9,0,0,1.4,6.3,4.8,6.6,12.5.9,21.9,4.6,25.4,7h0c3.9,4.4,6.2,21.7,6.5,24.3,0,1-2.1,4.7-4.9-.4.5-1.7-1.3-14.7-7.1-21.1-1.1-1.1-4.6-2.9-8.8-4,4.6,1.8,8,5.8,9.2,8.3,2.1,3.9,4.3,8.7,5.1,15.8,0,.7-3.6,7.6-7.4-5.5-1.3-4.6-4.7-10.6-9.5-11.3-2.7-.3-10.7-3.1-24.8,4.2,4.5-2.4,27.8-9,31.1,6.5-3.8,1.4-8,1.6-11.8,1.7-5.7.2-11.1-1.1-17,0-4.2.9-8.7.7-12.1,7.5-4.2,8.3-8.6,16.6-12.4,25.1-1.3,2.9-2.3,5.6-3.3,8.6-1.6,4.5-8.8,17.4-10.1,19.6-3.3,5-6,10.3-9.8,14.9l1.9.4c5.4-6.6,11.6-17,11.6-17,7.5-3.5,20.2-11.7,25.5-18.1,11.8-14.1,24.8-23.4,41.1-34.6-.6.3,2.6,2.8,5.5,2.4l2.2-1.3c-.1,0,7.1,7.2,7.9-2.2.5-5.4-2.9-17.5-4.4-20.2,1.1,1.2,5.3,4.3,6.5,21.8,0,0,3.9,1.7,5.4,6.9-.1-.4,1.1-5.2-2.9-7.7-1.5-.9-1.4-2.6-1.3-4,.2-4.7-.8-9.4-3.1-13.5-3.8-6.8-10.5-11.5-17.8-13.6-2.6-.8-9.5-2-13.7-2.1-3.5-.1-4.5-2.8-4.5-6.1,0-1.5,2.4-2,2.1-3.7-.4-1.8-1.8-4.3-2.1-6.5h.1c1.4.3,2.7.7,4.1,1.1,1,.3,2.9,1.1,3.9.7.2,0,.5.4,1-.6.7-.9-2.7-2.4-4.2-2.8-1.5-.5-3.3-.4-4.6-1.6-1.7-1.5-1.1-4.9-.4-6.7l2.8,1.7c4.1,1.3,6.5-2.2,7-3.8-4.7,5.2-9.4.3-9.4.4-.1,0-1.1.2-2.5,1.7-5.5,1.3-4.5-4.3-3.9-6.5,1.7-5.7,4.5-11,6.3-16.7.8-2.6.3-5.7.3-8.5.2-7,6.3-19,7-20.3.7-1.1,2.2-1.5,2.4-1.6.7,0,4.1-.7,3.8-2.3l-7.7-.5-2.2,1.4h0c.9.1,2.1.4,3.3.8-1.4,1.3-6.7,12-7.7,15.4,0-4.1,1.9-13.6,1.8-14.6,0-1.2-.8-2.1-1-3.3-.5-1.9,1.6-3.1,3.2-4.2,8.7-5.8,19-9.5,29.4-10.9,28.6-3.9,50.1,6.2,56.5,10.9,10.2,7.6,15.3,19,16.4,31.1-2.6,5.5-5.3,13.4-7.6,18.8-8.7,20,3.8,24.5,3.8,24.6-5.3-3.6-3.6-17.4-1.6-24.9,1.4-5.4,3.3-10.7,5.6-15.8,0,.1-1,12.1-.4,18,.6,7.2.2,20.4,21.9,23.4,2.8.9-1.4-8-1.4-8-2.4-6.6-6.7-5.9-6.7-5.9-6.3-1.2-9.6-3.1-10.8-4-.6-2.5-.9-5-1.1-7.5,2.2-.6,10.2,3.1,10.2,3.1,7.9,3.5,3.9-5.3,3.9-5.3,0-6.3-4.6-4.7-4.6-4.7-3.8.2-7.8-2.8-9.3-3.9.2-2.9.2-5.8.1-8.7,1.9-.8,6.2,1.4,6.2,1.4,5.7,3.5,3.9-2.8,3.9-2.8-.3-4.1-5.9-4.4-5.9-4.4-2.5-.3-4.4-1.6-5.5-2.8-.5-1.9-1-3.6-1.7-5.4,5,2.9,10.1,2.3,12.9.7.2,0,6.8-3.5,12.7-17.4,1.4-3.2,6.5-13.7,6.6-14.9,0-1.3,5.2-.5,4.1-3.2-.2-1.1-6-3-6.7-3.5-3.4-1.8-4.4-.9-4.5-.8h.2c-1,1-.4,2.2-.1,3.9.5,2.5-6.5,19.6-10.3,25.3-1.7,2.6-3.6,4.8-6.9,4.3-2.9-.5-6.9-3-6-6.4,1.8-4.7,8.2-20.3,9.5-23.5,2.1-4.9,3.9-5.9,4-5.9h0c3.3-2.1-3.1-3.9-4.5-4.4-2.6-1.1-5-2.3-7.6-3.4-1.9-.9-3.9,0-3.9,0-1.2,1.1.2,3.1.3,4.6,0,1.3-3.9,11.5-5.5,15.2-1.7,4.2-5.2,13.4-5.4,13.9-2.5-2.1-5.3-4-8.3-5.6l.8-.7c2.5-4.2,1.1-10.8-2.4-13.9,7-2.1,9.5-11.4,5.5-17.3-3.9-5.9-11.5-6.2-17.8-7.6-2.5-.6-5-1.2-7.5-1.9-1.2-.3-4.6-1.4-5-.1h0c0,0,.2,2,.2,2,1.4,3.2,1.1,6.4.3,9.6-1.8,6.7-3.6,13.4-5.3,20-9.8-1.3-19.2-.2-28.2,2.4-.5-1.1.6-6.3.8-7.9.2-.9.8-3.3-.3-3.7-2-.9-5.7,4-6.9,5.2-2.3,2.7-5.1,4.5-8.6,5.5-1.5.5-5.5,1.8-5.5-1,0-1.6,0-12.5,0-16.4,3.6-.7,6.7,0,8.6,3.5.4.7,2.8.3,3.3-.5.6-1.1.6-8.2.1-10.3s-3.5.7-3.8.9c-2.1.8-6.9,1.2-8.3-.5,0-4,0-7.9,0-12,1.6-.2,3.6.1,4.9.2,3,.2,5.8,1.3,8.1,3.2,1.7,1.4,2.7,3.3,4.6,3,.1,0,2.5-.7,1.2-5.1-.5-1.6-1-4.2-2.3-5.4-.7-.7-16.8-1.4-20.1-1.6-3.1-.1-9.4-1.5-11.9,1.1-1,.9-.2,1.9.6,2.6,1.7,1.3,1.9,3.7,2.2,5.6.5,3.3.6,25.6.5,26.6,0,1.9-1.5,7.5-2.7,11.5-.6,1.8,20.1.4,23.9-.2-3.1,1.4-6.1,2.9-9,4.6-2.9,1.7-8.1,3.8-7.8,8.4,0,1.8,1.4,3.1,1.1,5-.4,2.5-1.3,4.9-1.5,7.4-.4,3.7-.3,7.6.3,11.3-.5,3,0,5.7-.2,8.8-.2,2-4.1,10.1-4.8,12.3-1,3.1-3.8,7.4-1.5,10.4,2.1,2.7,6.4,1.7,6.5,1.6,0,0-3.4,6,.3,8.1-1,2.1-1.7,6.9-.7,8.9-5.2.9-10.9,1.7-15.9,3.4-4.8,1.7-9.7,4.9-14,7.7-.8.5-11.5,4.5-20.9,21.2-.6,1-5.9,7-7.6,9.1-17.3,20.3-33.2,43-42.6,68-2.4,6.5-6.7,17.8-2.1,23.9-16.1-.6-32.2-1.2-48.4-1.5-8.6-.2-17.3-.3-26-.2-5.4.1-11.3,2.4-11.3,2.4,8.1-.9,16.3-.5,24.5-.5,8.8.1,56.9,1.5,58.9,1.8,2.4.3,4.4.1,4.5,0,3.6,3.2,8.7,2.2,13.1,3.4,8.7,2.4,18.7,2.9,27.8,2.3,9.3-.5,17-1.2,23.4-1.8,15.4.3,31.4,1.3,44-.7-11.8.1-23.5-.2-35.3-.4,1.2-.2,44.5-20.1,51.1-21.4,0,1.3-.2,2.6-.6,3.9-1.3,4-3.1,14.7-3.3,16.8,0,1.4-1,2.7-1,4.1,0,4.1,4.1,5,6.4,7.6,7.4,8.3,15.5,9.2,18.7,9.2.1,4.2,5.9,18.7,7.4,20.6.1.1-13.9,20.3-18.9,36.6-1.1-.4-6.4-1.5-6.5-2.4-1-4.7-3.7-9.1-6.7-12.8-2-2.5-4.2-5.5-7.5-5.9-2.4-.2-4.9-.5-7.3-.7-18.7-1.9-37.5-3.7-56.1-5.5-7.6-.7-16-2-23.7-2.7l-2.2,1.7c2.9,3.3,5.9,6.7,8.8,10.2-5,.1-10.3-.2-15.2,0l-.9,1h-.2c2.1,1.8,3.9,4.1,5.9,6.1-7.9,1.1-14.2,1.9-18.4,9.1-.4.8-3.4,7.5-9.7,12.9-2.8,2.4-6.4,5-6,10,.2,1.9,2.2,2.1,4.3,1.9h0s-.2.2-.2.2c-.8.8-18.8,16.6-22.3,32.4-2.3,10.6,3.1,31.7,4.1,35.9,1,5,5.3,38.8,4.4,52.2-.2,1,1.6,35.9,2.3,42.7.4,3.9,2.4,4,2.4,4,4.4.9,8.7,1.8,12.7,3.9,1.8,1,3.6,2.1,4.3,4.1.5,1.7,0,3.7.6,5.5,2.2,6.5,12.8,2.8,17.5,2.5,7.9-.5,15.9,2,23.9,2.2,1.6,0,14-.9,15.9.6.9.6,1.4,1.6,2.2,2.2,4,2.8,9.4-1,9.8-1.4,1.9-1.7,7.1-8.3,7.8-9.5.1,3.5,4.6,9,4,10.2-.2.4-11,10.3-12,14.8-.4,1.7-.9,3.5-1.3,5.3-30.3-1.4-108.5-3.8-117.2-4.1-4.4-.2-2.1,2.8-2.1,2.8,30.1,1.4,106.9,2.3,118.9,2.7,0,.1-1.5,4-1.2,7.8,0,.5-11.5,10.9-13.4,23.7-.7,4.3,2.9,4.6,3.4,4.5-.6.3-7.7,5.4-22.9,8.2-55.5-11.7-105.3-39.8-145.1-79.4-21.2-21.1-38.6-45.4-51.8-71.9-.5.7-7.8,7.1-15.7,9.3,0-2.5-2-5.1,2.2-6.2,3.1-.8,2.7-5.6,3.1-6.3.5-.8,4.9-3.2,6.7-4.2h0c1.4-1,7.7-8.2,9.8-10s3.4-4.8,4-7.6c.5-2.3,1.4-3,4.9-3.6,3.5-.6,5.1-5.6,5.3-7.7.2-1.8-1.5-4.6-2-6.3-1.2-3.9-.6-9.2,1-11.6,2.2-3.3,5.9-6.4.2-12.8-1.7-1.9-.8-5.9-.7-8.6.2-4-2.6-10-16.3-.2-.9.7-2.1-1.1-3.5-.9-1.3.2-4.6-.3-7.8,6.4-.8,1.7-2.6,2.4-4.5,1.8-1.4-.5-3.3.6-4.7,1.4-1.5.8-3.7,1.1-5.4,1.4-.7-2.7-1.3-5.4-1.9-8.2-12.2-60.9-4.7-123.7,23-179.4,18-36,39-70.1,70.3-95.8l-2.1,1.3c-48.3,39.7-78.3,95.1-92.7,155.3-10.4,43.2-10.6,89.9-.5,133.2l.3,1c2.7-1.2,9.6-7.5,10.3-7.4,10.2.6,9.3-3.7,11-6,1.3-1.9,2.7-3,5.1-2.6,1.9.3,3.1.3,5-.4,3.1-1.2,7.1-4.1,10.1-3.6,2.5.3,1.6,2.5.7,7-.5,2.2-.4,4.3,2.2,5.7,3.6,1.7,2.4,4.7,1,7.6-1,1.9-3,3.3-3.8,5.3-1.1,2.9,1,5.4,1,9.9s1.8,5.8,1.8,6.5c-.2,2.5-4.8,4.9-8.5,4.6-1-.1-2.1,2.8-2.1,3.6-.3,1.8-.3,3.8-1,5.7-1.1,2.8-4.3,4.9-6.8,6.6-2.1,1.4-2.9,3.6-3.8,5.9.4.9-4.6,2.9-7.5,3.2-4.8.5-2.5,6.5-2.9,7.4-.4.6-2.7,2.1-3.6,2.7-2.1,1.2-3,4.9-3.4,7.5-.9.1-1.9.2-2.9.3-.7-7.1,2-14.7,4.2-21.4,3-9,7-17.8,11.3-26.3,5.5-10.8,10.8-21,17.5-31.1-.4.6-.7-1.3-2.4.5-6.5,10-29.8,50.4-30.8,55.8-.2.8-2.3.9-3.6.6-.8-2.2-1.1-4.7-.2-6.9-.3.5-5.8,3.8-1,10.3,0,2.5-1.8,9.5,1.9,11.7.7,2.1,2.1,7.3-1.4,7-3.1-3.1-5.1-8.6-5.4-12.3-.1-1.5,1.4-2.9.4-5.1-1.2-2.6-3.1-4.6-2.1-7.2.5-1.3,3.6-7.4,1.4-9.5-5.4-5.2-2.8-9.7-.5-13.4,1.2-1.7,5.3-2.5,3.9-7.7-.5-1.7-.9-2.6-1.4-4.2-1.3-4.7,2.6-7.7,6.3-10-1.8-2.6-6.6-5.4-9.3-6.6-9.3-4.2-18.7-5.7-28.6-7.2-11.6-1.8-25.1-6.5-31.9-16.5l1.3,7c3.5,5.3,7.2,6.6,12.7,9.5,3.8,2.1,7.5,3.4,11.5,4.3-3.4,1.5-7.2,3.1-6.7,8.1,0,.4.5,6,.5,7.3-.3,3.7-.7,5.5-2.1,8.8-1.5,3.6,1.8,9,3.6,12.1.2.3-.8,3.8-1,4.9-.8,7.7,8.2,17.6,13.7,20.7,1.4,3.4,4.3,6.3,7.3,8.3,1.9,1.2,5.8,2.6,5,5.1-9.6-4.1-18.6-10.8-26.6-18.3l-1,4.2c36.2,41.1,73.4,14.8,76.1,12.3,22.3,41.9,55.4,78.1,95.4,104.6,30.4,20.1,63.8,36.6,99.5,44.4.8,4.5,3.2,9.2,8.1,10,3,.6,5.4-.7,5.5-.9,2.2,10.9,19.6-2.6,22.1-4.9-.5.6-19.2,10.5-20.1,5.2-.4-1.7,1.2-2.8,2.1-3.4,2.5-1.7,7.7-5.6,8-5.8-8.3,4.4-12.3,7.1-12.3,7.2-3.4.5-6.3.3-8-3-1-2.1-.2-5-.1-5.1,3.6-.5,7-1.6,10.5-2.5,17.1-4.5,38.2-22.5,40.1-29.6,19-7.4,44.3-10.8,45.4-11.9-14.1.4-33.8,3.6-57.2,14.1-7,3.1-13.6,7-11.9,9.5,1.4,2.2,4.8-1.3,4.8-1.3,2.1-3.5,14.2-8.5,14.3-8.6-.3.7-7.1,9.4-15.8,15.2-.8.3-4.9,4.2-7.5.5-3.2-4.6,9.3-20.4,10.7-21.7,2-1.7,2.1-2,2.1-4.6,0-1.3,1.9-6.1,2.6-7,1.3-1.5,1.9-3.9,2.5-5.7,1.5-3.8,3.7-7.2,6.5-10.1,3.2-3.5,3.9-7,3.3-8.2-1.6-3.4-4.7-7.6-4.1-11.6-1.3-2.5-3.8.3-4.8,1.7-1.9,2.4-7.5,11.2-10.7,12.9-1.2.2-2.2-1-2.7-1.9-.5-.9,1-1.7,1-2.5h-10.8c-1.7.1-8.2,1.3-15.8-.9-5.1-1.5-10.3-1.6-15.6-2.2-4.3-.4-8.6,0-12.7.7-1.1.2-5.8.5-5.6-7,0-2.4-4.6-3.9-6.3-4.8-3.9-1.9-11.3-2.7-10.9-3h0c-1.9-.2-2.1-3.5-2.3-4.8-.6-4-1.4-29.5-.5-38.2,1.7-18.5-2.5-36.7-5.5-54.8-1.3-8.3-3.8-17.2-3.6-25.6.7-28.4,29.3-43.1,29.6-43.3,8-.1,24.8-.3,25.2-.3-3.7,1.2-40,13.6-34.5,44.1,2.4,13.3,9.1,25.8,16.3,37.1,8.1,12.5,29.1,33.9,29.3,33.8-12.6-14.4-25.8-35.8-32.1-46.8-22.8-39.6-.5-51.3,5.2-56,9.5-7.7,27.5-11.6,27.7-11.7,1.1,8.1,12.7,5.5,12.7,5.5,2.1,2.1,35.6,37.3,36.5,37.3,20.2.5,10.9,1.3,53.3,2.4,4,.1,47.3.6,49.9-3,1.7-2.4.2-8.7-.9-10.8-2.2-4.9-5.4-9.3-8.6-13.6-3.1-3.9-6.3-7.7-9.7-11.4,6.7,3.6,12,10.9,16.5,16.3v-1.4c-9.2-17.7-20.9-19.9-21-19.9h0c-1.7-1.6-3.3-3.2-5-4.8-1.6-1.6-3.3-3.1-5.1-4.5,9-4.3,17.7.2,19.2.3,4.8.4,9.6,1.8,14.1,3.6,3.9,1.5,13.9,7.9,15.6,8.6,8,2.6,16.3,7.2,22.8,13.6,3.3,3.2,7.2,6.5,10.3,10,5.3,9.1,4,20.3-2.8,28.9-2.4,3-13.9,20.3-30.5,18.2-5.8.2-11.6.3-17.5.3-18.7-.1-73.4-4-81.7-6-8.1-1.9-14.5-5.6-19.6-11.8-5.3-6.4-11.7-11.7-16.8-18.1-7.2-9-17-16.7-17.5-17,0,0,12.6,15.4,15.9,19.2,4.9,5.6,16.2,21.3,23.3,26.3v2.3c-.5-.7-17.6-5.5-31.2-25.3-.7-1-2.1-.9-1.2,1l5.8,8.1-9.5-6.3c0,0-8-2.7-7.5,2.8.5,5.4,23.4,10.7,31.7,16.6-1.6.1-20.8-6.7-30.1-2.4-6.5,3-33-.7-33.1-.6,21.2,8.3,31.8,3.9,47.7,3.4,4.4-.1,8.2,1.8,12.6,2.3,1.1.1,4.2,0,5.5-1.1.9.6,3.2,2,4.2,2.4h-.1c0,.1.1,0,.1,0h-.1c9.1,10.8,15.5,25,13.3,39.2-2,12.3-14.4,20.3-26.2,21.9,0,0,16.7,3.1,25.2-8.9,9.4-13.1,2.2-34.1,2.1-34.2,7.9,7.9,11.5,18.9,9.7,30.2-1.2,7.5-3.1,15.3-6.3,22.4-.7,1.6-1.5,3-2.5,4.5l-1.4,1.7c.3-.1,10.8-6.2,13.2-30.1.2,1.3.3,2.5.4,3.7.9,9.9-.1,25.6,3.7,31.4,0,0-1.9-15.5.1-27.2,2.1,2.1,13.3,13.3,13.9,14.5,2.2,4.6-9.8,18.8-9.9,22.3,0,2.1,2.4,15.9,3.2,20.4,1.6,8.8,3.6,17.5,7,25.9,3,7.2,8.7,13.1,10.4,20.8,1.7,7.1-1.2,14.5-7.4,18.6-.8.6-28.5,15.9-29.8,17-7,5.9-20,7.6-20.1,7.7,0,0-5.6,4.2-9.1,3.6-5.5-.8.7-5.9,2.7-7.7h-.2c0,.1-9.3,6.7-13.4,6-3.5-.6-3.2-2.7-1-4.2,3.3-2.3,7.3-5.7,7.3-5.7-.3.1-10.1,6.3-12.5,7-5.1,1.4-6-2.3-6-2.3-.5.7-.3,6,6.7,4.2,1.8,4.2,7.4,3.8,11.8,1.1-.8,9.4,15.3,1.1,15.9.7,11.3-1,18.3-7,20.9-9.3l22.9-3.1c1.9,2.8,6.1,1.2,7.5.7.1,3.1,4.1,4.4,6.6,5.3,9.8,3.2,18.9-6.9,23.4-14l.7-1.1c51.7-14.6,100.1-45.5,136.2-84.7,31.6-34.5,54.5-77.1,66.2-122.2,2.2-1.4,4.1-2.7,5.7-3.7-1,1.6-.7,3-2.4,6.3-1.4,3,1.3.5,1.3.5,3.4-4.5,18-15.5,19.4-16.1-1.7,3.9,1.2,11.9.6,17.5-.7,6.9-2.9,12.9-5.1,19.5,0,0,.1.4-7.2,19.2-1.9,5,4.5,11.9,5,12.2.3.2.7-7.4,3.6-9.9,0,0-.7-2-.3-4.3.4-1.7,17.4-40.8,26.9-55.1,5.1-6,8.7-7.2,13.7-9.3,3.1,18.8-3.5,37.3-12.4,53.8-2.3,4.1-6.4,7.4-9.3,11.1l-2.3-.4c0-1.8,1.7-3.6,3-4.8-.6.5-3.6,1.1-5,4.7h-1.2c1.4-3.3,4.1-12.1,7.2-16.3,3.5-5,6.6-9.5,9.1-15.1,3-7,5.7-16,8-23.3-.2.5-1-1.5-2.3,1.3-3.5,7.5-11,15.2-12.8,24.1.1-.6,1.4,1.9,2.1-1.3,1.4-5.9,2.3-4.5,3.4-3.6-.5,1.1-.9,2.1-1.4,3.1-1.2,2.7-3.3,7.6-5,10-1.9,2.5-7.7,10.8-9.3,13.4-1.5,2.2-2.3,4.8-3.5,7.1-2.9,5.6-9.4,10.1-9.6,16.1,0,0,1.2.3,2.1-1.2,3.5-5.5,6.7-10,11.1-12.9h0c2.7,0,5.4.5,7.6,1.9,0,0,3.4,3.3-4.1,11.6-2.6-.1-5.1-.5-7.6-1-5.5-1-4.8,2.2-4.8,2.2,10.3,1.9,22.1,2.5,28.9-6.1l-.6-1.9c-3.1,3.9-7.3,6.4-11.8,6.8,1.4-2.1,3.8-4.8,4.4-7.2.5-1.8-1-3.3,0-5,1.2-2.1,4.5-8.7,6.9-12.9,8.9-16.4,14.2-36.4,11.3-55.1,4.1-2,7.9-4.7,9.8-8.9l.9-3.9h0ZM602.9,288.1l2.8-1.9,2.1,1.7c1.4,5.2,3.5,3.3,4.8,4.9-4.4-.1-18.3-1.1-15.1-15.2,1.5-6.6,8.8-18.2,8.8-18.2,2,.4,3.8-.6,5.7-.8,2.2-.2,4.9-.5,6.4,1.3,0,.1-1-4.5-9.4-2.3-.7.2-3.8,1-2.8-2.8,1.2-.2,2.8,0,3.5-1.6,2.5-4.9,6.7-1.8,6.7-1.9-1.4-2.9-3.1-3.6-5.3-2.3-2.1,1.2-2.1,3.5-4.8,3.8-4.5.4-6.5-4.8-3.5-9.4,3-4.7,11.1-1.9,13.7-.1,2.1,1.3,4.1,2.9,5.9,4.7,4,8.2,14.1,41,17,57.8l-2,.5c-3.3-12.4-12.7-23.5-25-27.8,6.8,3.3,20.8,16.8,22.9,28.7-1.2-2.7-20.9-30.4-33.3-23-3.3,2,.7,4.2.7,4.2h0ZM633,374c-2.2.4-11.8,3.3-12.4-4.7.2-21.2-5.1-76.6-6.5-83,2,1.2,3.9,2.7,5.6,4.2,3.4,2.9,6.9,5.8,9.8,10,.9,9.4,3,23.2,3.5,32.5.6,10.3,2.2,24.7,0,40.9h0ZM637,373.4c1.7-13.3-2.3-61.1-2.3-60.7,0,0,3.5-1.9,6,.1,2.9,20,3.7,40.4,2.4,60.7-1.9-.3-4.1-.4-6.1-.2h0ZM610.3,415.8l2.2-1.2-2.2,1.2ZM387.2,184.9c-16.6,8.1-30.8,23.6-42.6,37.3-4.8,5.7-12,8.5-19,11.5.6-1.2,20.9-45.4,22.8-47.4.2-.2,4.9-2.7,8.9-2.7,5.5,0,10.9,0,16.3-.2,3.6-.2,8.6-1.3,13.1-.2h0l.7,1.6h-.3s0,0,0,0ZM492.8,135.5s2.9,7.5-4.5,2.9c0,0-4.1,1.2-6.2-8.1,0,0,9.5,1.2,10.8,5.1ZM478.6,111.7c.9-.3,6.3,2.1,6.3,2.1,5.1.6,3.6,3.3,3.6,3.3-1.5,1.7-8.2-1.6-8.2-1.6-4.8-1.2-1.8-3.8-1.8-3.8ZM487.5,42.5h.2s-.3,0-.3,0h0c0,0,0,0,0,0ZM486.8,42.9l.4-.2-.7.5.3-.4ZM438,38c.5-2.7,1.1-5.5,1.5-8.2h-.2c0,.1.2,0,.2,0l.6-1.2c2.4-.4,6.5,1.3,7.4,3.3,2.1,4.1-.1,10.6-5,11.1-1.7.2-4.3-.1-5.1-1.8l.5-3.2ZM435.4,47.6l.2-.2.4-1c2.1-.3,5.5.9,7,1.8,2.8,1.8,1,6.4-.2,9.1-2.9-1-5.8-1.8-8.6-2.6-.2-1.4,1.2-6.5,1.4-7.4l-.2.2ZM390.5,46.1c-.7.7-1.3,1.5-2.1,2.4.6-.8,1.4-1.6,2.1-2.4ZM60.2,423c1.3.5,2.7,1,4.1,1.7,2.2,1,5.1,1.6,6.8,3.2-.4,0-10.4-2-4.6,14.3l.2,1.4c-2.2-4-8.7-16.8-6.5-20.6h0ZM44,426.3c.2-2.4.9-4.5,2.2-6.1.7,0,7.7,1.2,10.3,1.8.2,3.2,1.5,12.5,10.1,22.1-.5,2.7-3.9,4.9-4.8,7.7-1.4,4.6-4.8,10.5-4.4,14.7-1.7-1.1-3.3-2.4-4.7-3.4l-.7-.5v-.2c-1.2-5.5,6.3-9.2,7-16.1-.6-.1-1,0-2.2,1.3-2.8,3.3-6.6,8.4-7,13.2-1.9-1.7-3.9-3.8-5-6.3-.2-2.3-.5-5.1-.8-7.9,1.1-3.2,4.4-6.3,6.9-8.5-.8.6-4.6,1-7.2,4.1-.1-1,0-1.7-.2-2.5,0-4.4-.1-8.9.3-13.4h0ZM37.1,466.1c-3-1.8-3.9-7.2-3.8-7.6.5-1.2.5-2.6.3-3.8,0-2.2-1.2-7.2-1.7-7.8-.9-1.3-.9-3-.7-4.5.2-1.9.5-3.1,1.3-4.6,1.6-2.9,1.2-10.3,1.1-10.4-1-1.2-2.1.9-2.1,1.3,0,0,.2,7-1.1,10.1-.7,1.6-1.5,2.6-1.7,4.4-.3,2.4,1.4,4.2,1.8,6.3,1,4.9-.2,8.9-.4,9.9,0,.6,5.2,11.7,6.7,15h0c0,0,.2,2.3.2,2.3-13.9-12.3-9.1-21.5-9.6-22.3-.7-1.2-1.3-3.7-1.8-5-1.1-3.7-.9-7.6.3-11.3.9-2.8,2-5.8,1.3-8.7-2-7.7,4-9,7.3-10.3.7.1,6,.6,7.7.9-.9,2.3-.2,5.3-.5,7.8-.5,4.4-2.2,23.5.5,30.3-2.3,1.1-5.8,4.6-5.3,8.2h0ZM57.6,495.8c-.3-7.1-11.3-9.6-11.8-10-1.8-1.4-3.3-3.1-4.5-5-2.4-3.8-1.5-7.8-2.1-12-1-7.4,5.6-9.6,5.8-9.5h0s.2,0,.2,0c2.4,2.1,2.7,3.1,5.3,5,2.2,1.5,4.8,3.8,7.7,5,.9,2,1.5,1.7,1.7,5.2.2,3.7-1.7,7.6-1.4,11.2.3,3.7,2.1,8.5,5.1,11.3-2.2-.2-4.1-.6-6.2-1.2h0ZM343.2,557.5h.2s-.3,0-.3,0h0ZM247.6,551h-.2c0,.1.2,0,.2,0ZM267.6,382.9h.2c0,0-.2,0-.2,0ZM451.7,413.7c4.5,9.6,1.2,9.4.5,10.2-.7.8-8.6,1.1-8.6,1.1-8.6-.3-16.9.4-25.5.1-18.3-.5-59.6-1.6-61.8-1.6-.9,0-1.3.1-1.9-.5-5.1-5.3-10.2-10.5-15.3-15.8-6.2-6.3-12.3-12.7-18.5-19-.9-.9-1.7-2.5-3.1-2.2-10.7,2.8-11.3-6.5-11.7-6.5-14.4.1-25.5-1.2-41.5.4-2.4.2-6,2-8.2,1.7-4.2-.6,0-4.9,1.8-6.5,3.4-3.3,8.5-7.2,9.9-11.9.8-2.5,3.4-4.9,5.1-6.5,0,0,4.4,2.5,6.9,2.9,3.3.6,21.1,10,25.7,13.1.3.2-16.9-13-23.3-14.3-2.7-.5-5.4-1.4-7.2-3.3,3.8-2.8,12.7-3.1,12.6-3.4.5.5,13.1,10.4,16.9,15.5.1,0-8.2-10.7-12.7-14.9-3.2-2.9-6.4-5.7-9.8-8.5,4.7,0,9.2.4,13.9.2.3,0,7.9,8,10.7,12.5,2.5,3.8,6,8.7,6,13.4s-2.2,3.8-2.1,6.1c.3,3.9,3.1,3.9,4,7l2.1-1.3c-.9-2.9-4.1-2.9-4.1-6.4,0-2.4,1.8-4.2,2-6.3.7-4.6-3.6-10.2-6-13.7-5-7.8-10.7-15.2-16.8-22.2,27.8,2.7,55.5,6,83.3,8.3,6.1.4,13.2,15.8,13.5,18.3-14.7-3.4-30.2-4.2-45-4.1-5.8,0-14.8-.6-20.4.7-6.5,1.5-7,9.3-6.8,8.7,0,0,2-7.5,13.9-7.4,6.7.1,17.1,0,23.2.3,23.3.9,48.3,3.2,66.8,17.9,7.2,5.7,28.1,31.7,30.9,37.9h0ZM341.2,654.3l-1.5,1.1,1.5-1.1ZM366.4,652.1c1.7-1,3.3-2.3,4.9-3.5-1.5,1.5-3.1,2.6-4.9,3.5ZM540.5,484.8c3.6-2.1,9.1-6.8,8.4-6.4,8-4.8,12.7.3,13.2.5-.2,0-2.3,2.6-3.3,3.7-.4.3-7.2,9.2-17.9,14.8-6.5,3.4-32.8-5.5-23.4-19.1,1.4-1.1,3.2-1.2,3.7-1.5-.9,1.6-.9,2.4-1.4,4.1-.9,3.6,2.8,5.7,5.5,4.6,1.7.7,9.3,3.1,15.4-.8h0ZM550.2,406.9c-1-9.9-1.2-20-2-29.9-.9-10-2-20-3.3-30-.6-4.3-.6-8.6-.9-13.1-.4-4.6-2.1-18.6-3.7-22.1,2,1.9,6.9,5.4,7,5.6-4.4-4.4-18.2-19.8-23.1-29.6-4-6.8-7.2-13.9-9.1-21.2,15.9,2.8,37.1-.4,45.2-3.8,11.3,22.6,17.2,48.2,20.9,73.1,1.7,11.3,1.8,22.9,1.7,34.3-.1,13.6-2,27.9-4.4,41.2-2.1,11.7-5.3,23.5-11.4,33.9-1.5,2.7-2.9,3.7-5.3,5.8-5.3,4.4-10.5,6.2-17.1,11.6l-2.9.6c-2.3,1.4-3.5,6.3-4.8,8.6-2.6,4.5-9.1,10.2-10.9,11.4-2.1,1.4-4.8,1.3-4.5-3.4.1-1.8,17.8-28,19.6-30.5,1.5-2.1,3.1-4.4,5.4-5.8,1-.6,2.3-1.3,2.9-2.3,2.4-4.6,1.1-29.3.5-34.3ZM544.7,444.7l1.3-.9-1.3.9ZM365.2,453.6c-1.2,1-2.5,1.5-3.9,1.6,1.4-.3,2.8-.8,3.9-1.6ZM378.1,646.4l-1,.6.8-.5.3-.2h0c0,0,0,0,0,0ZM438.6,622.8c-.7,6.8-8.4,16.4-9.6,17.9-8,9.7-19.2,9.6-20.4,5.6-.8-2.4,5.6-7.4,7.2-9.8,3.2-4.8,2.6-10.7,2.6-10.5-.3,4.3-4.3,8.9-7,11.9-2.5,2.9-5,6.2-6.4,7-1.4.9-3.6,1.1-4.6-.5-1.8-3.3.5-4.3,0-4,8.8-4.2,11.2-8.7,11.5-13.4,0,.6-3.3,8.5-10.5,11.4-1.9.7-2.5,1.2-3.4,2.8-6.3-3.3-.9-5.5,6.3-9.8.2-.1,3.3-2.5,5.7-5.1,5.4-5.9,4.1-14.3,1.5-21.2-1.4-3.8-2.9-7.5-4.1-11.5-3.3-10.8-6.2-22.7-12.1-32.5-1.2-2.2-2.6-4.3-2.8-6.8-.3-2.2-.4-9.4.6-10.7,1-1.7,6.7-10.6,9.4-12.6h0c5.4,9.7,23,10.4,27.1,11.7,12.5,3.9,13.5,14.9,13.3,18.9-.2,4.4-2.3,8.4-3.5,12.5-2.5,8.6-7.3,16.9-6.7,26,.3,5,6.5,18.4,6,22.8h0ZM441.5,631.5c-1.3.4-1.5-.5-1.5-1.4,7.4-10.2-2-27.8-1.9-30,.2-4.7,3.4-23.4,4.5-28,1.4-6,4.4-11.3,3.1-17.6s-6.8-11-12.4-13.6c-2.9-1.4-22.6-3-28.8-13.4,0-.2,1.8-1.5-8.3-11.6-4.1-4.2-8.2-8.5-12.3-12.6-3.4-23.4-19.1-37.2-19.1-37.2h0c0,0,0,0,0,0h0c-1.7-3.7-3.8-7.1-6.2-10.5,2.6.1,5.3-.5,7.3-2.1,3.6,1.1,7.4,1.8,11,2.4,9.6,1.3,19,2.6,28.7,3.6,10.2,1.1,20.2,2.2,30.3,2.9,10,.7,20.1.7,30.1.9,9.4.1,18.9.2,28.4-.4,7.6-.5,15.8-.6,23.1-3,15.8-5.3,25.4-26.9,27.9-25.3s.5,6.6-1.3,7.6c-.9.8-7.1,7.7-22.2,33.1-.2,0-8.7,1-8.8,9.9-.2,12,22.6,19.3,27.3,17.3,0,0,8.2-2.9,19.3-13.2-2.4,4.1-4.7,8.4-6.2,12.8-2.3,6.7-21.2,44.1-27.3,59-2.9-6-7-10.9-12.6-14.5-3-1.8-6.1-2.7-9.4-3.7-3.5-1.1-9.6-2.8-11.3-6.4-.2-.3-.4-37.2-1.6-49.4-.4-4.2-2.7-12-5.4-15.2-.3-.3,5.3,16.4,2.8,27.1-.9,3.8.9,18.1,1.6,30.1-4.5-3.2-10.2-5.5-15.4-7-5.3-1.6-5.5-9.7-5.6-14,0-4.6.8-9,1.2-13.6.5-7.5-.3-15.4-2.2-22.7,0,.2.5,16.4,0,24-.2,4.6-1.1,9-1.2,13.5,0,4.6.4,12,5.6,14,5.5,2.1,12.9,5,17.6,8.6,0,1.7.3,3.4.1,5-.5,5,16.3,9.5,19.4,10.9,6.9,3.2,12.1,9,15.3,15.9,0,0-8.1,19.9-1,26.6-24.8,18.2-51.2,31.9-82.5,41.2h0ZM613.1,483c-3.9,2.2-8.7,4.3-9.1,0-.1-2,6.2-20,8.2-27.3,4.2-16.2,10.6-49.6,11.4-49.4,1,.3,4.8,1.7,7.2,1.4-1.5,16.8-12,63.5-17.7,75.1h0ZM633.3,434.1c-4.3,16.4-8,20.6-7.6,18.7,3.5-16.6,8.4-25.3,9.9-42.2,1.3-.3,2.3-.7,3-.9-1.6,9.5-2.8,15.2-5.3,24.5ZM654.5,481.2c-5-5.5,3.2-19.7,3.3-20,.3.1,2.4-.6,3.4-.9l.5-.2h.3c-8.1,11-7.4,19.9-7.5,21.2h0ZM676.9,427.2c-1.4,4.4-3.3,5.9-6.5,12.4-.5-.4-.7-1.2-.6-2.1-.3-5.8,3.9-16,5.2-18.2,0,0-5.5,1.8-12.9,39.2l-3.8,1c.8-1.8,1.4-3.6,2-5.4,2.3-6.7,3.9-13.3,4.6-20.3,1.5-16.2,12.4-20.7,13.1-20.2,1.2,3.5,0,10.1-1.2,13.7"/>
    </g>
  </g>
</svg>