<?xml version="1.0" encoding="UTF-8"?>
<svg id="Capa_2" data-name="Capa 2" xmlns="http://www.w3.org/2000/svg" viewBox="0 0 108.69 98.91">
  <defs>
    <style>
      .cls-1 {
        fill: #00b35c;
        stroke-width: 0px;
      }
    </style>
  </defs>
  <g id="Capa_1-2" data-name="Capa 1">
    <g>
      <path class="cls-1" d="M54.35,27.31c7.54,0,13.65-6.11,13.65-13.65S61.89,0,54.35,0s-13.65,6.11-13.65,13.65,6.11,13.65,13.65,13.65Z"/>
      <path class="cls-1" d="M54.35,60.23c26.87,0,34.78-5.55,34.78-12.39s-14.05-12.39-34.78-12.39c-21.89,0-34.78,5.55-34.78,12.39s9.66,12.39,34.78,12.39Z"/>
      <path class="cls-1" d="M54.35,69.78c-37.24,0-54.35,6.73-54.35,15.04s12.15,14.09,55.3,14.09,53.39-5.78,53.39-14.09-17.13-15.04-54.35-15.04Z"/>
    </g>
  </g>
</svg>