<?xml version="1.0" encoding="UTF-8"?>
<svg id="Capa_2" data-name="Capa 2" xmlns="http://www.w3.org/2000/svg" viewBox="0 0 190 75">
  <defs>
    <style>
      .cls-1 {
        fill-rule: evenodd;
      }

      .cls-1, .cls-2, .cls-3 {
        fill: #234142;
        stroke-width: 0px;
      }

      .cls-3 {
        opacity: 0;
      }
    </style>
  </defs>
  <g id="Capa_1-2" data-name="Capa 1">
    <rect class="cls-3" width="190" height="75"/>
    <g id="layer1">
      <g id="g3019">
        <path class="cls-2" d="M164.97,15.96h-32.66c-1.56,0-2.83,1.23-2.83,2.76v33.04c0,1.53,1.27,2.76,2.83,2.76h32.66c1.56,0,2.83-1.23,2.83-2.76V18.72c0-1.53-1.27-2.76-2.83-2.76ZM141.1,48.24h-5.79v-17.41h5.79v17.41ZM138.2,28.45h-.04c-1.94,0-3.2-1.34-3.2-3.01s1.29-3,3.27-3,3.2,1.3,3.24,3c0,1.67-1.25,3.01-3.28,3.01ZM161.97,48.24h-5.79v-9.32c0-2.34-.84-3.94-2.93-3.94-1.6,0-2.55,1.08-2.97,2.11-.15.37-.19.9-.19,1.42v9.72h-5.79s.08-15.78,0-17.41h5.79v2.48c.76-1.19,2.14-2.88,5.22-2.88,3.81,0,6.66,2.49,6.66,7.83v9.98ZM150.08,33.35v-.05s-.03.04-.04.05h.04Z"/>
        <path id="path16" class="cls-1" d="M22.2,48.26h15.99v-5.25h-10.21v-20.03h-5.79v25.28Z"/>
        <path id="path18" class="cls-1" d="M43.43,22.45c-1.98,0-3.27,1.3-3.27,3s1.25,3.01,3.2,3.01h.04c2.02,0,3.27-1.34,3.27-3.01-.04-1.7-1.25-3-3.24-3ZM40.5,30.85v17.41h5.79v-17.41h-5.79Z"/>
        <path id="path20" class="cls-1" d="M48.98,48.26h5.79v-9.73c0-.52.04-1.04.19-1.41.42-1.04,1.37-2.12,2.97-2.12,2.09,0,2.93,1.6,2.93,3.94v9.32h5.79v-9.99c0-5.35-2.86-7.84-6.66-7.84-3.12,0-4.49,1.75-5.26,2.93h.04v-2.53h-5.79c.08,1.63,0,17.41,0,17.41h0Z"/>
        <path id="path22" class="cls-1" d="M74.81,22.98h-5.79v25.28h5.79v-5.65l1.45-1.82,4.53,7.47h7.12l-7.62-10.81,6.66-7.35h-6.97s-4.76,6.58-5.18,7.36v-14.48h0Z"/>
        <path id="path24" class="cls-1" d="M103.58,38.72c0-4.5-2.29-9.07-8.3-9.07-6.44,0-9.41,5.09-9.41,9.71,0,5.71,3.62,9.28,9.94,9.28,2.51,0,4.84-.37,6.74-1.15l-.76-3.82c-1.56.52-3.16.78-5.14.78-2.71,0-5.07-1.11-5.26-3.47l11.99.04c.08-.45.19-1.3.19-2.28ZM91.36,37.08c.15-1.49,1.14-3.68,3.62-3.68,2.63,0,3.24,2.34,3.24,3.68h-6.85Z"/>
        <path id="path26" class="cls-1" d="M123.66,42.84v-19.86h-5.79v8.75h-.08c-.84-1.22-2.59-2.04-4.92-2.04-4.45,0-8.38,3.57-8.34,9.66,0,5.64,3.54,9.32,7.96,9.32,2.4,0,4.68-1.04,5.83-3.04h.12l.23,2.64h5.14c-.08-1.22-.15-3.34-.15-5.42ZM117.87,40.2c0,.45-.04.89-.12,1.26-.34,1.6-1.71,2.71-3.39,2.71-2.4,0-3.96-1.93-3.96-4.98,0-2.86,1.34-5.16,4-5.16,1.79,0,3.04,1.22,3.39,2.75.08.33.08.71.08,1.04v2.38Z"/>
        <path class="cls-1" d="M150.08,33.3v.05h-.04s.02-.04.04-.05Z"/>
      </g>
    </g>
  </g>
</svg>