<?xml version="1.0" encoding="UTF-8"?>
<svg id="Capa_2" data-name="Capa 2" xmlns="http://www.w3.org/2000/svg" viewBox="0 0 190 75">
  <defs>
    <style>
      .cls-1, .cls-2 {
        fill: #234142;
        stroke-width: 0px;
      }

      .cls-2 {
        opacity: 0;
      }
    </style>
  </defs>
  <g id="Capa_1-2" data-name="Capa 1">
    <rect class="cls-2" width="190" height="75"/>
    <g>
      <path class="cls-1" d="M113.03,26.66c0-2.56.06-4.9-.03-7.24-.04-1.06.33-1.56,1.32-1.86,1.29-.39,2.55-.87,3.79-1.4.99-.42,1.22-.11,1.21.89-.03,5.25-.02,10.51-.02,15.76,0,4.82-.03,9.64.02,14.46.01,1.05-.24,1.53-1.36,1.41-.67-.07-1.35-.06-2.02,0-.98.09-1.67-.16-2-1.18-.19-.6-.46-.95-1.22-.37-3.82,2.91-7.99,3.17-12.23,1.15-4.39-2.1-6.29-5.94-6.53-10.62-.33-6.32,2.78-11.24,8.08-12.91,3.49-1.1,6.85-.77,9.97,1.25.27.17.54.35,1.03.66ZM100.17,36.88c0,3.86,2.85,6.75,6.61,6.7,3.7-.04,6.43-2.89,6.45-6.73.02-3.87-2.82-6.82-6.54-6.79-3.76.03-6.53,2.93-6.52,6.82Z"/>
      <path class="cls-1" d="M128.54,39.02c.67,2.52,2.03,4.19,4.37,4.78,2.56.64,4.93.04,6.73-1.93.7-.76,1.24-.86,2.1-.51.93.38,1.88.77,2.87.97,1.41.29,1.26.93.65,1.88-1.56,2.43-3.82,3.87-6.52,4.71-5.67,1.74-11.83-.34-14.77-5-3.13-4.97-2.65-11.68,1.12-15.86,3.58-3.96,10.14-5.09,15.32-2.66,4.58,2.15,7.33,7.49,6.64,12.71-.14,1.06-.8.9-1.45.9-5.11,0-10.21,0-15.32,0h-1.74ZM134.47,34.05c1.73,0,3.45-.02,5.18,0,.72.01.79-.2.53-.84-.86-2.11-3.05-3.53-5.6-3.55-2.62-.02-4.74,1.29-5.67,3.42-.34.79-.15.99.67.97,1.63-.04,3.26-.01,4.89-.01Z"/>
      <path class="cls-1" d="M68.4,36.74c.04,7.56-5.21,12.81-12.8,12.79-7.5-.02-12.71-5.14-12.75-12.54-.04-7.59,5.05-12.78,12.57-12.82,7.74-.04,12.94,5,12.98,12.57ZM55.57,43.84c3.71.03,6.56-2.93,6.65-6.89.08-3.97-2.79-7.06-6.57-7.08-3.83-.01-6.65,2.96-6.63,7,.02,3.94,2.85,6.95,6.56,6.98Z"/>
      <path class="cls-1" d="M80.82,19.57c3.59.18,6.97,1.12,9.39,4.25.75.96.95,1.7-.47,2.28-1.1.45-2.11,1.15-3.16,1.74-.61.34-.97.26-1.36-.42-1.29-2.24-5.26-3.02-7.41-1.52-1.45,1.01-1.35,2.32.29,3.08,1.8.83,3.79,1.04,5.69,1.56,1.11.31,2.24.58,3.31.99,4.87,1.9,6.06,6.86,2.63,10.84-4.35,5.06-14.63,4.53-18.43-.94-1-1.45-.97-1.61.58-2.46.46-.26.92-.52,1.38-.77.72-.39,1.42-1.03,2.17-1.09.89-.08.82,1.12,1.33,1.66,1.72,1.81,5.8,2.15,7.76.58,1.25-1,1.11-2.24-.37-2.93-1.41-.65-2.94-.87-4.44-1.18-1.69-.36-3.39-.72-4.97-1.45-4.44-2.04-5.53-7.24-2.25-10.91,2.18-2.43,5.03-3.22,8.33-3.3Z"/>
      <path class="cls-1" d="M81.02,56.29c-4.34-.06-8.4-1.07-12.25-2.99-.99-.49-1.31-.96-.52-1.92.82-1,1.31-2.51,2.33-3.03,1.02-.51,2.23.75,3.39,1.14,5.55,1.9,10.98,1.65,16.25-.9,1.02-.49,1.66-.51,2.19.57.23.47.59.88.88,1.32,1.43,2.18,2.02,1.88-.85,3.25-3.62,1.73-7.45,2.51-11.42,2.55Z"/>
    </g>
  </g>
</svg>