<?xml version="1.0" encoding="UTF-8"?>
<svg id="Capa_1" data-name="Capa 1" xmlns="http://www.w3.org/2000/svg" version="1.1" viewBox="0 0 1920 160">
  <defs>
    <style>
      .cls-1 {
        fill: #f52;
        stroke-width: 0px;
      }
    </style>
  </defs>
  <g>
    <rect class="cls-1" x="12" y="106.2" width="136" height="16" rx="8" ry="8"/>
    <rect class="cls-1" x="12" y="72" width="136" height="16" rx="8" ry="8"/>
    <rect class="cls-1" x="12" y="38" width="136" height="16" rx="8" ry="8"/>
  </g>
  <g>
    <rect class="cls-1" x="171.9" y="103.7" width="136" height="16" rx="8" ry="8"/>
    <rect class="cls-1" x="171.9" y="72" width="136" height="16" rx="8" ry="8"/>
    <rect class="cls-1" x="171.9" y="39.9" width="136" height="16" rx="8" ry="8"/>
  </g>
  <g>
    <rect class="cls-1" x="331.8" y="90.2" width="136" height="16" rx="8" ry="8"/>
    <rect class="cls-1" x="331.8" y="72" width="136" height="16" rx="8" ry="8"/>
    <rect class="cls-1" x="331.8" y="52.3" width="136" height="16" rx="8" ry="8"/>
  </g>
  <g>
    <rect class="cls-1" x="491.6" y="75.1" width="136" height="16" rx="8" ry="8"/>
    <rect class="cls-1" x="491.6" y="68.3" width="136" height="16" rx="8" ry="8"/>
  </g>
  <rect class="cls-1" x="651.5" y="72" width="136" height="16" rx="8" ry="8"/>
  <g>
    <rect class="cls-1" x="1830.6" y="12" width="16" height="136" rx="8" ry="8" transform="translate(482 1323.5) rotate(-45)"/>
    <rect class="cls-1" x="1770.6" y="72" width="136" height="16" rx="8" ry="8" transform="translate(503.9 1347) rotate(-46)"/>
  </g>
  <g>
    <rect class="cls-1" x="1670.9" y="12" width="16" height="136" rx="8" ry="8" transform="translate(475.4 1253.3) rotate(-47)"/>
    <rect class="cls-1" x="1610.9" y="72" width="136" height="16" rx="8" ry="8" transform="translate(496 1274.1) rotate(-48)"/>
  </g>
  <g>
    <rect class="cls-1" x="1511.1" y="12" width="16" height="136" rx="8" ry="8" transform="translate(462.1 1174) rotate(-49)"/>
    <rect class="cls-1" x="1451.1" y="72" width="136" height="16" rx="8" ry="8" transform="translate(443.2 1155.4) rotate(-48)"/>
  </g>
  <g>
    <rect class="cls-1" x="1351.3" y="12" width="16" height="136" rx="8" ry="8" transform="translate(514.1 1147.6) rotate(-55)"/>
    <rect class="cls-1" x="1291.3" y="72" width="136" height="16" rx="8" ry="8" transform="translate(441.7 1086) rotate(-51)"/>
  </g>
  <g>
    <rect class="cls-1" x="1191.5" y="12" width="16" height="136" rx="8" ry="8" transform="translate(973.9 1260.9) rotate(-83)"/>
    <rect class="cls-1" x="1131.5" y="72" width="136" height="16" rx="8" ry="8" transform="translate(657.2 1152.9) rotate(-67)"/>
  </g>
  <g>
    <rect class="cls-1" x="1031.8" y="12" width="16" height="136" rx="8" ry="8"/>
    <rect class="cls-1" x="971.8" y="72" width="136" height="16" rx="8" ry="8" transform="translate(107.3 546.9) rotate(-31)"/>
  </g>
  <g>
    <rect class="cls-1" x="872" y="12" width="16" height="136" rx="8" ry="8" transform="translate(29.8 320.7) rotate(-21)"/>
    <rect class="cls-1" x="812" y="72" width="136" height="16" rx="8" ry="8" transform="translate(383.4 810.9) rotate(-61)"/>
  </g>
</svg>