<?xml version="1.0" encoding="UTF-8"?>
<svg id="Capa_2" data-name="Capa 2" xmlns="http://www.w3.org/2000/svg" viewBox="0 0 377 44.19">
  <defs>
    <style>
      .cls-1 {
        fill: none;
        opacity: .32;
      }

      .cls-1, .cls-2 {
        stroke-width: 0px;
      }

      .cls-2 {
        fill: #00b35c;
      }
    </style>
  </defs>
  <g id="Capa_1-2" data-name="Capa 1">
    <g>
      <rect class="cls-1" width="377" height="44.19"/>
      <g>
        <path class="cls-2" d="M74.44,32.21l8.65-1.15c1.26,3.73,4.41,5.73,8.88,5.73s7.17-1.83,7.11-4.93c-.11-8.14-23.16-2.81-23.16-18.4,0-7.28,6.19-12.15,15.08-12.15s15.08,3.84,16.68,11.23l-8.31,1.15c-1.32-3.32-3.96-5.04-8.08-5.04s-6.53,1.78-6.53,4.64c0,8.83,23.44,2.52,23.44,18.29,0,7.51-6.36,12.44-16.16,12.44-9.17,0-15.82-4.24-17.6-11.81Z"/>
        <path class="cls-2" d="M111.87,27.06c0-10.09,6.88-17.02,16.79-17.02,10.83,0,17.2,7.57,16.16,19.03h-24.25c.17,5.33,3.38,8.43,8.6,8.43,3.73,0,6.19-1.38,7.39-4.07l7.97.97c-2.35,6.36-7.68,9.69-15.59,9.69-10.32,0-17.08-6.76-17.08-17.02ZM136.86,23.33c-.34-4.36-3.32-7.17-7.97-7.17s-7.62,2.52-8.14,7.17h16.11Z"/>
        <path class="cls-2" d="M149.42,10.66h8.71v5.27c1.49-3.61,5.16-5.9,10.15-5.9,8.77,0,12.72,5.04,12.72,15.36v18.06h-8.71v-17.25c0-6.02-2.24-8.77-7.11-8.77s-7.05,3.21-7.05,9.29v16.74h-8.71V10.66Z"/>
        <path class="cls-2" d="M184.9,27.06c0-11.01,6.36-17.02,14.5-17.02,4.64,0,8.88,2.29,10.49,6.19V0h8.71v43.39h-8.71v-5.33c-1.6,3.78-5.85,6.13-10.43,6.13-8.14,0-14.56-6.13-14.56-17.14ZM210.18,27.06c0-6.13-3.44-9.8-8.31-9.8s-8.25,3.61-8.25,9.8,3.44,9.86,8.31,9.86,8.25-3.67,8.25-9.86Z"/>
        <path class="cls-2" d="M222.67,27.06c0-11.01,6.36-17.02,14.5-17.02,4.64,0,8.83,2.29,10.49,6.19v-5.56h8.71v32.73h-8.71v-5.33c-1.61,3.78-5.85,6.13-10.43,6.13-8.14,0-14.56-6.13-14.56-17.14ZM247.95,27.06c0-6.13-3.44-9.8-8.31-9.8s-8.25,3.61-8.25,9.8,3.44,9.86,8.31,9.86,8.25-3.67,8.25-9.86Z"/>
        <path class="cls-2" d="M274.66,35.94l20.18-25.91h-20.18V1.95h31.07v7.51l-20.12,25.91h20.12v8.08h-31.07v-7.51Z"/>
        <path class="cls-2" d="M307.86,27.06c0-10.09,6.88-17.02,16.79-17.02,10.83,0,17.2,7.57,16.16,19.03h-24.25c.17,5.33,3.38,8.43,8.6,8.43,3.73,0,6.19-1.38,7.39-4.07l7.97.97c-2.35,6.36-7.68,9.69-15.59,9.69-10.32,0-17.08-6.76-17.08-17.02ZM332.85,23.33c-.34-4.36-3.32-7.17-7.97-7.17s-7.62,2.52-8.14,7.17h16.11Z"/>
        <path class="cls-2" d="M345.42,10.66h8.71v5.27c1.49-3.61,5.16-5.9,10.15-5.9,8.77,0,12.72,5.04,12.72,15.36v18.06h-8.71v-17.25c0-6.02-2.23-8.77-7.11-8.77s-7.05,3.21-7.05,9.29v16.74h-8.71V10.66Z"/>
      </g>
      <path class="cls-2" d="M24.28,12.2c3.37,0,6.1-2.73,6.1-6.1S27.65,0,24.28,0s-6.1,2.73-6.1,6.1,2.73,6.1,6.1,6.1Z"/>
      <path class="cls-2" d="M24.28,26.91c12.01,0,15.54-2.48,15.54-5.54s-6.28-5.54-15.54-5.54c-9.78,0-15.54,2.48-15.54,5.54s4.32,5.54,15.54,5.54Z"/>
      <path class="cls-2" d="M24.28,31.18c-16.64,0-24.28,3.01-24.28,6.72s5.43,6.29,24.71,6.29,23.86-2.58,23.86-6.29-7.65-6.72-24.28-6.72Z"/>
    </g>
  </g>
</svg>