<?xml version="1.0" encoding="UTF-8"?>
<svg id="Capa_2" data-name="Capa 2" xmlns="http://www.w3.org/2000/svg" viewBox="0 0 190 75">
  <defs>
    <style>
      .cls-1, .cls-2 {
        fill: #234142;
        stroke-width: 0px;
      }

      .cls-2 {
        opacity: 0;
      }
    </style>
  </defs>
  <g id="Capa_1-2" data-name="Capa 1">
    <rect class="cls-2" width="190" height="75"/>
    <g>
      <path class="cls-1" d="M34.27,16.24c-5.4,0-10.79,0-16.19,0H1.9c-1.01,0-1.02,0-1.02.99,0,7.29,0,14.58,0,21.87,0,.95.07,1.89.24,2.83,1.99,10.89,13.29,17.07,23.57,12.91,6.37-2.57,10.63-8.91,10.64-15.79,0-7.24,0-14.49,0-21.73q0-1.09-1.06-1.09ZM31.27,32.73c-.05.95-.04,1.9,0,2.84.02.65-.24.84-.86.83-3.01-.02-6.03-.01-9.04-.01-1.01,0-1.02,0-1.02,1.01,0,2.99-.02,5.98,0,8.97,0,.72-.19,1.01-.95.96-.89-.06-1.8-.05-2.7,0-.69.04-.93-.18-.93-.9.04-2.97.02-5.93.02-8.9,0-1.13,0-1.13-1.1-1.13-2.94,0-5.88,0-8.82,0-.92,0-.98-.06-.99-1,0-.88.04-1.75-.01-2.62-.05-.75.24-.93.96-.92,3.01.04,6.03,0,9.04.04.75.01.96-.24.94-.96-.05-1.53-.01-3.06-.01-4.59h0c0-1.56.01-3.11,0-4.67,0-.52.16-.75.71-.73,1.02.03,2.04.04,3.06,0,.63-.02.79.25.78.82-.01,3.01,0,6.03,0,9.04,0,1.08,0,1.08,1.08,1.08,2.99,0,5.98.01,8.97-.01.66,0,.91.21.88.88Z"/>
      <path class="cls-1" d="M111.12,28.45c-2.23-1.52-5.91-1.08-7.69.95-.4.46-.59.49-.95-.02-1.76-2.49-6.3-2.3-7.98-.28-.13.16-.23.47-.46.39-.29-.11-.14-.43-.12-.65.07-.67-.14-.96-.88-.93-1.24.06-2.48.05-3.72,0-.71-.03-.92.22-.91.91.03,2.94.01,5.88.01,8.82h0c0,2.99.02,5.98-.01,8.97,0,.68.23.88.88.86,1.21-.04,2.43-.05,3.64,0,.76.04.95-.25.94-.96-.03-3.91-.02-7.83,0-11.74,0-.68.04-1.36.13-2.04.14-1.16.85-1.78,1.93-1.77,1.14,0,1.83.64,1.96,1.84.04.36.03.73.03,1.09,0,4.23.02,8.46,0,12.69,0,.65.17.92.86.89,1.16-.05,2.33-.01,3.5-.01,1.03,0,1.04,0,1.04-1.05,0-4.16,0-8.31,0-12.47,0-.56.04-1.12.21-1.66.31-.95.88-1.34,1.93-1.31.95.02,1.52.49,1.75,1.44.14.59.17,1.2.17,1.81,0,4.08,0,8.17,0,12.25q0,.99,1.02.99c1.07,0,2.14,0,3.21,0,1.2,0,1.26,0,1.26-1.16,0-4.98.12-9.96-.07-14.94-.05-1.26-.68-2.22-1.7-2.91Z"/>
      <path class="cls-1" d="M72.12,46.7c-.32-2.52-.13-5.05-.19-7.4,0-2.09.03-4.01,0-5.93-.05-3.18-1.56-4.98-4.68-5.55-1.88-.35-3.78-.37-5.66-.05-2.85.49-4.35,2.19-4.57,5.05-.04.55.12.82.71.81.95-.03,1.9,0,2.84-.01.53,0,1.15.19,1.57-.11.41-.29.22-.95.34-1.43.23-.9.77-1.36,1.71-1.38,1.33-.04,1.92.32,2.21,1.31.21.72.1,1.45.15,2.17.04.56-.18.78-.75.77-1.39-.03-2.77.06-4.14.27-2.65.4-4.37,1.87-4.93,4.3-.37,1.59-.26,3.18.14,4.76,1.13,4.48,6.75,4.29,8.92,2.05.33-.34.64-1.11.93-.99.52.22.24.95.29,1.45.04.49.22.69.71.68,1.24-.02,2.48-.03,3.72,0,.61.02.76-.23.69-.78ZM66.03,43.13c-.52,1.05-1.63,1.55-2.75,1.22-.49-.15-.85-.46-1.04-.95-.49-1.26-.47-2.52-.04-3.78.23-.68.73-1.07,1.39-1.28.23-.07.47-.12.71-.16,2.18-.37,2.27-.29,2.26,2.05.02.88-.06,1.92-.53,2.89Z"/>
      <path class="cls-1" d="M131.68,46.62c-.14-.66-.17-1.35-.18-2.03-.03-3.79,0-7.58-.05-11.38-.03-2.74-1.26-4.49-3.82-5.19-2.42-.67-4.91-.69-7.35-.05-2.31.61-3.72,2.58-3.72,4.91,0,.53.17.75.71.74,1.12-.02,2.24,0,3.35,0,1.43,0,1.14.02,1.35-1.12.04-.19.05-.39.11-.57.25-.86.77-1.23,1.73-1.24,1.26-.02,1.76.28,2.07,1.19.24.71.14,1.44.2,2.17.05.71-.23.93-.92.9-1.73-.06-3.45.07-5.12.57-1.5.45-2.76,1.27-3.35,2.8-.92,2.4-.91,4.8.21,7.14.6,1.25,1.65,1.97,2.97,2.25,1.49.32,2.95.19,4.33-.52.72-.49,1.34-1.08,1.85-1.79.08-.11.17-.28.33-.18.07.05.1.21.11.32.06.64.11,1.29.16,1.94,1.41,0,2.82-.02,4.23.02.65.02.95-.12.78-.86ZM126.1,40.05c-.01.97-.02,1.94-.42,2.86-.5,1.16-1.39,1.66-2.62,1.49-.86-.13-1.38-.81-1.54-2.03-.04-.34-.09-.67-.09-1.01,0-2.17.89-3.11,3.05-3.21q1.62-.08,1.63,1.55c0,.12,0,.24,0,.36Z"/>
      <path class="cls-1" d="M188.51,27.92c-1.26.03-2.53.02-3.79,0-.56-.01-.82.17-.94.75-.54,2.66-1.13,5.32-1.7,7.98-.33,1.53-.67,3.06-1.03,4.72-.3-.5-.31-.92-.39-1.32-.77-3.78-1.54-7.57-2.29-11.35-.11-.55-.32-.79-.91-.77-1.31.03-2.62.03-3.94,0-.63-.02-.74.2-.58.78,1.62,5.95,3.2,11.92,4.83,17.87.2.71.19,1.37-.02,2.06-.54,1.79-1.06,3.59-1.58,5.38-.21.71-.13.82.6.82,1.39,0,2.77-.04,4.15-.01.62.01.88-.22,1.05-.82,1.25-4.54,2.54-9.08,3.81-13.61,1.09-3.91,2.18-7.82,3.28-11.72.16-.55.04-.75-.55-.74Z"/>
      <path class="cls-1" d="M149.92,40.21c-1.38.03-2.77.06-4.15.07-.44,0-.58.22-.63.62-.06.53-.14,1.07-.29,1.57-.27.9-.76,1.64-1.8,1.78-1.42.2-2.16-.32-2.51-1.79-.39-1.62-.29-3.28-.3-4.93,0-.97-.03-1.95.01-2.92.04-.85.1-1.7.5-2.48.39-.75,1.02-1.05,1.85-1.05.86,0,1.58.2,2,1.04.34.67.42,1.39.43,2.12,0,.43.14.67.63.67,1.43-.02,2.87-.01,4.3,0,.39,0,.61-.13.59-.54-.1-2.15-.79-4.78-3.44-5.98-2.27-1.03-4.64-1.04-7.01-.6-2.94.54-4.66,2.45-5.12,5.42-.1.62-.2,1.25-.23,1.88-.14,2.84-.21,5.69.64,8.46.57,1.86,1.77,3.17,3.65,3.77,2.21.7,4.46.72,6.69.16,3.15-.8,4.95-3.31,4.87-6.57-.01-.49-.18-.72-.68-.71Z"/>
      <path class="cls-1" d="M55.51,20.07c.03-.48-.16-.65-.63-.65-1.34.02-2.68-.04-4.01.04-2.61.16-3.94,1.52-4.2,4.13-.12,1.19-.1,2.38-.09,3.57,0,.56-.17.8-.75.77-.63-.03-1.26,0-1.89,0-.37,0-.6.12-.59.54.01.78,0,1.55,0,2.33,0,.4.17.58.57.58.61,0,1.22.04,1.82,0,.64-.04.84.22.83.85-.03,2.4-.01,4.81-.01,7.21h0c0,2.4.01,4.81,0,7.21,0,.57.14.84.77.82,1.34-.04,2.67-.03,4.01,0,.56.01.78-.18.77-.75-.03-1.41,0-2.82,0-4.23,0-3.43.01-6.85-.01-10.28,0-.63.2-.89.84-.85.6.04,1.21,0,1.82,0,.42,0,.64-.17.63-.6,0-.51,0-1.02,0-1.53q0-1.32-1.29-1.32s-.05,0-.07,0q-1.91,0-1.9-1.94c.01-2.54.32-2.87,2.85-3.04.38-.03.55-.13.59-.55.07-.78-.07-1.55-.02-2.33Z"/>
      <path class="cls-1" d="M169.77,27.93c-.07,0-.15,0-.22,0-.65.08-.86-.25-.84-.85.03-1.26.03-2.53.04-3.79,0-.72-.15-.83-.81-.54-1.38.61-2.74,1.24-4.12,1.85-.39.17-.56.42-.55.84.02.63,0,1.26,0,1.9,0,.38-.12.57-.54.6-.52.03-1.19-.25-1.53.18-.33.42-.09,1.08-.13,1.64,0,.1,0,.19,0,.29.02,1.42-.2,1.34,1.33,1.33.67,0,.88.23.87.89-.04,1.85-.01,3.69-.01,5.54h0c0,1.8-.01,3.6,0,5.4.02,2.17,1.22,3.7,3.32,4.22,1.34.34,2.7.21,4.06.14.67-.04.87-.37.82-.99-.04-.43,0-.87,0-1.31q0-1.11-1.1-1.14c-1.05-.03-1.49-.43-1.55-1.42-.22-3.55-.05-7.1-.1-10.64,0-.45.16-.69.64-.67.22.01.44,0,.66,0q1.59,0,1.59-1.59,0-1.86-1.82-1.87Z"/>
      <path class="cls-1" d="M85,27.61c-.22.03-.43.04-.65.08-1.52.23-2.62,1.07-3.39,2.39-.08-.02-.15-.04-.23-.06,0-.48-.01-.95,0-1.43.02-.46-.16-.67-.64-.66-1.29.01-2.57.01-3.86,0-.46,0-.66.16-.66.64,0,6.07,0,12.15,0,18.22,0,.56.24.71.75.7,1.21-.02,2.43,0,3.64,0q1.06,0,1.06-1.03c0-3.23-.02-6.46.01-9.69,0-1.04.03-2.1.72-2.99.85-1.09,2.05-1.32,3.33-1.29.63.01.87-.2.85-.84-.04-1.04-.04-2.09,0-3.13.03-.71-.25-.99-.95-.88Z"/>
      <path class="cls-1" d="M157.84,27.92c-1.34.04-2.67.03-4.01,0-.55,0-.74.23-.72.75.03.68.05,1.36.05,2.04,0,5.25,0,10.5,0,15.75,0,1,.01,1.01,1.03,1.01,1.14,0,2.28,0,3.43,0,.99,0,.99,0,.99-1.03,0-2.92,0-5.83,0-8.75,0-2.99-.01-5.98,0-8.97,0-.59-.16-.82-.78-.81Z"/>
      <path class="cls-1" d="M153.8,23.85c.68-.02,1.36,0,2.04,0h0c.68,0,1.36-.02,2.04.01.51.02.76-.13.75-.69-.03-.97-.02-1.94,0-2.91.01-.5-.2-.69-.69-.69-1.36.01-2.71.01-4.07,0-.44,0-.66.15-.7.62-.09,1.02-.04,2.03-.04,3.05,0,.48.25.62.69.61Z"/>
    </g>
  </g>
</svg>