<?xml version="1.0" encoding="UTF-8"?>
<svg id="Capa_2" data-name="Capa 2" xmlns="http://www.w3.org/2000/svg" version="1.1" viewBox="0 0 1284.2 401.8">
  <defs>
    <style>
      .cls-1 {
        fill: #000;
        stroke-width: 0px;
      }
    </style>
  </defs>
  <path class="cls-1" d="M356.3,344.4c12.6-8.2,24.9-16.3,37.7-24.7,12.4,18.3,28.1,31.8,50.3,36,15.6,2.9,30.8,1.3,45.4-5.3,27.2-12.2,42.9-43.4,43.3-68.7-2.9,2.3-5.4,4.4-8,6.4-50.3,38.9-121.1,29.7-161-21.3-54.8-70-19.3-174.1,71.2-193.3,79.5-16.8,145.7,49.7,144.2,117.6-.6,25.7,0,51.3-.4,77-.4,22.7-3.1,45.3-13.5,66-19.3,38.3-50.7,61.1-92.9,66.7-49.7,6.5-87.3-15-115.7-54.8-.2-.2-.2-.6-.5-1.4ZM534.1,191.3c0-41.2-34.3-75-75.7-74.8-41.3.1-75.4,34.5-75.2,75.5.3,41.5,34.2,75.1,75.6,75,40.9-.1,75.4-34.8,75.3-75.6Z"/>
  <path class="cls-1" d="M599.1,0h44.9v102.9c2.1-1.7,3.3-2.6,4.5-3.6,16.9-15,36.5-24.5,58.9-27.2,47-5.6,84.3,11.9,111.2,50.3,48.5,69.3,12.3,165.2-69.7,186-65.9,16.7-133.9-25.8-147.4-92.3-1.4-7.1-2.3-14.5-2.3-21.8-.2-63.2-.1-126.3-.1-189.5V0ZM720.1,116.5c-38.3-1.2-75.9,31.5-75.8,75.4.1,43.8,36.6,75.2,74.4,75.2,41.7,0,76.2-33.5,76.3-74.9.2-41.2-33.7-75.5-75-75.7Z"/>
  <path class="cls-1" d="M.2,0h44.7v102.9c2.2-1.8,3.6-2.8,4.8-4,20.7-18.2,45-27.4,72.5-28,64.4-1.2,104.9,48.9,115.3,90.8,15.6,63.2-21.6,128.1-84.2,145.8-64.9,18.3-132.9-20.6-149.7-85.9-2.1-8.3-3.4-17.1-3.4-25.6C0,132.1,0,68,0,4c0-1.2.1-2.3.2-4ZM120.7,116.5c-41.4-.1-75.5,33.7-75.6,75,0,41.5,33.6,75.4,75,75.5,41.4.1,75.4-33.6,75.8-75,.3-40.8-34.1-75.4-75.2-75.5Z"/>
  <path class="cls-1" d="M1094.3,191.6c2.2,62.5-52.6,120.3-120.2,120.4-65,0-121.2-53.2-120.9-120.5.3-66.7,54.4-120.5,121-120.6,68.7-.1,122.4,59.7,120.1,120.7ZM973.9,116.5c-41.6,0-75.2,33.6-75.3,75.2,0,41.9,33.6,75.4,75.6,75.3,41.5,0,75.1-33.8,75.1-75.4,0-41.3-33.9-75.1-75.4-75.1Z"/>
  <path class="cls-1" d="M1182.1,150c8.6-13.2,16.8-25.7,24.9-38.3,7.3-11.2,14.5-22.4,21.9-33.4,1-1.5,3.2-3.2,4.9-3.2,16.5-.2,33-.1,50.4-.1-1.2,2-2,3.5-3,5-23.3,35.9-46.5,71.9-69.9,107.7-2.1,3.2-1.9,5.3.1,8.4,23.3,35.5,46.4,71.1,69.5,106.7,1,1.5,1.8,3,3.2,5.3-5,0-9.3,0-13.5,0-11.8,0-23.7,0-35.5,0-3,0-4.8-.9-6.4-3.5-14.3-22.1-28.8-44.1-43.2-66.1-1-1.5-2-3-3.5-5-2.8,4.2-5.3,7.8-7.7,11.5-13,19.7-26.1,39.4-39,59.2-1.9,2.9-3.9,3.8-7.3,3.8-15.8-.2-31.6,0-48.6,0,1.4-2.2,2.3-3.8,3.3-5.4,23.1-35.5,46.1-70.9,69.3-106.3,2.3-3.5,2.2-5.8,0-9.3-23.3-35.7-46.4-71.5-69.6-107.3-.8-1.2-1.6-2.5-2.8-4.4,1.8-.2,3.2-.4,4.5-.4,14.7,0,29.3,0,44-.1,3.4,0,5.4,1.1,7.2,3.9,14.2,21.9,28.6,43.8,42.9,65.6,1.1,1.7,2.3,3.3,3.9,5.6Z"/>
  <path class="cls-1" d="M309.7,75.1v232.5h-44.4V75.1h44.4Z"/>
  <path class="cls-1" d="M309.8,2v43.6h-44.4V2h44.4Z"/>
</svg>