<?xml version="1.0" encoding="UTF-8"?>
<svg id="Capa_2" data-name="Capa 2" xmlns="http://www.w3.org/2000/svg" viewBox="0 0 237.1 36">
  <defs>
    <style>
      .cls-1 {
        fill: #00b35c;
        stroke-width: 0px;
      }
    </style>
  </defs>
  <g id="Capa_1-2" data-name="Capa 1">
    <g>
      <path class="cls-1" d="M0,26.24l7.05-.93c1.03,3.04,3.6,4.67,7.24,4.67s5.84-1.49,5.79-4.02c-.09-6.63-18.86-2.29-18.86-14.99C1.21,5.04,6.26,1.07,13.49,1.07s12.28,3.13,13.59,9.15l-6.77.93c-1.07-2.71-3.22-4.11-6.58-4.11s-5.32,1.45-5.32,3.78c0,7.19,19.1,2.05,19.1,14.89,0,6.12-5.18,10.13-13.17,10.13-7.47,0-12.89-3.45-14.33-9.62Z"/>
      <path class="cls-1" d="M30.49,22.04c0-8.22,5.6-13.87,13.68-13.87,8.82,0,14.01,6.16,13.17,15.5h-19.75c.14,4.34,2.75,6.86,7,6.86,3.03,0,5.04-1.12,6.02-3.32l6.49.79c-1.91,5.18-6.26,7.89-12.7,7.89-8.4,0-13.91-5.51-13.91-13.87ZM50.85,19c-.28-3.55-2.71-5.84-6.49-5.84s-6.21,2.05-6.63,5.84h13.12Z"/>
      <path class="cls-1" d="M61.07,8.68h7.1v4.3c1.21-2.94,4.2-4.81,8.26-4.81,7.14,0,10.37,4.11,10.37,12.51v14.71h-7.1v-14.05c0-4.9-1.82-7.14-5.79-7.14s-5.74,2.61-5.74,7.56v13.63h-7.1V8.68Z"/>
      <path class="cls-1" d="M89.98,22.04c0-8.96,5.18-13.87,11.81-13.87,3.78,0,7.24,1.87,8.54,5.04V0h7.1v35.35h-7.1v-4.34c-1.31,3.08-4.76,5-8.5,5-6.63,0-11.86-5-11.86-13.96ZM110.57,22.04c0-5-2.8-7.98-6.77-7.98s-6.72,2.94-6.72,7.98,2.8,8.03,6.77,8.03,6.72-2.99,6.72-8.03Z"/>
      <path class="cls-1" d="M120.75,22.04c0-8.96,5.18-13.87,11.81-13.87,3.78,0,7.19,1.87,8.54,5.04v-4.53h7.1v26.66h-7.1v-4.34c-1.31,3.08-4.76,5-8.5,5-6.63,0-11.86-5-11.86-13.96ZM141.34,22.04c0-5-2.8-7.98-6.77-7.98s-6.72,2.94-6.72,7.98,2.8,8.03,6.77,8.03,6.72-2.99,6.72-8.03Z"/>
      <path class="cls-1" d="M153.74,29.28l16.44-21.1h-16.44V1.59h25.31v6.12l-16.39,21.1h16.39v6.58h-25.31v-6.12Z"/>
      <path class="cls-1" d="M180.78,22.04c0-8.22,5.6-13.87,13.68-13.87,8.82,0,14.01,6.16,13.17,15.5h-19.75c.14,4.34,2.75,6.86,7,6.86,3.03,0,5.04-1.12,6.02-3.32l6.49.79c-1.91,5.18-6.26,7.89-12.7,7.89-8.4,0-13.91-5.51-13.91-13.87ZM201.14,19c-.28-3.55-2.71-5.84-6.49-5.84s-6.21,2.05-6.63,5.84h13.12Z"/>
      <path class="cls-1" d="M211.38,8.68h7.1v4.3c1.21-2.94,4.2-4.81,8.26-4.81,7.14,0,10.37,4.11,10.37,12.51v14.71h-7.1v-14.05c0-4.9-1.82-7.14-5.79-7.14s-5.74,2.61-5.74,7.56v13.63h-7.1V8.68Z"/>
    </g>
  </g>
</svg>