<?xml version="1.0" encoding="UTF-8"?>
<svg id="Layer_1" data-name="Layer 1" xmlns="http://www.w3.org/2000/svg" version="1.1" xmlns:cc="http://creativecommons.org/ns#" xmlns:dc="http://purl.org/dc/elements/1.1/" xmlns:inkscape="http://www.inkscape.org/namespaces/inkscape" xmlns:rdf="http://www.w3.org/1999/02/22-rdf-syntax-ns#" xmlns:sodipodi="http://sodipodi.sourceforge.net/DTD/sodipodi-0.dtd" xmlns:svg="http://www.w3.org/2000/svg" viewBox="0 0 1073 439.4">
  <defs>
    <style>
      .cls-1 {
        fill: #faa61a;
      }

      .cls-1, .cls-2 {
        stroke-width: 0px;
      }

      .cls-2 {
        fill: #00579f;
      }
    </style>
  </defs>
  <sodipodi:namedview id="namedview19" bordercolor="#666666" borderopacity="1" gridtolerance="10" guidetolerance="10" inkscape:current-layer="Layer_1" inkscape:cx="34.690897" inkscape:cy="131.15483" inkscape:pageopacity="0" inkscape:pageshadow="2" inkscape:window-height="705" inkscape:window-maximized="1" inkscape:window-width="1366" inkscape:window-x="-8" inkscape:window-y="-8" inkscape:zoom="0.35355339" objecttolerance="10" pagecolor="#ffffff" showgrid="false"/>
  <g id="g4158">
    <polygon id="polygon9" class="cls-2" points="469.8 376.9 388.8 376.9 439.5 63.6 520.5 63.6 469.8 376.9"/>
    <path id="path11" class="cls-2" d="M763.5,71.2c-16-6.3-41.3-13.3-72.7-13.3-80,0-136.3,42.7-136.7,103.7-.7,45,40.3,70,71,85,31.3,15.3,42,25.3,42,39-.3,21-25.3,30.7-48.6,30.7s-49.7-5-76-16.7l-10.7-5-11.3,70.3c19,8.7,54,16.3,90.3,16.7,85,0,140.3-42,141-107,.3-35.7-21.3-63-68-85.3-28.3-14.3-45.7-24-45.7-38.7.3-13.3,14.7-27,46.7-27,26.3-.7,45.7,5.7,60.3,12l7.3,3.3,11-67.7h0Z" inkscape:connector-curvature="0"/>
    <path id="path13" class="cls-2" d="M871.2,265.9c6.7-18,32.3-87.7,32.3-87.7-.3.7,6.7-18.3,10.7-30l5.7,27s15.3,75,18.7,90.7h-67.3ZM971.2,63.6h-62.7c-19.3,0-34,5.7-42.3,26l-120.3,287.3h85s14-38.7,17-47h104c2.3,11,9.7,47,9.7,47h75l-65.4-313.3h0Z" inkscape:connector-curvature="0"/>
    <path id="path15" class="cls-2" d="M321.2,63.6l-79.3,213.6-8.7-43.3c-14.7-50-60.7-104.3-112-131.3l72.7,274h85.7L406.8,63.6h-85.7Z" inkscape:connector-curvature="0"/>
    <path id="path17" class="cls-1" d="M168.2,63.6H37.8l-1.3,6.3c101.7,26,169,88.7,196.7,164l-28.3-144c-4.7-20-19-25.7-36.7-26.3h0Z" inkscape:connector-curvature="0"/>
  </g>
</svg>