<?xml version="1.0" encoding="UTF-8"?>
<svg id="svg2" xmlns="http://www.w3.org/2000/svg" version="1.1" xmlns:cc="http://creativecommons.org/ns#" xmlns:dc="http://purl.org/dc/elements/1.1/" xmlns:inkscape="http://www.inkscape.org/namespaces/inkscape" xmlns:rdf="http://www.w3.org/1999/02/22-rdf-syntax-ns#" xmlns:sodipodi="http://sodipodi.sourceforge.net/DTD/sodipodi-0.dtd" xmlns:svg="http://www.w3.org/2000/svg" viewBox="0 0 1086.2 646.2">
  <defs>
    <style>
      .cls-1 {
        fill: #016fd0;
      }

      .cls-1, .cls-2 {
        stroke-width: 0px;
      }

      .cls-2 {
        fill: #fff;
      }
    </style>
  </defs>
  <sodipodi:namedview id="base" bordercolor="#666666" borderopacity="1.0" fit-margin-bottom="0" fit-margin-left="0" fit-margin-right="0" fit-margin-top="0" inkscape:current-layer="layer1" inkscape:cx="850.2929" inkscape:cy="357.59411" inkscape:document-units="px" inkscape:pageopacity="0.0" inkscape:pageshadow="2" inkscape:window-height="931" inkscape:window-maximized="1" inkscape:window-width="1680" inkscape:window-x="0" inkscape:window-y="1" inkscape:zoom="0.125" pagecolor="#ffffff" showgrid="true">
    <inkscape:grid id="grid2996" empspacing="5" enabled="true" originx="-55.5px" originy="947.50002px" snapvisiblegridlinesonly="true" type="xygrid" visible="true"/>
  </sodipodi:namedview>
  <g id="layer1" inkscape:groupmode="layer" inkscape:label="Layer 1">
    <path id="path3078" class="cls-1" d="M43.1,70.2h997.5v273l-49.4,39.1,49.4,34.8v158.8H43.1v-292.6s0-213.2,0-213.2Z" inkscape:connector-curvature="0" sodipodi:nodetypes="ccccccccccc"/>
    <path id="path3082" class="cls-2" d="M236.8,503.4v-156.6h165.8l17.8,23.2,18.4-23.2h601.9v145.8s-15.7,10.6-33.9,10.8h-333.3l-20.1-24.7v24.7h-65.7v-42.1s-9,5.9-28.4,5.9h-22.4v36.3h-99.5l-17.8-23.7-18,23.7h-164.8Z" inkscape:connector-curvature="0" sodipodi:nodetypes="cccccccccccccccccccc"/>
    <path id="path3080" class="cls-2" d="M43.1,228.8l37.4-87.2h64.7l21.2,48.8v-48.8h80.4l12.6,35.3,12.2-35.3h360.9v17.7s19-17.7,50.1-17.7l117.1.4,20.9,48.2v-48.6h67.3l18.5,27.7v-27.7h67.9v156.6h-67.9l-17.7-27.8v27.8h-98.8l-9.9-24.7h-26.6l-9.8,24.7h-67c-26.8,0-44-17.4-44-17.4v17.4h-101.1l-20.1-24.7v24.7H135.6l-9.9-24.7h-26.5l-9.9,24.7h-46.2v-69.4Z" inkscape:connector-curvature="0" sodipodi:nodetypes="cccccccccccccccccccccccccccccccccccccc"/>
    <path id="path3046" class="cls-1" d="M93.8,160.9l-50.4,117.3h32.8l9.3-23.5h54.1l9.3,23.5h33.6l-50.4-117.3h-38.2ZM112.4,188.2l16.5,41h-33l16.5-41Z" inkscape:connector-curvature="0"/>
    <path id="path3048" class="cls-1" d="M185.9,278.2v-117.3l46.7.2,27.1,75.6,26.5-75.8h46.3v117.3h-29.3v-86.4l-31.1,86.4h-25.7l-31.2-86.4v86.4h-29.3Z" inkscape:connector-curvature="0" sodipodi:nodetypes="cccccccccccccc"/>
    <path id="path3050" class="cls-1" d="M352.5,278.2v-117.3h95.7v26.2h-66v20.1h64.5v24.7h-64.5v20.8h66v25.5h-95.7Z" inkscape:connector-curvature="0" sodipodi:nodetypes="ccccccccccccc"/>
    <path id="path3052" class="cls-1" d="M465.1,160.9v117.3h29.3v-41.7h12.3l35.2,41.7h35.8l-38.6-43.2c15.8-1.3,32.2-14.9,32.2-36s-19.4-38-41-38h-65.2ZM494.5,187.1h33.5c8,0,13.9,6.3,13.9,12.3s-7.6,12.3-13.5,12.3h-33.9v-24.7h0Z" inkscape:connector-curvature="0"/>
    <path id="path3054" class="cls-1" d="M613.3,278.2h-29.9v-117.3h29.9v117.3Z" inkscape:connector-curvature="0" sodipodi:nodetypes="ccccc"/>
    <path id="path3056" class="cls-1" d="M684.2,278.2h-6.5c-31.3,0-50.2-24.6-50.2-58.1s18.8-59.1,58.2-59.1h32.4v27.8h-33.6c-16,0-27.4,12.5-27.4,31.6s13,32.2,31.6,32.2h7.7l-12.3,25.6Z" inkscape:connector-curvature="0" sodipodi:nodetypes="ccccccccccc"/>
    <path id="path3058" class="cls-1" d="M748,160.9l-50.4,117.3h32.8l9.3-23.5h54.1l9.3,23.5h33.6l-50.4-117.3h-38.2ZM766.7,188.2l16.5,41h-33l16.5-41h0Z" inkscape:connector-curvature="0"/>
    <path id="path3060" class="cls-1" d="M840.1,278.2v-117.3h37.3l47.6,73.7v-73.7h29.3v117.3h-36.1l-48.8-75.6v75.6h-29.3Z" inkscape:connector-curvature="0" sodipodi:nodetypes="ccccccccccc"/>
    <path id="path3062" class="cls-1" d="M256.8,483.4v-117.3h95.7v26.2h-66v20.1h64.5v24.7h-64.5v20.8h66v25.5h-95.7Z" inkscape:connector-curvature="0" sodipodi:nodetypes="ccccccccccccc"/>
    <path id="path3064" class="cls-1" d="M725.6,483.4v-117.3h95.7v26.2h-66v20.1h64.2v24.7h-64.2v20.8h66v25.5h-95.7Z" inkscape:connector-curvature="0" sodipodi:nodetypes="ccccccccccccc"/>
    <path id="path3066" class="cls-1" d="M356.2,483.4l46.6-57.9-47.7-59.4h36.9l28.4,36.7,28.5-36.7h35.5l-47.1,58.6,46.7,58.6h-36.9l-27.6-36.1-26.9,36.1h-36.4Z" inkscape:connector-curvature="0" sodipodi:nodetypes="ccccccccccccc"/>
    <path id="path3068" class="cls-1" d="M487.5,366.1v117.3h30.1v-37h30.9c26.1,0,45.9-13.9,45.9-40.8s-15.5-39.4-42.1-39.4h-64.8ZM517.6,392.6h32.5c8.4,0,14.5,5.2,14.5,13.5s-6,13.5-14.6,13.5h-32.4v-27h0Z" inkscape:connector-curvature="0"/>
    <path id="path3072" class="cls-1" d="M607.1,366.1v117.3h29.3v-41.7h12.3l35.2,41.7h35.8l-38.6-43.2c15.8-1.3,32.2-14.9,32.2-36s-19.4-38-41-38h-65.2,0ZM636.4,392.3h33.5c8,0,13.9,6.3,13.9,12.3s-7.6,12.3-13.5,12.3h-33.9v-24.7Z" inkscape:connector-curvature="0"/>
    <path id="path3074" class="cls-1" d="M834.8,483.4v-25.5h58.7c8.7,0,12.4-4.7,12.4-9.8s-3.7-9.9-12.4-9.9h-26.5c-23,0-35.9-14-35.9-35.1s11.8-36.9,46-36.9h57.1l-12.3,26.4h-49.4c-9.4,0-12.3,5-12.3,9.7s3.6,10.2,10.8,10.2h27.8c25.7,0,36.8,14.6,36.8,33.7s-12.4,37.3-38.2,37.3h-62.5Z" inkscape:connector-curvature="0" sodipodi:nodetypes="ccccccccccccccccc"/>
    <path id="path3076" class="cls-1" d="M942.4,483.4v-25.5h58.7c8.7,0,12.4-4.7,12.4-9.8s-3.7-9.9-12.4-9.9h-26.5c-23,0-35.9-14-35.9-35.1s11.8-36.9,46-36.9h57.1l-12.3,26.4h-49.4c-9.4,0-12.3,5-12.3,9.7s3.6,10.2,10.8,10.2h27.8c25.7,0,36.8,14.6,36.8,33.7s-12.4,37.3-38.2,37.3h-62.5Z" inkscape:connector-curvature="0" sodipodi:nodetypes="ccccccccccccccccc"/>
  </g>
</svg>